<?xml version="1.0" encoding="UTF-8"?>
<!DOCTYPE svg PUBLIC "-//W3C//DTD SVG 1.1//EN" "http://www.w3.org/Graphics/SVG/1.1/DTD/svg11.dtd">
<!-- Creator: CorelDRAW 2018 (64-Bit) -->
<svg xmlns="http://www.w3.org/2000/svg" xml:space="preserve" width="15.2147in" height="20.4346in" version="1.1" style="shape-rendering:geometricPrecision; text-rendering:geometricPrecision; image-rendering:optimizeQuality; fill-rule:evenodd; clip-rule:evenodd"
viewBox="0 0 551.61 740.86"
 xmlns:xlink="http://www.w3.org/1999/xlink">
 <defs>
  <style type="text/css">
   <![CDATA[
    .fil2 {fill:none}
    .fil1 {fill:#CCCCCC}
    .fil3 {fill:#E6E6E6}
    .fil0 {fill:white}
    .fil4 {fill:white;fill-rule:nonzero}
   ]]>
  </style>
   <clipPath id="id0">
    <path d="M76.36 513.09c21.15,-0.17 40.3,-10.61 52.17,-26.96 1.5,-2.06 2.88,-4.22 4.14,-6.47 -0.87,2.44 -1.88,4.82 -3.02,7.11 -4.15,8.37 -10.02,15.67 -17.1,21.48 10.19,-3.92 19.68,-9.35 28.19,-16.03 2.34,-1.84 4.6,-3.77 6.78,-5.79 1.61,-1.5 3.18,-3.04 4.7,-4.63 0,-0 0,-0 0,-0 7.74,-8.1 14.27,-17.42 19.25,-27.7 5.49,-11.32 9.1,-23.79 10.4,-37.05 0.1,-0.98 0.18,-1.96 0.25,-2.93 0.98,-13.86 -0.67,-27.32 -4.55,-39.89 -1.45,-1 -2.83,-2.09 -4.15,-3.26 -5.35,-4.75 -9.57,-10.84 -12.09,-17.9 -0.7,-1.97 -1.27,-4.01 -1.69,-6.12 -0.57,-2.81 -0.85,-5.61 -0.86,-8.38 -0.05,-6.77 1.49,-13.32 4.32,-19.19 -4.42,3.04 -8.6,6.38 -12.49,10 -3.82,3.55 -7.38,7.37 -10.64,11.42 -3.16,3.92 -6.05,8.06 -8.65,12.38 -7.09,11.8 -11.97,24.96 -14.2,38.82 -0.24,1.52 -0.46,3.04 -0.64,4.58 -0.51,4.35 -0.76,8.76 -0.74,13.21 0.03,6.98 0.74,14.05 2.16,21.15 0.06,0.28 0.11,0.56 0.17,0.84 0.74,2.4 1.34,4.85 1.8,7.34 0.05,0.17 0.1,0.35 0.15,0.52 -0.02,-0 -0.04,-0 -0.05,-0 1.01,5.73 1.26,11.69 0.67,17.76 -0.36,3.67 -1.01,7.25 -1.94,10.7 -0.85,3.16 -1.92,6.21 -3.2,9.14 -7.41,17 -21.75,30.02 -39.13,35.84z"/>
   </clipPath>
     <mask id="id1">
  <linearGradient id="id2" gradientUnits="userSpaceOnUse" x1="118.87" y1="483.53" x2="133.29" y2="344.13">
   <stop offset="0" style="stop-opacity:1; stop-color:white"/>
   <stop offset="1" style="stop-opacity:0; stop-color:white"/>
  </linearGradient>
      <rect style="fill:url(#id2)" x="76.23" y="319.26" width="86.98" height="193.96"/>
     </mask>
   <clipPath id="id3">
    <path d="M203.88 419.27c4.08,19.99 2.41,39.82 -3.88,57.77 1.07,1.23 2.12,2.48 3.14,3.76 6.17,7.75 11.34,16.41 15.26,25.82 2.67,6.41 4.77,13.18 6.21,20.24 0.09,0.43 0.17,0.86 0.25,1.29 2.36,12.3 2.55,24.53 0.83,36.28 0.18,0.17 0.36,0.33 0.54,0.5 9.83,8.22 23.18,12.04 36.71,9.28 0.63,-0.13 1.24,-0.27 1.86,-0.42 0.18,-3.57 -0.09,-7.23 -0.84,-10.89 -0.22,-1.07 -0.48,-2.13 -0.77,-3.17 -0.97,-3.42 -2.33,-6.65 -4.02,-9.63 -0.62,-1.1 -1.29,-2.16 -2,-3.19 -0.4,-0.55 -0.8,-1.09 -1.19,-1.65 -8.5,-11.99 -14.71,-25.9 -17.84,-41.23 -0.84,-4.12 -1.44,-8.23 -1.8,-12.32 0.02,-0.01 0.04,-0.02 0.06,-0.03 -1.47,-13.88 3.82,-27.2 13.48,-36.31 0.12,-0.11 0.24,-0.23 0.37,-0.34 13.17,-12.28 23.14,-27.69 28.95,-44.75 4.92,-14.44 6.85,-30.06 5.23,-45.99 -0.37,-3.61 -0.92,-7.23 -1.66,-10.86 -0.96,-4.72 -2.22,-9.3 -3.74,-13.74 3.87,7.16 6.99,14.86 9.22,23 7.58,-3.27 14.89,-7.07 21.89,-11.36 24.28,-14.86 44.76,-35.53 59.36,-60.27 -2.01,-0.85 -3.99,-1.77 -5.95,-2.74l-0 0c-11.02,-5.48 -21.07,-12.8 -29.69,-21.64 11.7,8.45 25.05,14.57 39.29,17.87 2.27,0.52 4.55,0.98 6.86,1.36 15.91,-3.57 30.25,-10.48 42.42,-19.82 7.14,3.12 13.92,7 20.23,11.55l0 0 0 0c-0.62,1.8 -1.29,3.59 -2.02,5.36 -2.02,4.96 -4.42,9.83 -7.23,14.56 -0.83,1.41 -1.7,2.8 -2.61,4.19 -0.24,0.36 -0.47,0.72 -0.71,1.08 -1.18,1.74 0.13,-0.19 -0.79,1.16 -6.83,9.9 -15.02,18.34 -24.16,25.22 0.01,0.24 0.02,0.49 0.03,0.73 1.2,12.76 7.99,24.87 19.54,32.43 0.53,0.35 1.07,0.69 1.62,1.01 2.64,-2.41 5.02,-5.2 7.07,-8.33 3.37,-5.16 5.51,-10.76 6.48,-16.46 0.07,-0.44 0.13,-0.88 0.21,-1.32 1.17,-7.24 3.08,-14.41 5.77,-21.41 2.74,-7.15 6.28,-14.12 10.64,-20.79 0.72,-1.1 1.46,-2.18 2.21,-3.25 0.98,-1.39 2,-2.76 3.03,-4.09 0.71,-0.91 1.42,-1.8 2.15,-2.68 1.81,-2.18 3.69,-4.28 5.64,-6.28 1.85,-1.91 3.75,-3.73 5.72,-5.48 -3.1,-3.37 -6.4,-6.53 -9.89,-9.47l-0 0c-7.44,-6.28 -15.69,-11.56 -24.53,-15.67 -4.34,-2.02 -8.83,-3.76 -13.43,-5.19l0.35 0.11c-27.16,-9.68 -49.96,-29.96 -62.41,-56.87 -3.48,-7.53 -6.15,-15.58 -7.89,-24.05 -1.58,-7.76 -2.3,-15.5 -2.22,-23.11 2.79,3.29 6.5,5.69 10.65,6.89 3.27,0.94 6.8,1.12 10.36,0.4 2.59,-0.53 4.98,-1.5 7.11,-2.81 0.08,-0.05 0.15,-0.09 0.23,-0.14 0.17,-0.11 0.33,-0.22 0.5,-0.33 1.62,-1.1 4.54,-2.39 7.34,-2.96 2.55,-0.52 5.09,-0.57 7.52,-0.22 6.75,0.99 12.71,5.12 15.99,11.14 -0.03,-0.07 7.39,15.23 23.98,11.84 11.8,-2.41 19.41,-13.93 17,-25.72 -0.44,-2.18 -1.2,-4.21 -2.21,-6.06 0.05,0.09 0.1,0.19 0.15,0.28 -9.41,-19.1 -24.09,-34.69 -41.82,-45.31 -1.39,-0.84 -2.81,-1.64 -4.24,-2.41 -1.06,-0.57 -2.13,-1.13 -3.21,-1.67 -0.02,-0.01 -0.03,-0.02 -0.05,-0.02 -1.75,-0.87 -3.52,-1.69 -5.32,-2.47 -2.79,-1.2 -5.64,-2.29 -8.53,-3.26 0,-0 0,-0 0,-0 -3.95,-1.33 -7.98,-2.43 -12.09,-3.3 -1.61,-0.34 -3.23,-0.65 -4.86,-0.91 -0.05,0.01 -0.1,0.02 -0.15,0.03l0 0c-55.89,12.63 -92.29,66.38 -83.71,122.66 -0.65,-4.26 -1.04,-8.5 -1.19,-12.71 0.74,23.43 -6.15,45.88 -18.75,64.47 -9.76,14.39 -22.94,26.47 -38.67,34.9l0 0c-9.12,4.89 -19.09,8.55 -29.75,10.73 -0.7,0.14 -1.41,0.28 -2.11,0.41l-0.01 0c-0.43,0.07 -0.85,0.15 -1.28,0.24 -0,0 -0.01,0 -0.01,0 -0.38,0.09 -0.77,0.17 -1.15,0.25 -22.94,5.32 -37.59,27.99 -32.85,51.19 1.81,8.88 6.21,16.57 12.24,22.46 0.62,0.55 1.24,1.1 1.85,1.66 1.37,1.52 2.7,3.09 3.98,4.69 1.55,1.93 3.03,3.92 4.45,5.96 8.19,11.79 14.17,25.4 17.23,40.36zm32.46 72.44l-0 -0.04 -0 -0.04 -0 -0.04 -0 -0.04 -0 -0.04 0 -0 -0 -0.04 0 -0 -0 -0.04 0 -0 -0 -0.04 0 -0 -0 -0.04 0 -0 -0 -0.04 0 -0 -0 -0.04 0 -0 -0 -0.04 0 -0 -0 -0.04 0 -0 -0 -0.04 0 -0 -0 -0.04 -0 -0.04 -0 -0.04 -0 -0.04 -0 -0.04 -0 -0.04 0 -0 -0 -0.04 0 -0 -0 -0.04 -0 -0.04 -0 -0.04 -0 -0.04 0 -0 -0 -0.04 0 -0 -0 -0.04 -0 -0.04 -0 -0.04 0 -0 -0 -0.04 -0 -0.04 -0 -0.04 0 -0 -0 -0.04 -0 -0.04 -0 -0.04 -0 -0.04 -0 -0.04 0 -0 -0 -0.04 -0 -0.04 0 -0 -0 -0.04 -0 -0.04 0 -0 -0 -0.04 -0 -0.04 0 -0 -0 -0.04 -0 -0.04 -0 -0.04 -0 -0.04 -0 -0.04 0 -0 -0 -0.04 -0 -0.04 -0 -0.04 -0 -0.04 -0 -0.04 -0 -0.04 -0 -0.04 -0 -0.04 -0 -0.04 -0 -0.04 -0 -0.04 -0 -0.04 -0 -0.04 -0 -0.04 -0 -0.04 -0 -0.04c0.06,0.95 0.13,1.91 0.22,2.86 -0,0 -0.01,0 -0.01,0zm53.57 -297.03c0.65,4.23 0.32,2.09 0,0zm37.37 66.86l0.09 -0.07 -0.09 0.07 -0 -0zm6.58 5.15l0 0 -0.1 -0.08 0.1 0.08z"/>
   </clipPath>
     <mask id="id4">
  <linearGradient id="id5" gradientUnits="userSpaceOnUse" x1="429.26" y1="70.32" x2="453.58" y2="139.17">
   <stop offset="0" style="stop-opacity:1; stop-color:white"/>
   <stop offset="1" style="stop-opacity:0; stop-color:white"/>
  </linearGradient>
      <rect style="fill:url(#id5)" x="339.57" y="67.91" width="117.57" height="77.61"/>
     </mask>
     <mask id="id6">
  <linearGradient id="id7" gradientUnits="userSpaceOnUse" x1="415.69" y1="160.51" x2="451.99" y2="155.2">
   <stop offset="0" style="stop-opacity:1; stop-color:white"/>
   <stop offset="1" style="stop-opacity:0; stop-color:white"/>
  </linearGradient>
      <rect style="fill:url(#id7)" x="416.09" y="148.62" width="39.88" height="15.1"/>
     </mask>
     <mask id="id8">
  <linearGradient id="id9" gradientUnits="userSpaceOnUse" x1="354.63" y1="210.72" x2="347.25" y2="111.73">
   <stop offset="0" style="stop-opacity:1; stop-color:white"/>
   <stop offset="1" style="stop-opacity:0; stop-color:white"/>
  </linearGradient>
      <rect style="fill:url(#id9)" x="344.52" y="114.39" width="79.53" height="125.38"/>
     </mask>
     <mask id="id10">
  <linearGradient id="id11" gradientUnits="userSpaceOnUse" x1="89.18" y1="412.86" x2="201.78" y2="504.29">
   <stop offset="0" style="stop-opacity:1; stop-color:white"/>
   <stop offset="1" style="stop-opacity:0; stop-color:white"/>
  </linearGradient>
      <rect style="fill:url(#id11)" x="7.75" y="357.17" width="218.27" height="218.27"/>
     </mask>
     <mask id="id12">
  <linearGradient id="id13" gradientUnits="userSpaceOnUse" x1="252.94" y1="576.74" x2="238.58" y2="541.22">
   <stop offset="0" style="stop-opacity:1; stop-color:white"/>
   <stop offset="1" style="stop-opacity:0; stop-color:white"/>
  </linearGradient>
      <rect style="fill:url(#id13)" x="225.7" y="538.45" width="39.15" height="36.66"/>
     </mask>
     <mask id="id14">
  <linearGradient id="id15" gradientUnits="userSpaceOnUse" x1="409.59" y1="353.71" x2="430.36" y2="323.24">
   <stop offset="0" style="stop-opacity:1; stop-color:white"/>
   <stop offset="1" style="stop-opacity:0; stop-color:white"/>
  </linearGradient>
      <rect style="fill:url(#id15)" x="405.15" y="317.95" width="35.8" height="45.42"/>
     </mask>
     <mask id="id16">
  <linearGradient id="id17" gradientUnits="userSpaceOnUse" x1="339.1" y1="331.45" x2="277.76" y2="344.65">
   <stop offset="0" style="stop-opacity:1; stop-color:white"/>
   <stop offset="1" style="stop-opacity:0; stop-color:white"/>
  </linearGradient>
      <rect style="fill:url(#id17)" x="279.02" y="319.29" width="69.72" height="43.4"/>
     </mask>
     <mask id="id18">
  <linearGradient id="id19" gradientUnits="userSpaceOnUse" x1="168.65" y1="315.68" x2="270.09" y2="233.01">
   <stop offset="0" style="stop-opacity:1; stop-color:white"/>
   <stop offset="1" style="stop-opacity:0; stop-color:white"/>
  </linearGradient>
      <rect style="fill:url(#id19)" x="164.59" y="224.85" width="116.72" height="99.8"/>
     </mask>
 </defs>
 <g id="Layer_x0020_1">
  <metadata id="CorelCorpID_0Corel-Layer"/>
  <path class="fil0" d="M76.36 513.09c21.15,-0.17 40.3,-10.61 52.17,-26.96 1.5,-2.06 2.88,-4.22 4.14,-6.47 -0.87,2.44 -1.88,4.82 -3.02,7.11 -4.15,8.37 -10.02,15.67 -17.1,21.48 10.19,-3.92 19.68,-9.35 28.19,-16.03 2.34,-1.84 4.6,-3.77 6.78,-5.79 1.61,-1.5 3.18,-3.04 4.7,-4.63 0,-0 0,-0 0,-0 7.74,-8.1 14.27,-17.42 19.25,-27.7 5.49,-11.32 9.1,-23.79 10.4,-37.05 0.1,-0.98 0.18,-1.96 0.25,-2.93 0.98,-13.86 -0.67,-27.32 -4.55,-39.89 -1.45,-1 -2.83,-2.09 -4.15,-3.26 -5.35,-4.75 -9.57,-10.84 -12.09,-17.9 -0.7,-1.97 -1.27,-4.01 -1.69,-6.12 -0.57,-2.81 -0.85,-5.61 -0.86,-8.38 -0.05,-6.77 1.49,-13.32 4.32,-19.19 -4.42,3.04 -8.6,6.38 -12.49,10 -3.82,3.55 -7.38,7.37 -10.64,11.42 -3.16,3.92 -6.05,8.06 -8.65,12.38 -7.09,11.8 -11.97,24.96 -14.2,38.82 -0.24,1.52 -0.46,3.04 -0.64,4.58 -0.51,4.35 -0.76,8.76 -0.74,13.21 0.03,6.98 0.74,14.05 2.16,21.15 0.06,0.28 0.11,0.56 0.17,0.84 0.74,2.4 1.34,4.85 1.8,7.34 0.05,0.17 0.1,0.35 0.15,0.52 -0.02,-0 -0.04,-0 -0.05,-0 1.01,5.73 1.26,11.69 0.67,17.76 -0.36,3.67 -1.01,7.25 -1.94,10.7 -0.85,3.16 -1.92,6.21 -3.2,9.14 -7.41,17 -21.75,30.02 -39.13,35.84z"/>
  <g style="clip-path:url(#id0)">
   <g id="_2451441402976">
    <path id="1" class="fil1" style="mask:url(#id1)" d="M150.42 341.51c2.73,-3.18 5.64,-6.2 8.73,-9.05 0.62,-4.59 1.96,-8.99 3.93,-13.08 -4.42,3.04 -8.6,6.38 -12.49,10 -3.82,3.55 -7.38,7.37 -10.64,11.42 -3.16,3.92 -6.05,8.06 -8.65,12.38 -7.09,11.8 -11.97,24.96 -14.2,38.82 -0.24,1.52 -0.46,3.04 -0.64,4.58 -0.51,4.35 -0.76,8.76 -0.74,13.21 0.03,6.98 0.74,14.05 2.16,21.15 0.06,0.28 0.11,0.56 0.17,0.84 0.74,2.4 1.34,4.85 1.8,7.34 0.05,0.17 0.1,0.35 0.15,0.52 -0.02,-0 -0.04,-0 -0.05,-0 1.01,5.73 1.26,11.69 0.67,17.76 -0.36,3.67 -1.01,7.25 -1.94,10.7 -0.85,3.16 -1.92,6.21 -3.2,9.14 -7.41,17 -21.75,30.02 -39.13,35.84 5.11,-0.04 10.1,-0.68 14.9,-1.86 -3.19,0.41 -6.44,0.58 -9.73,0.51 17.55,-5.28 32.28,-17.84 40.21,-34.61 1.37,-2.89 2.54,-5.91 3.48,-9.04 1.03,-3.42 1.8,-6.97 2.27,-10.63 0.78,-6.05 0.71,-12.02 -0.12,-17.78 0.02,0 0.04,0 0.05,0 -0.04,-0.17 -0.09,-0.35 -0.13,-0.53 -0.38,-2.51 -0.91,-4.98 -1.57,-7.39 -0.05,-0.28 -0.1,-0.56 -0.15,-0.84 -1.21,-7.14 -1.69,-14.23 -1.51,-21.21 0.12,-4.45 0.51,-8.85 1.15,-13.18 0.23,-1.53 0.49,-3.05 0.78,-4.56 2.66,-13.78 7.95,-26.78 15.39,-38.36 2.73,-4.24 5.74,-8.28 9.03,-12.11z"/>
   </g>
  </g>
  <path class="fil2" d="M76.36 513.09c21.15,-0.17 40.3,-10.61 52.17,-26.96 1.5,-2.06 2.88,-4.22 4.14,-6.47 -0.87,2.44 -1.88,4.82 -3.02,7.11 -4.15,8.37 -10.02,15.67 -17.1,21.48 10.19,-3.92 19.68,-9.35 28.19,-16.03 2.34,-1.84 4.6,-3.77 6.78,-5.79 1.61,-1.5 3.18,-3.04 4.7,-4.63 0,-0 0,-0 0,-0 7.74,-8.1 14.27,-17.42 19.25,-27.7 5.49,-11.32 9.1,-23.79 10.4,-37.05 0.1,-0.98 0.18,-1.96 0.25,-2.93 0.98,-13.86 -0.67,-27.32 -4.55,-39.89 -1.45,-1 -2.83,-2.09 -4.15,-3.26 -5.35,-4.75 -9.57,-10.84 -12.09,-17.9 -0.7,-1.97 -1.27,-4.01 -1.69,-6.12 -0.57,-2.81 -0.85,-5.61 -0.86,-8.38 -0.05,-6.77 1.49,-13.32 4.32,-19.19 -4.42,3.04 -8.6,6.38 -12.49,10 -3.82,3.55 -7.38,7.37 -10.64,11.42 -3.16,3.92 -6.05,8.06 -8.65,12.38 -7.09,11.8 -11.97,24.96 -14.2,38.82 -0.24,1.52 -0.46,3.04 -0.64,4.58 -0.51,4.35 -0.76,8.76 -0.74,13.21 0.03,6.98 0.74,14.05 2.16,21.15 0.06,0.28 0.11,0.56 0.17,0.84 0.74,2.4 1.34,4.85 1.8,7.34 0.05,0.17 0.1,0.35 0.15,0.52 -0.02,-0 -0.04,-0 -0.05,-0 1.01,5.73 1.26,11.69 0.67,17.76 -0.36,3.67 -1.01,7.25 -1.94,10.7 -0.85,3.16 -1.92,6.21 -3.2,9.14 -7.41,17 -21.75,30.02 -39.13,35.84z"/>
  <path class="fil0" d="M439.81 14.19c-0.99,-0.83 -1.99,-1.64 -3,-2.43 0.38,-0.35 0.76,-0.69 1.15,-1.03 1.45,-1.25 2.96,-2.4 4.52,-3.44l2.2 -2.7c1.46,-1.66 3.01,-3.19 4.64,-4.59l-4.4 6.23c-0.51,0.61 -1.04,1.21 -1.58,1.79 -0.75,1.72 -1.61,3.41 -2.59,5.06l-0.86 1.18c-0.03,-0.02 -0.06,-0.05 -0.09,-0.07z"/>
  <path class="fil1" d="M436.8 11.76c1.01,0.79 2.01,1.6 3,2.43 0.03,0.02 0.06,0.05 0.09,0.07l-2.78 3.83c-1.25,-0.94 -2.52,-1.85 -3.8,-2.73 1.11,-1.27 2.27,-2.47 3.49,-3.59z"/>
  <path class="fil0" d="M433.31 15.36c1.28,0.88 2.55,1.79 3.8,2.73l-1.38 1.9 -1.45 2.24 -0.01 0.02c-1.59,-1.07 -3.2,-2.09 -4.83,-3.07 0.21,-0.16 0.42,-0.31 0.64,-0.46l2.65 -2.67c0.19,-0.23 0.39,-0.46 0.59,-0.69z"/>
  <path class="fil1" d="M429.44 19.17c1.63,0.98 3.24,2 4.83,3.07l-2.87 4.48c-2.16,-1.3 -4.35,-2.52 -6.57,-3.65 1.47,-1.42 3.01,-2.72 4.61,-3.9z"/>
  <path class="fil0" d="M424.83 23.08c2.22,1.13 4.41,2.35 6.57,3.65l-3.02 4.72c-2.53,-1.35 -5.1,-2.6 -7.71,-3.73l1 -1.26c1.01,-1.19 2.06,-2.32 3.16,-3.38z"/>
  <path class="fil1" d="M420.67 27.71c2.6,1.13 5.18,2.38 7.71,3.73l-0.4 0.63c-0.51,0.61 -1.04,1.21 -1.58,1.79 -0.37,0.85 -0.77,1.7 -1.2,2.54 -3.3,-1.55 -6.66,-2.92 -10.06,-4.12 1.56,-1.37 3.19,-2.63 4.88,-3.76l0.65 -0.82z"/>
  <path class="fil0" d="M415.13 32.29c3.4,1.19 6.76,2.57 10.06,4.12 -0.88,1.71 -1.87,3.39 -2.98,5.01l-0.19 0.26c-3.93,-1.61 -7.94,-2.98 -11.99,-4.1 0.08,-0.1 0.16,-0.19 0.24,-0.29l3.05 -3.31c0.59,-0.58 1.19,-1.14 1.81,-1.69z"/>
  <path class="fil1" d="M410.03 37.57c4.05,1.12 8.06,2.49 11.99,4.1l-2.52 3.33c-0.51,0.61 -1.04,1.21 -1.58,1.79 -0.01,0.03 -0.03,0.06 -0.04,0.1 -4.66,-1.6 -9.4,-2.86 -14.19,-3.8 1.62,-1.45 3.32,-2.76 5.1,-3.94 0.4,-0.53 0.82,-1.06 1.24,-1.58z"/>
  <path class="fil0" d="M403.69 43.09c4.79,0.94 9.53,2.2 14.19,3.8 -0.88,2.02 -1.92,3.99 -3.12,5.9 -5.53,-1.6 -11.15,-2.75 -16.81,-3.45l5.48 -6.01c0.09,-0.08 0.17,-0.16 0.26,-0.24z"/>
  <path class="fil1" d="M397.95 49.33c5.66,0.7 11.28,1.85 16.81,3.45 -0,0.01 -0.01,0.01 -0.01,0.02l-4.46 5.81c-6.67,-1.51 -13.45,-2.37 -20.23,-2.6 1.21,-1.25 2.48,-2.42 3.8,-3.51 1.19,-0.98 2.43,-1.9 3.7,-2.74l0.39 -0.43z"/>
  <path class="fil0" d="M390.05 56.02c6.78,0.22 13.56,1.09 20.23,2.6l-0.84 1.1c-0.61,1.4 -1.29,2.77 -2.05,4.12 -0.22,0.39 -0.44,0.77 -0.67,1.15 -8,-1.39 -16.11,-1.87 -24.17,-1.44l2.27 -2.12 2.98 -2.91c0.72,-0.87 1.47,-1.7 2.25,-2.49z"/>
  <path class="fil1" d="M382.56 63.54c8.06,-0.42 16.17,0.06 24.16,1.44 -1.22,2.03 -2.61,3.99 -4.18,5.86l-0.43 0.66c-9.52,-1.07 -19.14,-0.87 -28.58,0.57 0.17,-0.13 0.34,-0.25 0.52,-0.37l2.52 -2.58 5.98 -5.59z"/>
  <path class="fil0" d="M373.54 72.09c9.44,-1.45 19.06,-1.65 28.58,-0.57l-2.34 3.64c-0.57,1.12 -1.19,2.21 -1.86,3.29 -11.7,-0.67 -23.46,0.57 -34.78,3.66 0.23,-0.16 0.46,-0.32 0.7,-0.47 2.42,-3.39 6.25,-7.04 9.69,-9.55z"/>
  <path class="fil0" d="M203.88 419.27c4.08,19.99 2.41,39.82 -3.88,57.77 1.07,1.23 2.12,2.48 3.14,3.76 6.17,7.75 11.34,16.41 15.26,25.82 2.67,6.41 4.77,13.18 6.21,20.24 0.09,0.43 0.17,0.86 0.25,1.29 2.36,12.3 2.55,24.53 0.83,36.28 0.18,0.17 0.36,0.33 0.54,0.5 9.83,8.22 23.18,12.04 36.71,9.28 0.63,-0.13 1.24,-0.27 1.86,-0.42 0.18,-3.57 -0.09,-7.23 -0.84,-10.89 -0.22,-1.07 -0.48,-2.13 -0.77,-3.17 -0.97,-3.42 -2.33,-6.65 -4.02,-9.63 -0.62,-1.1 -1.29,-2.16 -2,-3.19 -0.4,-0.55 -0.8,-1.09 -1.19,-1.65 -8.5,-11.99 -14.71,-25.9 -17.84,-41.23 -0.84,-4.12 -1.44,-8.23 -1.8,-12.32 0.02,-0.01 0.04,-0.02 0.06,-0.03 -1.47,-13.88 3.82,-27.2 13.48,-36.31 0.12,-0.11 0.24,-0.23 0.37,-0.34 13.17,-12.28 23.14,-27.69 28.95,-44.75 4.92,-14.44 6.85,-30.06 5.23,-45.99 -0.37,-3.61 -0.92,-7.23 -1.66,-10.86 -0.96,-4.72 -2.22,-9.3 -3.74,-13.74 3.87,7.16 6.99,14.86 9.22,23 7.58,-3.27 14.89,-7.07 21.89,-11.36 24.28,-14.86 44.76,-35.53 59.36,-60.27 -2.01,-0.85 -3.99,-1.77 -5.95,-2.74l-0 0c-11.02,-5.48 -21.07,-12.8 -29.69,-21.64 11.7,8.45 25.05,14.57 39.29,17.87 2.27,0.52 4.55,0.98 6.86,1.36 15.91,-3.57 30.25,-10.48 42.42,-19.82 7.14,3.12 13.92,7 20.23,11.55l0 0 0 0c-0.62,1.8 -1.29,3.59 -2.02,5.36 -2.02,4.96 -4.42,9.83 -7.23,14.56 -0.83,1.41 -1.7,2.8 -2.61,4.19 -0.24,0.36 -0.47,0.72 -0.71,1.08 -1.18,1.74 0.13,-0.19 -0.79,1.16 -6.83,9.9 -15.02,18.34 -24.16,25.22 0.01,0.24 0.02,0.49 0.03,0.73 1.2,12.76 7.99,24.87 19.54,32.43 0.53,0.35 1.07,0.69 1.62,1.01 2.64,-2.41 5.02,-5.2 7.07,-8.33 3.37,-5.16 5.51,-10.76 6.48,-16.46 0.07,-0.44 0.13,-0.88 0.21,-1.32 1.17,-7.24 3.08,-14.41 5.77,-21.41 2.74,-7.15 6.28,-14.12 10.64,-20.79 0.72,-1.1 1.46,-2.18 2.21,-3.25 0.98,-1.39 2,-2.76 3.03,-4.09 0.71,-0.91 1.42,-1.8 2.15,-2.68 1.81,-2.18 3.69,-4.28 5.64,-6.28 1.85,-1.91 3.75,-3.73 5.72,-5.48 -3.1,-3.37 -6.4,-6.53 -9.89,-9.47l-0 0c-7.44,-6.28 -15.69,-11.56 -24.53,-15.67 -4.34,-2.02 -8.83,-3.76 -13.43,-5.19l0.35 0.11c-27.16,-9.68 -49.96,-29.96 -62.41,-56.87 -3.48,-7.53 -6.15,-15.58 -7.89,-24.05 -1.58,-7.76 -2.3,-15.5 -2.22,-23.11 2.79,3.29 6.5,5.69 10.65,6.89 3.27,0.94 6.8,1.12 10.36,0.4 2.59,-0.53 4.98,-1.5 7.11,-2.81 0.08,-0.05 0.15,-0.09 0.23,-0.14 0.17,-0.11 0.33,-0.22 0.5,-0.33 1.62,-1.1 4.54,-2.39 7.34,-2.96 2.55,-0.52 5.09,-0.57 7.52,-0.22 6.75,0.99 12.71,5.12 15.99,11.14 -0.03,-0.07 7.39,15.23 23.98,11.84 11.8,-2.41 19.41,-13.93 17,-25.72 -0.44,-2.18 -1.2,-4.21 -2.21,-6.06 0.05,0.09 0.1,0.19 0.15,0.28 -9.41,-19.1 -24.09,-34.69 -41.82,-45.31 -1.39,-0.84 -2.81,-1.64 -4.24,-2.41 -1.06,-0.57 -2.13,-1.13 -3.21,-1.67 -0.02,-0.01 -0.03,-0.02 -0.05,-0.02 -1.75,-0.87 -3.52,-1.69 -5.32,-2.47 -2.79,-1.2 -5.64,-2.29 -8.53,-3.26 0,-0 0,-0 0,-0 -3.95,-1.33 -7.98,-2.43 -12.09,-3.3 -1.61,-0.34 -3.23,-0.65 -4.86,-0.91 -0.05,0.01 -0.1,0.02 -0.15,0.03l0 0c-55.89,12.63 -92.29,66.38 -83.71,122.66 -0.65,-4.26 -1.04,-8.5 -1.19,-12.71 0.74,23.43 -6.15,45.88 -18.75,64.47 -9.76,14.39 -22.94,26.47 -38.67,34.9l0 0c-9.12,4.89 -19.09,8.55 -29.75,10.73 -0.7,0.14 -1.41,0.28 -2.11,0.41l-0.01 0c-0.43,0.07 -0.85,0.15 -1.28,0.24 -0,0 -0.01,0 -0.01,0 -0.38,0.09 -0.77,0.17 -1.15,0.25 -22.94,5.32 -37.59,27.99 -32.85,51.19 1.81,8.88 6.21,16.57 12.24,22.46 0.62,0.55 1.24,1.1 1.85,1.66 1.37,1.52 2.7,3.09 3.98,4.69 1.55,1.93 3.03,3.92 4.45,5.96 8.19,11.79 14.17,25.4 17.23,40.36zm32.46 72.44l-0 -0.04 -0 -0.04 -0 -0.04 -0 -0.04 -0 -0.04 0 -0 -0 -0.04 0 -0 -0 -0.04 0 -0 -0 -0.04 0 -0 -0 -0.04 0 -0 -0 -0.04 0 -0 -0 -0.04 0 -0 -0 -0.04 0 -0 -0 -0.04 0 -0 -0 -0.04 0 -0 -0 -0.04 -0 -0.04 -0 -0.04 -0 -0.04 -0 -0.04 -0 -0.04 0 -0 -0 -0.04 0 -0 -0 -0.04 -0 -0.04 -0 -0.04 -0 -0.04 0 -0 -0 -0.04 0 -0 -0 -0.04 -0 -0.04 -0 -0.04 0 -0 -0 -0.04 -0 -0.04 -0 -0.04 0 -0 -0 -0.04 -0 -0.04 -0 -0.04 -0 -0.04 -0 -0.04 0 -0 -0 -0.04 -0 -0.04 0 -0 -0 -0.04 -0 -0.04 0 -0 -0 -0.04 -0 -0.04 0 -0 -0 -0.04 -0 -0.04 -0 -0.04 -0 -0.04 -0 -0.04 0 -0 -0 -0.04 -0 -0.04 -0 -0.04 -0 -0.04 -0 -0.04 -0 -0.04 -0 -0.04 -0 -0.04 -0 -0.04 -0 -0.04 -0 -0.04 -0 -0.04 -0 -0.04 -0 -0.04 -0 -0.04 -0 -0.04c0.06,0.95 0.13,1.91 0.22,2.86 -0,0 -0.01,0 -0.01,0zm53.57 -297.03c0.65,4.23 0.32,2.09 0,0zm37.37 66.86l0.09 -0.07 -0.09 0.07 -0 -0zm6.58 5.15l0 0 -0.1 -0.08 0.1 0.08z"/>
  <g style="clip-path:url(#id3)">
   <g id="_2451441409024">
    <path id="1" class="fil1" style="mask:url(#id4)" d="M348.78 77.88c47.59,-0.69 88.96,27.06 107.94,67.52 0.45,-2.82 0.39,-5.77 -0.26,-8.73 -0.51,-2.35 -1.36,-4.53 -2.49,-6.52 -11.25,-21.77 -28.92,-39.12 -50.04,-50.12 -1.15,-0.6 -2.31,-1.18 -3.48,-1.74 -4.9,-2.34 -9.86,-4.32 -15.04,-5.97 0,-0 0,-0 0,-0 -5.94,-1.9 -12.06,-3.33 -18.3,-4.27l-0.17 0.04 -1.63 0.4c-0.01,0 -0.02,0.01 -0.03,0.01 -9.07,2.33 -17.64,5.67 -25.6,9.87 3,-0.27 6.03,-0.43 9.08,-0.48z"/>
    <path class="fil1" style="mask:url(#id6)" d="M438.71 163.12c8.07,-1.65 14.31,-7.25 17.13,-14.37 -7.61,5.32 -16.86,8.43 -26.84,8.43 -4.43,0 -8.72,-0.61 -12.78,-1.76 5.37,6.24 13.86,9.47 22.5,7.7z"/>
    <path class="fil1" d="M290.16 214.65c-1.27,-6.22 -1.98,-12.42 -2.17,-18.55l-19.5 0c6.04,26.04 21.41,48.5 42.4,63.68 -9.99,-12.83 -17.26,-28.11 -20.73,-45.12z"/>
    <path class="fil1" style="mask:url(#id8)" d="M423.93 239.64c-43.37,-25.98 -70.48,-73.31 -69.91,-125.13 -8.54,16.78 -11.67,36.46 -7.61,56.35 7.86,38.5 40.23,65.74 77.52,68.78z"/>
    <path class="fil1" style="mask:url(#id10)" d="M113.5 357.35c-60.18,1.87 -107.44,52.17 -105.57,112.34 1.87,60.18 52.17,107.44 112.34,105.57 60.18,-1.87 107.44,-52.17 105.57,-112.34 -1.87,-60.18 -52.17,-107.44 -112.34,-105.57z"/>
    <path class="fil1" style="mask:url(#id12)" d="M264.8 573.79c0.4,-8.23 -1.56,-16.52 -5.62,-23.69l-3.19 -4.84c-1.57,-2.21 -3.06,-4.49 -4.46,-6.81 -7.16,5.22 -15.49,9.06 -24.7,11.05 -0.03,4.97 -0.41,9.96 -1.13,14.93 0.18,0.17 0.36,0.33 0.54,0.5 9.83,8.22 23.18,12.04 36.71,9.28 0.63,-0.13 1.24,-0.27 1.86,-0.42z"/>
    <path class="fil1" style="mask:url(#id14)" d="M405.18 329.93c1.2,12.76 7.99,24.87 19.54,32.43 0.53,0.35 1.07,0.69 1.62,1.01 7.02,-6.42 12.07,-15.52 13.55,-24.79 0.32,-2.03 0.67,-3.97 1.06,-5.86 -8.64,-3.24 -16.52,-8.29 -23.08,-14.76 -3.94,4.08 -8.2,7.84 -12.72,11.25 0.01,0.24 0.02,0.49 0.03,0.73z"/>
    <path class="fil1" style="mask:url(#id16)" d="M279.02 339.69c3.87,7.16 6.99,14.86 9.22,23 23.08,-9.97 43.73,-24.83 60.5,-43.4 -12.15,8.76 -26.3,15.15 -41.93,18.34 -9.36,1.91 -18.68,2.56 -27.79,2.07z"/>
    <path class="fil1" style="mask:url(#id18)" d="M164.59 324.65c5.42,-11.97 16.17,-21.34 29.87,-24.52l2.44 -0.49c11.03,-1.92 22.46,-6.09 31.87,-11.14 15.73,-8.43 28.91,-20.51 38.67,-34.9 5.98,-8.82 10.67,-18.5 13.87,-28.75 -2.97,7.6 -6.79,14.84 -11.35,21.56 -9.76,14.39 -22.94,26.47 -38.67,34.9 -9.41,5.04 -20.85,9.22 -31.87,11.14l-2.44 0.49c-16.34,3.79 -28.47,16.38 -32.39,31.7z"/>
   </g>
  </g>
  <path class="fil2" d="M203.88 419.27c4.08,19.99 2.41,39.82 -3.88,57.77 1.07,1.23 2.12,2.48 3.14,3.76 6.17,7.75 11.34,16.41 15.26,25.82 2.67,6.41 4.77,13.18 6.21,20.24 0.09,0.43 0.17,0.86 0.25,1.29 2.36,12.3 2.55,24.53 0.83,36.28 0.18,0.17 0.36,0.33 0.54,0.5 9.83,8.22 23.18,12.04 36.71,9.28 0.63,-0.13 1.24,-0.27 1.86,-0.42 0.18,-3.57 -0.09,-7.23 -0.84,-10.89 -0.22,-1.07 -0.48,-2.13 -0.77,-3.17 -0.97,-3.42 -2.33,-6.65 -4.02,-9.63 -0.62,-1.1 -1.29,-2.16 -2,-3.19 -0.4,-0.55 -0.8,-1.09 -1.19,-1.65 -8.5,-11.99 -14.71,-25.9 -17.84,-41.23 -0.84,-4.12 -1.44,-8.23 -1.8,-12.32 0.02,-0.01 0.04,-0.02 0.06,-0.03 -1.47,-13.88 3.82,-27.2 13.48,-36.31 0.12,-0.11 0.24,-0.23 0.37,-0.34 13.17,-12.28 23.14,-27.69 28.95,-44.75 4.92,-14.44 6.85,-30.06 5.23,-45.99 -0.37,-3.61 -0.92,-7.23 -1.66,-10.86 -0.96,-4.72 -2.22,-9.3 -3.74,-13.74 3.87,7.16 6.99,14.86 9.22,23 7.58,-3.27 14.89,-7.07 21.89,-11.36 24.28,-14.86 44.76,-35.53 59.36,-60.27 -2.01,-0.85 -3.99,-1.77 -5.95,-2.74l-0 0c-11.02,-5.48 -21.07,-12.8 -29.69,-21.64 11.7,8.45 25.05,14.57 39.29,17.87 2.27,0.52 4.55,0.98 6.86,1.36 15.91,-3.57 30.25,-10.48 42.42,-19.82 7.14,3.12 13.92,7 20.23,11.55l0 0 0 0c-0.62,1.8 -1.29,3.59 -2.02,5.36 -2.02,4.96 -4.42,9.83 -7.23,14.56 -0.83,1.41 -1.7,2.8 -2.61,4.19 -0.24,0.36 -0.47,0.72 -0.71,1.08 -1.18,1.74 0.13,-0.19 -0.79,1.16 -6.83,9.9 -15.02,18.34 -24.16,25.22 0.01,0.24 0.02,0.49 0.03,0.73 1.2,12.76 7.99,24.87 19.54,32.43 0.53,0.35 1.07,0.69 1.62,1.01 2.64,-2.41 5.02,-5.2 7.07,-8.33 3.37,-5.16 5.51,-10.76 6.48,-16.46 0.07,-0.44 0.13,-0.88 0.21,-1.32 1.17,-7.24 3.08,-14.41 5.77,-21.41 2.74,-7.15 6.28,-14.12 10.64,-20.79 0.72,-1.1 1.46,-2.18 2.21,-3.25 0.98,-1.39 2,-2.76 3.03,-4.09 0.71,-0.91 1.42,-1.8 2.15,-2.68 1.81,-2.18 3.69,-4.28 5.64,-6.28 1.85,-1.91 3.75,-3.73 5.72,-5.48 -3.1,-3.37 -6.4,-6.53 -9.89,-9.47l-0 0c-7.44,-6.28 -15.69,-11.56 -24.53,-15.67 -4.34,-2.02 -8.83,-3.76 -13.43,-5.19l0.35 0.11c-27.16,-9.68 -49.96,-29.96 -62.41,-56.87 -3.48,-7.53 -6.15,-15.58 -7.89,-24.05 -1.58,-7.76 -2.3,-15.5 -2.22,-23.11 2.79,3.29 6.5,5.69 10.65,6.89 3.27,0.94 6.8,1.12 10.36,0.4 2.59,-0.53 4.98,-1.5 7.11,-2.81 0.08,-0.05 0.15,-0.09 0.23,-0.14 0.17,-0.11 0.33,-0.22 0.5,-0.33 1.62,-1.1 4.54,-2.39 7.34,-2.96 2.55,-0.52 5.09,-0.57 7.52,-0.22 6.75,0.99 12.71,5.12 15.99,11.14 -0.03,-0.07 7.39,15.23 23.98,11.84 11.8,-2.41 19.41,-13.93 17,-25.72 -0.44,-2.18 -1.2,-4.21 -2.21,-6.06 0.05,0.09 0.1,0.19 0.15,0.28 -9.41,-19.1 -24.09,-34.69 -41.82,-45.31 -1.39,-0.84 -2.81,-1.64 -4.24,-2.41 -1.06,-0.57 -2.13,-1.13 -3.21,-1.67 -0.02,-0.01 -0.03,-0.02 -0.05,-0.02 -1.75,-0.87 -3.52,-1.69 -5.32,-2.47 -2.79,-1.2 -5.64,-2.29 -8.53,-3.26 0,-0 0,-0 0,-0 -3.95,-1.33 -7.98,-2.43 -12.09,-3.3 -1.61,-0.34 -3.23,-0.65 -4.86,-0.91 -0.05,0.01 -0.1,0.02 -0.15,0.03l0 0c-55.89,12.63 -92.29,66.38 -83.71,122.66 -0.65,-4.26 -1.04,-8.5 -1.19,-12.71 0.74,23.43 -6.15,45.88 -18.75,64.47 -9.76,14.39 -22.94,26.47 -38.67,34.9l0 0c-9.12,4.89 -19.09,8.55 -29.75,10.73 -0.7,0.14 -1.41,0.28 -2.11,0.41l-0.01 0c-0.43,0.07 -0.85,0.15 -1.28,0.24 -0,0 -0.01,0 -0.01,0 -0.38,0.09 -0.77,0.17 -1.15,0.25 -22.94,5.32 -37.59,27.99 -32.85,51.19 1.81,8.88 6.21,16.57 12.24,22.46 0.62,0.55 1.24,1.1 1.85,1.66 1.37,1.52 2.7,3.09 3.98,4.69 1.55,1.93 3.03,3.92 4.45,5.96 8.19,11.79 14.17,25.4 17.23,40.36zm32.46 72.44l-0 -0.04 -0 -0.04 -0 -0.04 -0 -0.04 -0 -0.04 0 -0 -0 -0.04 0 -0 -0 -0.04 0 -0 -0 -0.04 0 -0 -0 -0.04 0 -0 -0 -0.04 0 -0 -0 -0.04 0 -0 -0 -0.04 0 -0 -0 -0.04 0 -0 -0 -0.04 0 -0 -0 -0.04 -0 -0.04 -0 -0.04 -0 -0.04 -0 -0.04 -0 -0.04 0 -0 -0 -0.04 0 -0 -0 -0.04 -0 -0.04 -0 -0.04 -0 -0.04 0 -0 -0 -0.04 0 -0 -0 -0.04 -0 -0.04 -0 -0.04 0 -0 -0 -0.04 -0 -0.04 -0 -0.04 0 -0 -0 -0.04 -0 -0.04 -0 -0.04 -0 -0.04 -0 -0.04 0 -0 -0 -0.04 -0 -0.04 0 -0 -0 -0.04 -0 -0.04 0 -0 -0 -0.04 -0 -0.04 0 -0 -0 -0.04 -0 -0.04 -0 -0.04 -0 -0.04 -0 -0.04 0 -0 -0 -0.04 -0 -0.04 -0 -0.04 -0 -0.04 -0 -0.04 -0 -0.04 -0 -0.04 -0 -0.04 -0 -0.04 -0 -0.04 -0 -0.04 -0 -0.04 -0 -0.04 -0 -0.04 -0 -0.04 -0 -0.04c0.06,0.95 0.13,1.91 0.22,2.86 -0,0 -0.01,0 -0.01,0zm53.57 -297.03c0.65,4.23 0.32,2.09 0,0zm37.37 66.86l0.09 -0.07 -0.09 0.07 -0 -0zm6.58 5.15l0 0 -0.1 -0.08 0.1 0.08z"/>
  <path class="fil3" d="M290.88 200.12c-11.14,-54.55 20.57,-107.9 72.05,-125.14 -0.16,-0.55 -0.3,-1.11 -0.41,-1.68 -2.32,-11.39 4.69,-22.51 15.79,-25.44 -0.97,-0.03 -1.94,-0.04 -2.91,-0.04 -60.2,0 -109.01,48.81 -109.01,109.01 0,36.38 17.83,68.61 45.22,88.41 -9.99,-12.83 -17.26,-28.11 -20.73,-45.12z"/>
  <path class="fil0" d="M267.16 162.66c0,-57.47 44.47,-104.53 100.87,-108.7 2.71,-2.87 6.22,-5.03 10.27,-6.1 -0.97,-0.03 -1.94,-0.04 -2.91,-0.04 -60.2,0 -109.01,48.81 -109.01,109.01 0,5.94 0.47,11.76 1.39,17.45 -0.4,-3.82 -0.61,-7.7 -0.61,-11.62z"/>
  <path class="fil4" d="M52.65 739.24l-14.52 0 0 -4.44c-0.94,0.94 -2.03,1.77 -3.28,2.47 -1.24,0.71 -2.56,1.31 -3.93,1.82 -1.38,0.5 -2.79,0.89 -4.24,1.16 -1.45,0.27 -2.81,0.4 -4.08,0.4 -2.96,0 -5.8,-0.47 -8.52,-1.41 -2.72,-0.94 -5.13,-2.39 -7.21,-4.34 -2.08,-1.95 -3.75,-4.47 -4.99,-7.56 -1.24,-3.09 -1.87,-6.76 -1.87,-10.99l0 -35.4 14.52 0 0 34.7c0,2.08 0.32,3.92 0.96,5.5 0.64,1.58 1.48,2.89 2.52,3.93 1.04,1.04 2.25,1.82 3.63,2.32 1.38,0.5 2.81,0.76 4.29,0.76 4.71,0 8.77,-1.61 12.2,-4.84l0 -42.36 14.52 0 0 58.3zm61.41 0l-14.52 0 0 -34.8c0,-2.08 -0.32,-3.92 -0.96,-5.5 -0.64,-1.58 -1.51,-2.89 -2.59,-3.93 -1.08,-1.04 -2.3,-1.82 -3.7,-2.32 -1.38,-0.5 -2.82,-0.76 -4.3,-0.76 -2.22,0 -4.42,0.39 -6.59,1.16 -2.15,0.77 -4.12,2 -5.87,3.68l0 42.46 -14.52 0 0 -58.3 14.52 0 0.1 4.34c0.87,-0.87 1.95,-1.68 3.23,-2.42 1.28,-0.74 2.61,-1.36 3.98,-1.87 1.38,-0.5 2.79,-0.89 4.24,-1.16 1.45,-0.27 2.84,-0.4 4.19,-0.4 2.96,0 5.8,0.47 8.52,1.41 2.72,0.94 5.14,2.39 7.26,4.34 2.12,1.95 3.82,4.47 5.09,7.56 1.28,3.09 1.92,6.76 1.92,10.99l0 35.5zm22.48 -68.48l-15.13 0 0 -15.13 15.13 0 0 15.13zm-0.2 68.48l-14.73 0 0 -58.4 14.73 0 0 58.4zm62.12 -8.77c-2.96,3.36 -6.52,5.92 -10.69,7.67 -4.17,1.75 -8.54,2.62 -13.11,2.62 -4.24,0 -8.24,-0.77 -12,-2.32 -3.77,-1.55 -7.03,-3.68 -9.8,-6.4 -2.77,-2.72 -4.96,-5.97 -6.56,-9.73 -1.6,-3.77 -2.4,-7.83 -2.4,-12.2 0,-4.3 0.81,-8.32 2.4,-12.05 1.6,-3.73 3.77,-6.98 6.51,-9.73 2.74,-2.76 6,-4.93 9.75,-6.51 3.77,-1.58 7.8,-2.37 12.1,-2.37 4.44,0 8.66,0.81 12.66,2.42 4,1.61 7.48,4.07 10.44,7.36l-9.78 9.98c-1.48,-1.95 -3.28,-3.56 -5.4,-4.84 -2.12,-1.28 -4.69,-1.92 -7.72,-1.92 -2.22,0 -4.32,0.47 -6.3,1.41 -1.98,0.94 -3.73,2.2 -5.24,3.78 -1.51,1.58 -2.71,3.45 -3.58,5.6 -0.87,2.15 -1.31,4.44 -1.31,6.86 0,2.42 0.44,4.71 1.31,6.86 0.87,2.15 2.05,4.02 3.53,5.6 1.48,1.58 3.23,2.84 5.24,3.78 2.02,0.94 4.14,1.41 6.35,1.41 2.89,0 5.51,-0.69 7.87,-2.07 2.35,-1.38 4.24,-3.14 5.65,-5.3l10.09 10.09zm63.63 -20.37c0,4.37 -0.81,8.42 -2.42,12.15 -1.61,3.73 -3.83,6.96 -6.66,9.68 -2.82,2.72 -6.14,4.88 -9.93,6.46 -3.8,1.58 -7.85,2.37 -12.15,2.37 -4.3,0 -8.34,-0.79 -12.1,-2.37 -3.77,-1.58 -7.06,-3.75 -9.88,-6.51 -2.82,-2.76 -5.04,-6 -6.66,-9.73 -1.61,-3.73 -2.42,-7.75 -2.42,-12.05 0,-4.24 0.82,-8.22 2.47,-11.95 1.65,-3.73 3.88,-6.99 6.71,-9.78 2.82,-2.79 6.12,-4.98 9.88,-6.56 3.77,-1.58 7.77,-2.37 12,-2.37 4.3,0 8.35,0.79 12.15,2.37 3.8,1.58 7.11,3.73 9.93,6.45 2.82,2.72 5.04,5.97 6.66,9.73 1.61,3.77 2.42,7.8 2.42,12.1zm-14.52 0c0,-2.49 -0.44,-4.81 -1.31,-6.96 -0.87,-2.15 -2.05,-4.03 -3.56,-5.65 -1.51,-1.61 -3.28,-2.87 -5.28,-3.78 -2.02,-0.91 -4.15,-1.36 -6.44,-1.36 -2.29,0 -4.42,0.45 -6.44,1.36 -2,0.91 -3.77,2.17 -5.28,3.78 -1.51,1.61 -2.69,3.5 -3.56,5.65 -0.87,2.15 -1.31,4.47 -1.31,6.96 0,2.49 0.44,4.81 1.31,6.96 0.87,2.15 2.05,4.03 3.56,5.65 1.51,1.61 3.28,2.87 5.28,3.78 2.02,0.91 4.15,1.36 6.44,1.36 2.29,0 4.42,-0.45 6.44,-1.36 2,-0.91 3.77,-2.17 5.28,-3.78 1.51,-1.61 2.69,-3.5 3.56,-5.65 0.87,-2.15 1.31,-4.47 1.31,-6.96zm78.75 29.15l-14.83 0 0 -3.03c-1.88,1.55 -3.93,2.67 -6.15,3.38 -2.22,0.71 -4.57,1.06 -7.06,1.06 -4.1,0 -7.87,-0.82 -11.3,-2.47 -3.43,-1.65 -6.39,-3.87 -8.88,-6.66 -2.49,-2.79 -4.42,-6.04 -5.8,-9.73 -1.38,-3.7 -2.07,-7.6 -2.07,-11.7 0,-4.37 0.79,-8.42 2.37,-12.15 1.58,-3.73 3.68,-6.98 6.3,-9.73 2.62,-2.76 5.61,-4.93 8.98,-6.51 3.36,-1.58 6.82,-2.37 10.39,-2.37 2.49,0 4.91,0.34 7.26,1.01 2.35,0.67 4.37,1.61 6.05,2.82l0 -27.64 14.73 0 0 83.71zm-14.62 -15.63l0 -28.04c-0.67,-0.47 -1.45,-0.92 -2.34,-1.36 -0.87,-0.44 -1.78,-0.81 -2.72,-1.11 -0.94,-0.3 -1.9,-0.54 -2.84,-0.71 -0.94,-0.17 -1.78,-0.25 -2.52,-0.25 -2.44,0 -4.64,0.42 -6.64,1.26 -1.98,0.84 -3.73,2.05 -5.21,3.63 -1.48,1.58 -2.64,3.48 -3.45,5.7 -0.81,2.22 -1.21,4.67 -1.21,7.36 0,2.62 0.4,5.03 1.21,7.21 0.81,2.19 1.93,4.07 3.35,5.65 1.41,1.58 3.13,2.81 5.11,3.68 2,0.87 4.17,1.31 6.54,1.31 3.83,0 7.41,-1.45 10.72,-4.34zm187.37 15.63l-14.52 0 0 -34.8c0,-2.08 -0.32,-3.92 -0.96,-5.5 -0.64,-1.58 -1.51,-2.89 -2.59,-3.93 -1.08,-1.04 -2.3,-1.82 -3.7,-2.32 -1.38,-0.5 -2.82,-0.76 -4.3,-0.76 -2.22,0 -4.42,0.39 -6.59,1.16 -2.15,0.77 -4.12,2 -5.87,3.68l0 42.46 -14.52 0 0 -58.3 14.52 0 0.1 4.34c0.87,-0.87 1.95,-1.68 3.23,-2.42 1.28,-0.74 2.61,-1.36 3.98,-1.87 1.38,-0.5 2.79,-0.89 4.24,-1.16 1.44,-0.27 2.84,-0.4 4.19,-0.4 2.96,0 5.8,0.47 8.52,1.41 2.72,0.94 5.14,2.39 7.26,4.34 2.12,1.95 3.82,4.47 5.09,7.56 1.28,3.09 1.92,6.76 1.92,10.99l0 35.5zm52.54 -16.34c0,2.89 -0.67,5.46 -2.02,7.72 -1.34,2.25 -3.11,4.14 -5.26,5.65 -2.15,1.51 -4.59,2.66 -7.28,3.43 -2.69,0.77 -5.36,1.16 -7.98,1.16 -4.45,0 -8.54,-0.82 -12.29,-2.47 -3.73,-1.65 -7.03,-4.29 -9.85,-7.92l8.77 -8.88c1.75,2.22 3.77,3.95 6.05,5.19 2.29,1.24 4.74,1.87 7.36,1.87 2.29,0 4.19,-0.42 5.7,-1.26 1.51,-0.84 2.27,-2.1 2.27,-3.78 0,-1.75 -1.08,-3.21 -3.23,-4.39 -2.15,-1.18 -5.18,-2.34 -9.08,-3.48 -2.29,-0.67 -4.51,-1.53 -6.66,-2.57 -2.15,-1.04 -4.07,-2.32 -5.75,-3.83 -1.68,-1.51 -3.03,-3.24 -4.03,-5.19 -1.01,-1.95 -1.51,-4.2 -1.51,-6.76 0,-2.82 0.66,-5.36 1.97,-7.61 1.31,-2.25 3.04,-4.14 5.16,-5.65 2.12,-1.51 4.54,-2.67 7.23,-3.48 2.69,-0.81 5.43,-1.21 8.19,-1.21 8.89,0 16.17,3.36 21.84,10.09l-8.67 8.77c-1.68,-2.08 -3.6,-3.73 -5.75,-4.94 -2.15,-1.21 -4.5,-1.82 -7.06,-1.82 -0.87,0 -1.8,0.12 -2.77,0.35 -0.97,0.23 -1.88,0.57 -2.72,1.01 -0.84,0.44 -1.53,1.01 -2.07,1.71 -0.54,0.71 -0.81,1.5 -0.81,2.37 0,1.55 1.03,2.89 3.08,4.03 2.05,1.14 4.99,2.29 8.83,3.43 2.49,0.74 4.84,1.68 7.06,2.82 2.22,1.14 4.17,2.47 5.85,3.98 1.68,1.51 3.01,3.23 3.98,5.14 0.97,1.92 1.46,4.08 1.46,6.51zm-185.08 17.71c11.05,0 19.25,-4.33 24.95,-11.39l-9.91 -8.77c-4.79,4.44 -9,6.27 -14.81,6.27 -7.75,0 -13.22,-4.1 -14.92,-11.96l42.5 0c0.11,-1.6 0.23,-3.19 0.23,-4.56 0,-17.32 -9.34,-33.15 -29.74,-33.15 -17.77,0 -30.19,14.36 -30.19,31.79l0 0.23c0,18.68 13.56,31.56 31.9,31.56zm-14.92 -36.69c1.37,-7.86 6.04,-12.99 13.22,-12.99 7.29,0 11.85,5.24 12.87,12.99l-26.09 0zm51.78 35.32l16.45 0 0 -21.43c0,-13.85 6.71,-20.46 17.64,-20.46l0.87 0 0 -17.21c-9.74,-0.43 -15.15,4.76 -18.51,12.77l0 -11.69 -16.45 0 0 58.01z"/>
 </g>
</svg>
