<?xml version="1.0" encoding="UTF-8"?>
<!DOCTYPE svg PUBLIC "-//W3C//DTD SVG 1.1//EN" "http://www.w3.org/Graphics/SVG/1.1/DTD/svg11.dtd">
<!-- Creator: CorelDRAW 2018 (64-Bit) -->
<svg xmlns="http://www.w3.org/2000/svg" xml:space="preserve" width="95.0694in" height="109.661in" version="1.1" style="shape-rendering:geometricPrecision; text-rendering:geometricPrecision; image-rendering:optimizeQuality; fill-rule:evenodd; clip-rule:evenodd"
viewBox="0 0 16066867.26 18532904.46"
 xmlns:xlink="http://www.w3.org/1999/xlink">
 <defs>
  <style type="text/css">
   <![CDATA[
    .fil2 {fill:none}
    .fil10 {fill:#008BC0}
    .fil1 {fill:#00E0F9}
    .fil13 {fill:#01B7E6}
    .fil12 {fill:#999999}
    .fil11 {fill:#CCCCCC}
    .fil3 {fill:white}
    .fil15 {fill:white;fill-rule:nonzero}
    .fil6 {fill:url(#id20)}
    .fil8 {fill:url(#id21)}
    .fil14 {fill:url(#id22)}
    .fil4 {fill:url(#id23)}
    .fil7 {fill:url(#id24)}
    .fil5 {fill:url(#id25)}
    .fil9 {fill:url(#id26)}
    .fil0 {fill:url(#id27)}
   ]]>
  </style>
    <clipPath id="id0">
     <path d="M2697343.09 12960591.68c534561.19,-4291.57 1018693.38,-268220.75 1318617.88,-681545.95 37874.97,-52181.55 72800.41,-106741.11 104527.45,-163461.08 -21987.5,61766.74 -47484.78,121731.68 -76228.34,179644.64 -104970.58,211507.42 -253331.31,395967.95 -432349.85,542882.85 257555.02,-99081.48 497533.88,-236206.93 712440.63,-405154.58 59090.66,-46451.47 116290.36,-95309.55 171426.78,-146450.48 40748.67,-37807.11 80380.19,-76833.82 118832.04,-117064.84 0,-15.3 0,-15.3 0,-15.3 195676.5,-204764.66 360648.62,-440428.66 486562.09,-700071.58 138747.6,-286114.95 230065.66,-601346.07 262812.7,-936531.35 2423.91,-24766.71 4506.49,-49486.84 6261.71,-74161.07 24881.82,-350258.35 -16952.05,-690618.14 -114943,-1008168.7 -36566.21,-25299 -71618.73,-52808.32 -104955.28,-82388.92 -135192.58,-119995.09 -241887.11,-274036.66 -305485.59,-452386.52 -17718.55,-49727.71 -32104.3,-101335.05 -42815.28,-154633.75 -14291.94,-71059.82 -21413.96,-141899.41 -21865.74,-211770.91 -1139.1,-171207.87 37757.87,-336577.21 109306.74,-485050.39 -111812.48,76741.34 -217252.14,161344.57 -315647.64,252860.24 -96602.34,89850.93 -186439.3,186380.09 -268918.71,288651.3 -79967.67,99189.27 -153011.6,203792.57 -218585.53,313000.83 -179107.03,298324.31 -302460.86,630979.22 -358931.33,981191.67 -6190.51,38359.36 -11572.61,76939.61 -16146.3,115708.83 -12943.26,109961.45 -19327.39,221435.93 -18791.77,333925.09 830.37,176339.8 18623.44,355170.04 54690.63,534559.85 1429.19,7085.42 2874.36,14170.85 4350.13,21225.66 18610.13,60556.45 33825.59,122492.85 45430.81,185559.03 1248.88,4386.72 2482.46,8788.75 3747.31,13159.5 -466.42,-1.33 -917.53,-17.96 -1384.61,-34.6 25450.7,144841.64 31896.71,295502.52 16902.82,449027.78 -9076.18,92873.67 -25642.32,183201 -49044.38,270439.06 -21408.64,79754.75 -48534.71,156921.92 -80879.88,231096.96 -187327.56,429808.18 -549710.78,758758.36 -988936.46,905956.71z"/>
    </clipPath>
      <mask id="id1">
  <linearGradient id="id2" gradientUnits="userSpaceOnUse" x1="3771907.51" y1="12213415.13" x2="4136519.59" y2="8689739.92">
   <stop offset="0" style="stop-opacity:1; stop-color:white"/>
   <stop offset="1" style="stop-opacity:0; stop-color:white"/>
  </linearGradient>
       <rect style="fill:url(#id2)" x="2696762.23" y="8063686.9" width="2193315.95" height="4897508.93"/>
      </mask>
    <clipPath id="id3">
     <path d="M5920702.13 10588983.76c103168.12,505315.27 60881.14,1006551.21 -98161.28,1460278.43 27117.43,31063.68 53575.48,62773.43 79342.9,95112.6 155995.07,195811.57 286614.63,414705.16 385784.61,652683.95 67564.69,162121.05 120532.03,333106.03 156988.46,511671.46 2210.33,10836.72 4361.44,21680.77 6438.03,32517.49 59672.85,310921.58 64464.11,619950.88 21072.63,916949.13 4532.43,4169.15 9049.57,8359.59 13559.38,12558.01 248510.78,207686.26 585837.85,304430.32 927829.76,234603.41 15798.98,-3226.33 31449.59,-6772.04 46944.5,-10636.45 4435.29,-90321.34 -2254.91,-182660.06 -21176.43,-275339.44 -5541.12,-27132.73 -12031.05,-53821 -19433.85,-80048.18 -24425.38,-86538.77 -58767.29,-168003.5 -101514.04,-243400.81 -15731.78,-27748.86 -32606.65,-54681.31 -50541.44,-80738.16 -10169.37,-13781.61 -20219.64,-27674.33 -30151.47,-41670.86 -214933.36,-303021.09 -371736.19,-654700.65 -450827.58,-1042094.77 -21257.6,-104132.23 -36344.65,-208094.12 -45505.33,-311499.78 511.66,-229.55 1023.99,-459.76 1528.33,-681.99 -37272.16,-350900.43 96625.63,-687619.36 340634.58,-917787.48 3070.64,-2885 6163.9,-5748.05 9264.48,-8603.78 332823.91,-310468.47 584858.44,-699791.46 731714.79,-1131066.09 124262.71,-364934.21 173217.26,-759916.09 132088.01,-1162574.9 -9315.71,-91174.33 -23245.7,-182734.58 -41966.94,-274435.21 -24380.8,-119182.01 -56075.24,-235071.16 -94549.04,-347184.39 97916.43,181027.93 176673.81,375496.14 233060.44,581268.82 191553.26,-82755.53 376409.01,-178788.33 553290.41,-287044.46 613638.6,-375548.7 1131377.48,-898153.36 1500487.49,-1523459.06 -50838.86,-21592.28 -100972.43,-44674.96 -150342.17,-69226.76l-7.98 0c-278565.77,-138504.08 -532670.23,-323433.68 -750428.71,-546911.6 295781.97,213501.51 633249.43,368294.28 993117.59,451621.35 57262.25,13254.64 115087.39,24706.83 173402.9,34297.33 402199.05,-90284.08 764574.28,-264799.46 1072282.83,-501057.63 180516.27,78935.7 351961.68,176919.33 511300.85,291932.86l7.98 0 0 7.32c-15725.13,45446.11 -32703.13,90647.37 -50942.65,135552.54 -50949.97,125412.45 -111764.58,248451.56 -182645.42,368108.64 -21087.27,35596.12 -43072.11,70887.5 -65947.2,105860.83 -5963.63,9115.44 -11971.83,18186.96 -18024.61,27206.59 -29884.66,43933.08 3234.32,-4754.67 -19930.21,29298.48 -172594.49,250358.48 -379717.18,463547.94 -610737.63,637351.38 281.45,6156.58 548.26,12313.16 793.11,18469.74 30374.37,322439.63 201915.59,628583.93 494011.46,819670.11 13492.18,8826.67 27110.11,17319.33 40832.5,25478.65 66719.01,-61037.5 126955.42,-131339.48 178743.08,-210497.41 85277.91,-130360.07 139186.74,-271979.37 163856.97,-416069.15 1661.4,-11118.84 3390.01,-22229.69 5185.15,-33341.21 29587.25,-182904.91 77970.92,-364281.49 145735.88,-541274.67 69211.45,-180775.76 158642.54,-356967.85 268938.67,-525556.86 18202.26,-27830.03 36827.03,-55214.93 55853.01,-82170.01 24885.14,-35239.48 50452.28,-69723.12 76680.12,-103449.57 17824.34,-22912.35 35952.08,-45476.05 54376.58,-67691.1 45720.9,-55125.77 93258.91,-108078.48 142465.64,-158835.5 46706.97,-48160.78 94912.33,-94340.78 144504.97,-138511.4 -78364.82,-85158.81 -161861.56,-165117.83 -249868.78,-239469.86l-7.32 0c-188007.56,-158842.82 -396635.97,-292139.79 -619994.79,-395983.25 -109791.78,-51053.77 -223143.91,-94971.55 -339359.08,-131309.54l8923.15 2796.51c-686520.85,-244735.52 -1262805.45,-757238.68 -1577457.04,-1437447.25 -88014.54,-190277.77 -155556.6,-393684.43 -199319.35,-608016.31 -40054.03,-196188.83 -58181.77,-391762.87 -56067.92,-584176.44 70427.73,83156.08 164354,143941.41 269220.78,174055.62 82569.89,23713.44 171926.46,28408.89 261929.1,10035.63 65539.99,-13381.06 125961.37,-37880.3 179715.17,-71132.35 1913.58,-1187 3812.52,-2380.66 5711.45,-3582.3 4197.76,-2833.77 8440.76,-5614.98 12728.34,-8344.95 41047.41,-27733.55 114768.68,-60288.31 185425.96,-74714.65 64449.47,-13158.83 128565.59,-14486.23 190099.45,-5474.59 170562.48,24989.61 321268.6,129440.54 404149.88,281645.06 -815.73,-1676.71 186717.43,384975.53 606161.28,299349.63 298200.56,-60881.81 490584.19,-351975.65 429702.38,-650176.2 -11229.95,-54992.04 -30299.85,-106365.18 -55785.81,-153235.16 1290.8,2380.66 2581.6,4754.67 3842.46,7150.63 -237748.57,-482751.57 -608928.52,-876940.34 -1056944.28,-1145159.09 -35254.79,-21109.89 -70976.65,-41433.99 -107150.97,-60956.33 -26821.34,-14478.24 -53894.86,-28519.34 -81197.92,-42108 -422.5,-215.58 -845.67,-423.17 -1268.18,-630.76 -44199.89,-21984.84 -89023.22,-42790.66 -134410.12,-62402.16 -70554.15,-30433.58 -142480.27,-57974.18 -215600.05,-82496.04 21.96,-37.26 36.59,-66.54 59.22,-103.8 -99756.15,-33511.54 -201737.27,-61400.79 -305476.94,-83370.99 -40721.39,-8626.4 -81709.58,-16333.27 -122942.63,-23119.94 -1305.44,296.75 -2603.56,586.18 -3908.99,882.93l0 7.32c-1412568.76,319213.3 -2332722.26,1677777.42 -2115846.05,3100360.53 -16399.8,-107566.82 -26301.7,-214769.69 -29981.14,-321186.76 18588.17,592194.7 -155438.17,1159623.36 -474006.07,1629527.48 -246605.18,363755.19 -579815.01,669068.45 -977340.56,882184.05l0 7.32c-230502.13,123573.39 -482625.81,216156.96 -752024.25,271156.98 -17816.36,3634.2 -35632.71,7098.06 -53441.75,10376.3l-171 29.94c-10762.2,1869 -21547.03,3901.67 -32324.54,6097.36 -96.48,21.96 -200.27,44.58 -304.07,66.54 -9672.34,2158.43 -19366.64,4272.28 -29083.57,6334.23 -579748.47,134462.02 -950074.76,707356.61 -830306.56,1293988.9 45824.7,224434.04 156847.4,418902.92 309296.77,567680.16 15746.42,13803.57 31345.13,27770.15 46795.46,41930.35 34602.07,38488.44 68166.17,78008.18 100646.41,118529.3 39097.24,48768.92 76606.27,98977.02 112447.24,150572.39 207040.86,298022.24 358258.65,642098.73 435451.1,1020191.1zm820448.58 1831035.21l-118.43 -1134.44 -119.1 -1135.1 -118.43 -1135.1 -111.12 -1134.44 -119.1 -1135.1 0 -7.32 -111.12 -1127.79 0 -7.32 -111.12 -1127.12 0 -7.32 -111.12 -1127.79 0 -7.32 -111.12 -1127.12 0 -7.98 -111.78 -1127.12 0 -7.32 -103.8 -1127.79 0 -7.32 -103.8 -1127.12 0 -7.32 -111.12 -1127.79 0 -7.32 -103.8 -1127.79 0 -7.32 -96.48 -1127.12 -103.8 -1135.1 -103.8 -1134.44 -96.48 -1135.1 -96.48 -1135.1 -96.48 -1127.12 0 -7.32 -96.48 -1127.79 0 -7.32 -96.48 -1127.12 -88.49 -1135.1 -96.48 -1135.1 -89.16 -1127.12 0 -7.32 -89.16 -1127.79 0 -7.32 -89.16 -1127.12 -89.16 -1135.1 -81.17 -1127.79 0 -7.32 -89.16 -1127.12 -81.84 -1135.1 -81.17 -1127.12 0 -7.32 -81.84 -1127.79 -81.17 -1134.44 -81.84 -1127.79 -74.52 -1135.1 -73.86 -1127.12 0 -7.32 -81.84 -1127.79 -73.86 -1127.12 0 -7.32 -66.54 -1127.79 -74.52 -1127.12 0 -7.32 -73.86 -1127.79 -67.2 -1127.12 0 -7.98 -66.54 -1127.12 -66.54 -1127.79 -67.2 -1134.44 -66.54 -1127.79 -59.22 -1127.12 0 -7.32 -67.2 -1127.79 -59.22 -1127.12 -59.22 -1135.1 -59.22 -1127.12 -59.22 -1127.79 -59.22 -1127.12 -52.56 -1135.1 -51.9 -1127.12 -51.9 -1127.79 -51.9 -1127.12 -51.9 -1127.79 -51.9 -1134.44 -44.58 -1127.79 -51.9 -1127.12 -44.58 -1127.79 -43.91 -1127.12c1490.41,24084.05 3308.17,48212.68 5443.98,72363.27 -66.54,29.94 -133.74,59.88 -200.27,89.16zm1353987.11 -7507927.34c16317.96,106861.54 8084.79,52833.61 0,0zm944497.04 1690023.38l2224.97 -1757.88 -2217.65 1765.2 -7.32 -7.32zm166437.91 130070.64l7.32 7.98 -2632.83 -1906.26 2625.51 1898.27z"/>
    </clipPath>
      <mask id="id4">
  <linearGradient id="id5" gradientUnits="userSpaceOnUse" x1="11617492.95" y1="1768924.25" x2="12232063.01" y2="3509141.48">
   <stop offset="0" style="stop-opacity:1; stop-color:white"/>
   <stop offset="1" style="stop-opacity:0; stop-color:white"/>
  </linearGradient>
       <rect style="fill:url(#id5)" x="9353108.77" y="1710480.55" width="2966566.53" height="1956540.81"/>
      </mask>
      <mask id="id6">
  <linearGradient id="id7" gradientUnits="userSpaceOnUse" x1="11274470.67" y1="4048627" x2="12192028.15" y2="3914457.79">
   <stop offset="0" style="stop-opacity:1; stop-color:white"/>
   <stop offset="1" style="stop-opacity:0; stop-color:white"/>
  </linearGradient>
       <rect style="fill:url(#id7)" x="11287071.9" y="3750548.04" width="1002774.63" height="376572.03"/>
      </mask>
      <mask id="id8">
  <linearGradient id="id9" gradientUnits="userSpaceOnUse" x1="9731014.09" y1="5317695.09" x2="9544578.64" y2="2815492.66">
   <stop offset="0" style="stop-opacity:1; stop-color:white"/>
   <stop offset="1" style="stop-opacity:0; stop-color:white"/>
  </linearGradient>
       <rect style="fill:url(#id9)" x="9478171.24" y="2885409.86" width="2005044.91" height="3163895.79"/>
      </mask>
      <mask id="id10">
  <linearGradient id="id11" gradientUnits="userSpaceOnUse" x1="3021378.29" y1="10427144.57" x2="5867568.28" y2="12738155.98">
   <stop offset="0" style="stop-opacity:1; stop-color:white"/>
   <stop offset="1" style="stop-opacity:0; stop-color:white"/>
  </linearGradient>
       <rect style="fill:url(#id11)" x="965768.61" y="9021950.25" width="5511938.64" height="5511939.97"/>
      </mask>
      <mask id="id12">
  <linearGradient id="id13" gradientUnits="userSpaceOnUse" x1="7160847.35" y1="14569303.43" x2="6797782.24" y2="13671454.15">
   <stop offset="0" style="stop-opacity:1; stop-color:white"/>
   <stop offset="1" style="stop-opacity:0; stop-color:white"/>
  </linearGradient>
       <rect style="fill:url(#id13)" x="6472189.42" y="13601373" width="989631.76" height="926471.1"/>
      </mask>
      <mask id="id14">
  <linearGradient id="id15" gradientUnits="userSpaceOnUse" x1="11120173.96" y1="8931952.8" x2="11645145.22" y2="8161667.39">
   <stop offset="0" style="stop-opacity:1; stop-color:white"/>
   <stop offset="1" style="stop-opacity:0; stop-color:white"/>
  </linearGradient>
       <rect style="fill:url(#id15)" x="11008021.75" y="8028070.16" width="904931.39" height="1147930.98"/>
      </mask>
      <mask id="id16">
  <linearGradient id="id17" gradientUnits="userSpaceOnUse" x1="9338480" y1="8369360.96" x2="7788088.75" y2="8702986.23">
   <stop offset="0" style="stop-opacity:1; stop-color:white"/>
   <stop offset="1" style="stop-opacity:0; stop-color:white"/>
  </linearGradient>
       <rect style="fill:url(#id17)" x="7820069.85" y="8061922.37" width="1762164.42" height="1096935.1"/>
      </mask>
      <mask id="id18">
  <linearGradient id="id19" gradientUnits="userSpaceOnUse" x1="5030275.07" y1="7970589.59" x2="7594215.23" y2="5880989.54">
   <stop offset="0" style="stop-opacity:1; stop-color:white"/>
   <stop offset="1" style="stop-opacity:0; stop-color:white"/>
  </linearGradient>
       <rect style="fill:url(#id19)" x="4927699.65" y="5674803.56" width="2950166.73" height="2522484.38"/>
      </mask>
  <linearGradient id="id20" gradientUnits="userSpaceOnUse" x1="10537526.37" y1="1843247.47" x2="12070405.58" y2="40037.57">
   <stop offset="0" style="stop-opacity:1; stop-color:#008BC0"/>
   <stop offset="1" style="stop-opacity:1; stop-color:#FE17BD"/>
  </linearGradient>
  <linearGradient id="id21" gradientUnits="userSpaceOnUse" xlink:href="#id20" x1="10537526.37" y1="1843247.47" x2="12070405.58" y2="40037.57">
  </linearGradient>
  <linearGradient id="id22" gradientUnits="userSpaceOnUse" xlink:href="#id20" x1="9683223.33" y1="1350692.91" x2="7962191.5" y2="5877719.19">
  </linearGradient>
  <linearGradient id="id23" gradientUnits="userSpaceOnUse" xlink:href="#id20" x1="10537526.37" y1="1843247.47" x2="12070405.58" y2="40037.57">
  </linearGradient>
  <linearGradient id="id24" gradientUnits="userSpaceOnUse" xlink:href="#id20" x1="10537526.37" y1="1843247.47" x2="12070405.58" y2="40037.57">
  </linearGradient>
  <linearGradient id="id25" gradientUnits="userSpaceOnUse" xlink:href="#id20" x1="10537526.37" y1="1843247.47" x2="12070405.58" y2="40037.57">
  </linearGradient>
  <linearGradient id="id26" gradientUnits="userSpaceOnUse" xlink:href="#id20" x1="10537526.37" y1="1843247.47" x2="12070405.58" y2="40037.57">
  </linearGradient>
  <linearGradient id="id27" gradientUnits="userSpaceOnUse" x1="5779911.13" y1="8156700.07" x2="3160969.12" y2="13007974.65">
   <stop offset="0" style="stop-opacity:1; stop-color:#03709E"/>
   <stop offset="1" style="stop-opacity:1; stop-color:#FE17BD"/>
  </linearGradient>
 </defs>
 <g id="Layer_x0020_1">
  <metadata id="CorelCorpID_0Corel-Layer"/>
  <g id="_2656300291696">
   <path class="fil0" d="M2697343.09 12960591.68c534561.19,-4291.57 1018693.38,-268220.75 1318617.88,-681545.95 37874.97,-52181.55 72800.41,-106741.11 104527.45,-163461.08 -21987.5,61766.74 -47484.78,121731.68 -76228.34,179644.64 -104970.58,211507.42 -253331.31,395967.95 -432349.85,542882.85 257555.02,-99081.48 497533.88,-236206.93 712440.63,-405154.58 59090.66,-46451.47 116290.36,-95309.55 171426.78,-146450.48 40748.67,-37807.11 80380.19,-76833.82 118832.04,-117064.84 0,-15.3 0,-15.3 0,-15.3 195676.5,-204764.66 360648.62,-440428.66 486562.09,-700071.58 138747.6,-286114.95 230065.66,-601346.07 262812.7,-936531.35 2423.91,-24766.71 4506.49,-49486.84 6261.71,-74161.07 24881.82,-350258.35 -16952.05,-690618.14 -114943,-1008168.7 -36566.21,-25299 -71618.73,-52808.32 -104955.28,-82388.92 -135192.58,-119995.09 -241887.11,-274036.66 -305485.59,-452386.52 -17718.55,-49727.71 -32104.3,-101335.05 -42815.28,-154633.75 -14291.94,-71059.82 -21413.96,-141899.41 -21865.74,-211770.91 -1139.1,-171207.87 37757.87,-336577.21 109306.74,-485050.39 -111812.48,76741.34 -217252.14,161344.57 -315647.64,252860.24 -96602.34,89850.93 -186439.3,186380.09 -268918.71,288651.3 -79967.67,99189.27 -153011.6,203792.57 -218585.53,313000.83 -179107.03,298324.31 -302460.86,630979.22 -358931.33,981191.67 -6190.51,38359.36 -11572.61,76939.61 -16146.3,115708.83 -12943.26,109961.45 -19327.39,221435.93 -18791.77,333925.09 830.37,176339.8 18623.44,355170.04 54690.63,534559.85 1429.19,7085.42 2874.36,14170.85 4350.13,21225.66 18610.13,60556.45 33825.59,122492.85 45430.81,185559.03 1248.88,4386.72 2482.46,8788.75 3747.31,13159.5 -466.42,-1.33 -917.53,-17.96 -1384.61,-34.6 25450.7,144841.64 31896.71,295502.52 16902.82,449027.78 -9076.18,92873.67 -25642.32,183201 -49044.38,270439.06 -21408.64,79754.75 -48534.71,156921.92 -80879.88,231096.96 -187327.56,429808.18 -549710.78,758758.36 -988936.46,905956.71z"/>
   <g style="clip-path:url(#id0)">
    <g>
     <path id="1" class="fil1" style="mask:url(#id1)" d="M4569492.24 8623676.83c68951.96,-80298.35 142592.06,-156714.99 220593.58,-228776.19 15660.59,-115925.74 49607.94,-227347.66 99405.51,-330626.89 -111807.83,76754.64 -217240.83,161360.54 -315643.64,252861.57 -96621.64,89827.65 -186449.95,186362.12 -268949.32,288632.67 -79966.34,99215.88 -152989.64,203788.58 -218582.2,313008.82 -179079.75,298304.35 -302428.92,630989.87 -358926,981198.99 -6177.21,38357.36 -11541.34,76952.26 -16140.98,115688.87 -12923.96,109984.74 -19296.78,221453.9 -18769.15,333925.75 813.07,176350.45 18626.76,355192.67 54681.98,534557.86 1435.18,7084.76 2871.03,14176.17 4362.1,21260.93 18572.87,60520.52 33798.31,122482.87 45435.47,185542.4 1245.55,4410.01 2445.2,8764.13 3738.66,13167.48 -480.39,0 -914.87,-47.24 -1387.94,-47.24 25419.43,144847.63 31888.73,295479.9 16898.82,449037.76 -9096.14,92849.71 -25664.28,183199 -49032.4,270439.72 -21450.55,79728.81 -48550.68,156911.28 -80873.89,231078.33 -187364.16,429842.77 -549730.07,758742.39 -988953.76,905981.32 129085.9,-1049.94 255212.95,-17238.16 376543.41,-46973.11 -80589.12,10295.79 -162702.57,14705.13 -245824.72,12788.89 443530.57,-133496.58 815909.49,-451003.23 1016488.37,-874763.28 34618.04,-73165.69 64068.22,-149440.61 87958.65,-228491.41 26097.43,-86475.56 45441.45,-176208.06 57362.72,-268766.34 19730.6,-152982.99 17956.75,-303764.3 -3014.75,-449323.2 481.72,0 907.55,47.24 1389.27,47.24 -1104.5,-4409.34 -2201.68,-8811.37 -3305.51,-13261.96 -9673.01,-63398.2 -22982.21,-125787.71 -39691.41,-186889.75 -1246.22,-7084.76 -2493.11,-14217.42 -3692.08,-21356.07 -30500.12,-180415.13 -42752.73,-359739.07 -38160.41,-535987.05 2966.18,-112477.84 12787.56,-223662.89 29112.18,-333167.91 5797.29,-38641.47 12354.41,-77039.42 19729.93,-115159.91 67273.26,-348290.88 200863.65,-676954.3 389088.12,-969561.83 68904.72,-107113.04 145178.98,-209391.58 228159.4,-306066.45z"/>
    </g>
   </g>
   <path class="fil2" d="M2697343.09 12960591.68c534561.19,-4291.57 1018693.38,-268220.75 1318617.88,-681545.95 37874.97,-52181.55 72800.41,-106741.11 104527.45,-163461.08 -21987.5,61766.74 -47484.78,121731.68 -76228.34,179644.64 -104970.58,211507.42 -253331.31,395967.95 -432349.85,542882.85 257555.02,-99081.48 497533.88,-236206.93 712440.63,-405154.58 59090.66,-46451.47 116290.36,-95309.55 171426.78,-146450.48 40748.67,-37807.11 80380.19,-76833.82 118832.04,-117064.84 0,-15.3 0,-15.3 0,-15.3 195676.5,-204764.66 360648.62,-440428.66 486562.09,-700071.58 138747.6,-286114.95 230065.66,-601346.07 262812.7,-936531.35 2423.91,-24766.71 4506.49,-49486.84 6261.71,-74161.07 24881.82,-350258.35 -16952.05,-690618.14 -114943,-1008168.7 -36566.21,-25299 -71618.73,-52808.32 -104955.28,-82388.92 -135192.58,-119995.09 -241887.11,-274036.66 -305485.59,-452386.52 -17718.55,-49727.71 -32104.3,-101335.05 -42815.28,-154633.75 -14291.94,-71059.82 -21413.96,-141899.41 -21865.74,-211770.91 -1139.1,-171207.87 37757.87,-336577.21 109306.74,-485050.39 -111812.48,76741.34 -217252.14,161344.57 -315647.64,252860.24 -96602.34,89850.93 -186439.3,186380.09 -268918.71,288651.3 -79967.67,99189.27 -153011.6,203792.57 -218585.53,313000.83 -179107.03,298324.31 -302460.86,630979.22 -358931.33,981191.67 -6190.51,38359.36 -11572.61,76939.61 -16146.3,115708.83 -12943.26,109961.45 -19327.39,221435.93 -18791.77,333925.09 830.37,176339.8 18623.44,355170.04 54690.63,534559.85 1429.19,7085.42 2874.36,14170.85 4350.13,21225.66 18610.13,60556.45 33825.59,122492.85 45430.81,185559.03 1248.88,4386.72 2482.46,8788.75 3747.31,13159.5 -466.42,-1.33 -917.53,-17.96 -1384.61,-34.6 25450.7,144841.64 31896.71,295502.52 16902.82,449027.78 -9076.18,92873.67 -25642.32,183201 -49044.38,270439.06 -21408.64,79754.75 -48534.71,156921.92 -80879.88,231096.96 -187327.56,429808.18 -549710.78,758758.36 -988936.46,905956.71z"/>
   <path class="fil3" d="M11874351.58 358586c-25048.82,-20966.17 -50361.13,-41399.39 -75925.61,-61311.63 9569.88,-8833.32 19255.53,-17489 29056.95,-25966.35 36584.84,-31606.61 74776.53,-60587.72 114308.25,-86940.65l55546.28 -68260.65c36858.97,-41996.22 76123.88,-80717.53 117400.85,-116107.38l-111110.53 157418.95c-12995.82,15527.52 -26306.35,30628.53 -39921.62,45291.75 -18980.74,43554.49 -40783.27,86252 -65454.16,127831.03l-21711.37 29876.68c-729.23,-610.8 -1459.14,-1221.6 -2189.04,-1831.74z"/>
   <path class="fil3" d="M11710290.35 388137.99c32336.52,22224.37 64332.37,45220.55 95956.28,69024.49l-34826.29 47928.57 -36649.38 56716.65 -290.76 469.08c-40175.79,-27076.84 -80863.24,-52933.41 -122010.46,-77608.97 5341.51,-3951.58 10730.27,-7862.56 16147.63,-11709.68l66877.37 -67482.85c4886.41,-5837.87 9822.05,-11613.2 14795.62,-17337.3z"/>
   <path class="fil3" d="M11495859.33 583351.4c56095.2,28642.43 111468.49,59386.74 165998.1,92232.26l-76434.61 119271.17c-64020.31,-34218.15 -129022.7,-65658.43 -194866.76,-94343.45l25356.22 -31729.04c25478.65,-30100.24 52174.24,-58592.97 79947.04,-85430.94z"/>
   <path class="fil3" d="M11250646.74 816046.56c85999.83,30196.72 170902.47,64887.28 254345.99,104092.31 -22133.88,43336.25 -47237.26,85651.18 -75290.19,126677.97l-4917.01 6482.61c-99438.78,-40753.99 -200664.04,-75313.47 -303093.62,-103720.37 2030.68,-2450.52 4061.36,-4901.04 6104.02,-7340.92l77110.61 -83573.92c14931.35,-14679.85 30181.41,-28889.95 45740.2,-42617.66z"/>
   <path class="fil3" d="M10961408.59 1089213.59c120976.49,23649.57 240808.56,55616.81 358615.28,95958.94 -22340.14,50995.22 -48594.6,100809.42 -78789.98,149013.45 -139760.28,-40530.43 -281877.27,-69546.13 -424911.12,-87184.83l138471.48 -151829.92c2203.67,-2000.07 4408.68,-3978.86 6614.35,-5957.64z"/>
   <path class="fil3" d="M10616846.39 1415938.15c171429.44,5684.17 342716.49,27482.05 511399.99,65612.52l-21359.4 27852.65c-15389.79,35351.26 -32647.9,70115.68 -51793.65,104194.11 -5469.26,9743.54 -11098.88,19434.51 -16877.53,29060.95 -202213,-35111.07 -407173.95,-47154.76 -610806.83,-36504.33l57408.63 -53642.02 75266.9 -73520.99c18302.73,-21867.07 37234.9,-42882.48 56761.9,-63052.88z"/>
   <path class="fil4" d="M11798425.98 297274.37c25564.48,19912.24 50876.78,40345.46 75925.61,61311.63 729.9,610.14 1459.8,1220.94 2189.04,1831.74l-70293.99 96744.73c-31623.91,-23803.93 -63619.76,-46800.12 -95956.28,-69024.49 28037.62,-32210.1 57463.85,-62505.95 88135.63,-90863.61z"/>
   <path class="fil5" d="M11612469.73 484667.81c41147.22,24675.56 81834.67,50532.13 121998.49,77598.99l-72610.78 113316.86c-54529.61,-32845.52 -109902.9,-63589.82 -165998.1,-92232.26 37053.25,-35811.69 76026.07,-68715.76 116610.4,-98683.59z"/>
   <path class="fil6" d="M11390556.07 700511.38c65844.06,28685.02 130846.45,60125.29 194866.76,94343.45l-10204.63 15910.76c-12995.82,15526.85 -26306.35,30627.87 -39921.62,45291.08 -9402.21,21586.29 -19498.39,42958.33 -30303.84,64082.19 -83443.51,-39205.03 -168334.18,-73885.61 -254345.99,-104092.31 39354.07,-34720.5 80609.08,-66365.04 123444.98,-94916.32l16464.34 -20618.85z"/>
   <path class="fil7" d="M11121691.92 949579.06c102429.57,28406.9 203642.86,62956.4 303093.62,103720.37l-63772.13 84139.48c-12995.82,15526.85 -26306.35,30627.87 -39921.62,45291.08 -359.29,817.73 -718.59,1636.12 -1067.9,2442.54 -117806.72,-40342.13 -237638.79,-72309.37 -358615.28,-95958.94 40957.59,-36612.12 84041.67,-69858.85 128833.73,-99702.26 10133.44,-13468.23 20624.18,-26779.43 31449.59,-39932.27z"/>
   <path class="fil8" d="M10816322.77 1247001.15c143033.85,17638.7 285150.84,46654.41 424911.12,87184.83 -95.81,163.68 -204.27,317.38 -300.08,481.06l-112687.43 146883.63c-168683.5,-38130.47 -339970.55,-59928.35 -511399.99,-65612.52 30643.17,-31677.81 62746.15,-61258.4 96100.66,-88713.83 30174.76,-24847.22 61356.87,-47957.18 93445.87,-69331.22l9929.84 -10891.95z"/>
   <path class="fil9" d="M10427408.97 1606154.04c203632.88,-10650.42 408593.82,1393.26 610794.85,36494.35 -30797.54,51280.66 -65979.13,100824.06 -105588.04,148147.15l-10811.44 16806.34c-240718.07,-27142.71 -483786.87,-22117.91 -722405.07,14460.28 4366.76,-3199.72 8718.22,-6332.23 13021.1,-9382.91l63814.72 -65307.12 151173.87 -141218.09z"/>
   <path class="fil3" d="M10199399.28 1822062.16c238618.2,-36578.19 481686.99,-41602.99 722405.07,-14460.28l-59103.3 91952.81c-14395.07,28209.28 -30036.36,55986.08 -46918.55,83253.22 -295775.98,-16897.49 -592941.9,14311.9 -878996.3,92496.41 5820.57,-4038.07 11689.05,-8036.22 17679.29,-11790.19 61138.64,-85611.26 158089.63,-177844.18 244933.8,-241451.97z"/>
   <path class="fil3" d="M5920702.13 10588983.76c103168.12,505315.27 60881.14,1006551.21 -98161.28,1460278.43 27117.43,31063.68 53575.48,62773.43 79342.9,95112.6 155995.07,195811.57 286614.63,414705.16 385784.61,652683.95 67564.69,162121.05 120532.03,333106.03 156988.46,511671.46 2210.33,10836.72 4361.44,21680.77 6438.03,32517.49 59672.85,310921.58 64464.11,619950.88 21072.63,916949.13 4532.43,4169.15 9049.57,8359.59 13559.38,12558.01 248510.78,207686.26 585837.85,304430.32 927829.76,234603.41 15798.98,-3226.33 31449.59,-6772.04 46944.5,-10636.45 4435.29,-90321.34 -2254.91,-182660.06 -21176.43,-275339.44 -5541.12,-27132.73 -12031.05,-53821 -19433.85,-80048.18 -24425.38,-86538.77 -58767.29,-168003.5 -101514.04,-243400.81 -15731.78,-27748.86 -32606.65,-54681.31 -50541.44,-80738.16 -10169.37,-13781.61 -20219.64,-27674.33 -30151.47,-41670.86 -214933.36,-303021.09 -371736.19,-654700.65 -450827.58,-1042094.77 -21257.6,-104132.23 -36344.65,-208094.12 -45505.33,-311499.78 511.66,-229.55 1023.99,-459.76 1528.33,-681.99 -37272.16,-350900.43 96625.63,-687619.36 340634.58,-917787.48 3070.64,-2885 6163.9,-5748.05 9264.48,-8603.78 332823.91,-310468.47 584858.44,-699791.46 731714.79,-1131066.09 124262.71,-364934.21 173217.26,-759916.09 132088.01,-1162574.9 -9315.71,-91174.33 -23245.7,-182734.58 -41966.94,-274435.21 -24380.8,-119182.01 -56075.24,-235071.16 -94549.04,-347184.39 97916.43,181027.93 176673.81,375496.14 233060.44,581268.82 191553.26,-82755.53 376409.01,-178788.33 553290.41,-287044.46 613638.6,-375548.7 1131377.48,-898153.36 1500487.49,-1523459.06 -50838.86,-21592.28 -100972.43,-44674.96 -150342.17,-69226.76l-7.98 0c-278565.77,-138504.08 -532670.23,-323433.68 -750428.71,-546911.6 295781.97,213501.51 633249.43,368294.28 993117.59,451621.35 57262.25,13254.64 115087.39,24706.83 173402.9,34297.33 402199.05,-90284.08 764574.28,-264799.46 1072282.83,-501057.63 180516.27,78935.7 351961.68,176919.33 511300.85,291932.86l7.98 0 0 7.32c-15725.13,45446.11 -32703.13,90647.37 -50942.65,135552.54 -50949.97,125412.45 -111764.58,248451.56 -182645.42,368108.64 -21087.27,35596.12 -43072.11,70887.5 -65947.2,105860.83 -5963.63,9115.44 -11971.83,18186.96 -18024.61,27206.59 -29884.66,43933.08 3234.32,-4754.67 -19930.21,29298.48 -172594.49,250358.48 -379717.18,463547.94 -610737.63,637351.38 281.45,6156.58 548.26,12313.16 793.11,18469.74 30374.37,322439.63 201915.59,628583.93 494011.46,819670.11 13492.18,8826.67 27110.11,17319.33 40832.5,25478.65 66719.01,-61037.5 126955.42,-131339.48 178743.08,-210497.41 85277.91,-130360.07 139186.74,-271979.37 163856.97,-416069.15 1661.4,-11118.84 3390.01,-22229.69 5185.15,-33341.21 29587.25,-182904.91 77970.92,-364281.49 145735.88,-541274.67 69211.45,-180775.76 158642.54,-356967.85 268938.67,-525556.86 18202.26,-27830.03 36827.03,-55214.93 55853.01,-82170.01 24885.14,-35239.48 50452.28,-69723.12 76680.12,-103449.57 17824.34,-22912.35 35952.08,-45476.05 54376.58,-67691.1 45720.9,-55125.77 93258.91,-108078.48 142465.64,-158835.5 46706.97,-48160.78 94912.33,-94340.78 144504.97,-138511.4 -78364.82,-85158.81 -161861.56,-165117.83 -249868.78,-239469.86l-7.32 0c-188007.56,-158842.82 -396635.97,-292139.79 -619994.79,-395983.25 -109791.78,-51053.77 -223143.91,-94971.55 -339359.08,-131309.54l8923.15 2796.51c-686520.85,-244735.52 -1262805.45,-757238.68 -1577457.04,-1437447.25 -88014.54,-190277.77 -155556.6,-393684.43 -199319.35,-608016.31 -40054.03,-196188.83 -58181.77,-391762.87 -56067.92,-584176.44 70427.73,83156.08 164354,143941.41 269220.78,174055.62 82569.89,23713.44 171926.46,28408.89 261929.1,10035.63 65539.99,-13381.06 125961.37,-37880.3 179715.17,-71132.35 1913.58,-1187 3812.52,-2380.66 5711.45,-3582.3 4197.76,-2833.77 8440.76,-5614.98 12728.34,-8344.95 41047.41,-27733.55 114768.68,-60288.31 185425.96,-74714.65 64449.47,-13158.83 128565.59,-14486.23 190099.45,-5474.59 170562.48,24989.61 321268.6,129440.54 404149.88,281645.06 -815.73,-1676.71 186717.43,384975.53 606161.28,299349.63 298200.56,-60881.81 490584.19,-351975.65 429702.38,-650176.2 -11229.95,-54992.04 -30299.85,-106365.18 -55785.81,-153235.16 1290.8,2380.66 2581.6,4754.67 3842.46,7150.63 -237748.57,-482751.57 -608928.52,-876940.34 -1056944.28,-1145159.09 -35254.79,-21109.89 -70976.65,-41433.99 -107150.97,-60956.33 -26821.34,-14478.24 -53894.86,-28519.34 -81197.92,-42108 -422.5,-215.58 -845.67,-423.17 -1268.18,-630.76 -44199.89,-21984.84 -89023.22,-42790.66 -134410.12,-62402.16 -70554.15,-30433.58 -142480.27,-57974.18 -215600.05,-82496.04 21.96,-37.26 36.59,-66.54 59.22,-103.8 -99756.15,-33511.54 -201737.27,-61400.79 -305476.94,-83370.99 -40721.39,-8626.4 -81709.58,-16333.27 -122942.63,-23119.94 -1305.44,296.75 -2603.56,586.18 -3908.99,882.93l0 7.32c-1412568.76,319213.3 -2332722.26,1677777.42 -2115846.05,3100360.53 -16399.8,-107566.82 -26301.7,-214769.69 -29981.14,-321186.76 18588.17,592194.7 -155438.17,1159623.36 -474006.07,1629527.48 -246605.18,363755.19 -579815.01,669068.45 -977340.56,882184.05l0 7.32c-230502.13,123573.39 -482625.81,216156.96 -752024.25,271156.98 -17816.36,3634.2 -35632.71,7098.06 -53441.75,10376.3l-171 29.94c-10762.2,1869 -21547.03,3901.67 -32324.54,6097.36 -96.48,21.96 -200.27,44.58 -304.07,66.54 -9672.34,2158.43 -19366.64,4272.28 -29083.57,6334.23 -579748.47,134462.02 -950074.76,707356.61 -830306.56,1293988.9 45824.7,224434.04 156847.4,418902.92 309296.77,567680.16 15746.42,13803.57 31345.13,27770.15 46795.46,41930.35 34602.07,38488.44 68166.17,78008.18 100646.41,118529.3 39097.24,48768.92 76606.27,98977.02 112447.24,150572.39 207040.86,298022.24 358258.65,642098.73 435451.1,1020191.1zm820448.58 1831035.21l-118.43 -1134.44 -119.1 -1135.1 -118.43 -1135.1 -111.12 -1134.44 -119.1 -1135.1 0 -7.32 -111.12 -1127.79 0 -7.32 -111.12 -1127.12 0 -7.32 -111.12 -1127.79 0 -7.32 -111.12 -1127.12 0 -7.98 -111.78 -1127.12 0 -7.32 -103.8 -1127.79 0 -7.32 -103.8 -1127.12 0 -7.32 -111.12 -1127.79 0 -7.32 -103.8 -1127.79 0 -7.32 -96.48 -1127.12 -103.8 -1135.1 -103.8 -1134.44 -96.48 -1135.1 -96.48 -1135.1 -96.48 -1127.12 0 -7.32 -96.48 -1127.79 0 -7.32 -96.48 -1127.12 -88.49 -1135.1 -96.48 -1135.1 -89.16 -1127.12 0 -7.32 -89.16 -1127.79 0 -7.32 -89.16 -1127.12 -89.16 -1135.1 -81.17 -1127.79 0 -7.32 -89.16 -1127.12 -81.84 -1135.1 -81.17 -1127.12 0 -7.32 -81.84 -1127.79 -81.17 -1134.44 -81.84 -1127.79 -74.52 -1135.1 -73.86 -1127.12 0 -7.32 -81.84 -1127.79 -73.86 -1127.12 0 -7.32 -66.54 -1127.79 -74.52 -1127.12 0 -7.32 -73.86 -1127.79 -67.2 -1127.12 0 -7.98 -66.54 -1127.12 -66.54 -1127.79 -67.2 -1134.44 -66.54 -1127.79 -59.22 -1127.12 0 -7.32 -67.2 -1127.79 -59.22 -1127.12 -59.22 -1135.1 -59.22 -1127.12 -59.22 -1127.79 -59.22 -1127.12 -52.56 -1135.1 -51.9 -1127.12 -51.9 -1127.79 -51.9 -1127.12 -51.9 -1127.79 -51.9 -1134.44 -44.58 -1127.79 -51.9 -1127.12 -44.58 -1127.79 -43.91 -1127.12c1490.41,24084.05 3308.17,48212.68 5443.98,72363.27 -66.54,29.94 -133.74,59.88 -200.27,89.16zm1353987.11 -7507927.34c16317.96,106861.54 8084.79,52833.61 0,0zm944497.04 1690023.38l2224.97 -1757.88 -2217.65 1765.2 -7.32 -7.32zm166437.91 130070.64l7.32 7.98 -2632.83 -1906.26 2625.51 1898.27z"/>
   <g style="clip-path:url(#id3)">
    <g>
     <path id="1" class="fil10" style="mask:url(#id4)" d="M9583290.86 1959906.86c1202795.93,-17475.69 2248693.9,683903.32 2728374.16,1706527.65 11393.63,-71295.36 9909.21,-145897.57 -6509.22,-220688.73 -12977.19,-59280.28 -34428.41,-114537.8 -62822.66,-164768.52 -284323.8,-550305.61 -731066.73,-988669.65 -1264669.79,-1266863.49 -29110.85,-15179.53 -58413.32,-29830.1 -88005.89,-44054.84 -123917.38,-59036.1 -249082.32,-109124.43 -380234.17,-150969.61 53.89,-47.91 53.89,-95.15 101.13,-142.39 -150211.76,-48029.71 -304820.89,-84274.55 -462591.81,-107879.54l-4165.82 1049.94 -41133.91 10200.64c-284.77,95.15 -568.88,142.39 -860.31,236.87 -229305.15,58799.23 -445780.15,143216.16 -647076.95,249421.65 75746.62,-6895.13 152311.64,-10966.47 229595.25,-12069.64z"/>
     <path class="fil1" style="mask:url(#id6)" d="M11856260.44 4114463.58c203877.07,-41655.55 361749.79,-183292.82 432999.24,-363328.69 -192247.9,134356.89 -426151.35,213170.16 -678492.61,213170.16 -111997.45,0 -220404.62,-15510.22 -323108.32,-44575.15 135602.44,157723.68 350351.5,239268.25 568601.69,194733.69z"/>
     <path class="fil11" d="M8101583.17 5416947.14c-32087,-157152.14 -49992.52,-313895.74 -54799.08,-468955.32l-492964.85 0c152686.24,658209.1 541222.11,1225993.06 1071763.85,1609470.86 -252598.75,-324346.56 -436192.97,-710419.93 -523999.92,-1140515.54z"/>
     <path class="fil10" style="mask:url(#id8)" d="M11482629.3 6048718.8c-1096305.67,-656756.62 -1781455.21,-1852900.94 -1767089.41,-3162722.09 -215757.08,424193.86 -294863.11,921641.25 -192246.57,1424209.24 198661.31,973206.01 1016779.13,1661756.21 1959335.98,1738512.85z"/>
     <path class="fil10" style="mask:url(#id10)" d="M3636174.58 9023879.13c-1520980.59,47257.22 -2715687.74,1318578.62 -2668431.18,2839605.12 47211.31,1520980.59 1318579.29,2715735.64 2839559.21,2668477.09 1521026.5,-47257.22 2715734.31,-1318578.62 2668477.09,-2839605.12 -47257.22,-1520979.26 -1318578.62,-2715687.74 -2839605.12,-2668477.09z"/>
     <path class="fil12" style="mask:url(#id12)" d="M7460480.49 14494708.48c10240.56,-208049.55 -39312.15,-417433.8 -142118.32,-598769.13l-80676.94 -122435.63c-39698.73,-55920.21 -77236.37,-113330.84 -112620.23,-172130.73 -180949.42,131958.93 -391627.8,229068.28 -624244.45,279338.92 -859.65,125693.9 -10295.79,251859.53 -28631.12,377506.19 4497.84,4164.49 9049.57,8330.98 13546.74,12544.04 248513.44,207663.64 585839.85,304433.65 927817.79,234574.14 15802.97,-3203.71 31455.58,-6746.75 46926.54,-10627.8z"/>
     <path class="fil12" style="mask:url(#id14)" d="M11008786.91 8330878.34c30405.64,322437.64 201919.58,628599.23 494006.14,819648.82 13499.5,8858.61 27147.37,17332.64 40843.81,25473.99 177400.38,-162275.41 305057.09,-392298.48 342594.73,-626540.61 8237.16,-51185.51 17001.29,-100265.15 26721.54,-148193.72 -218439.81,-81977.72 -417488.36,-209438.15 -583306.82,-373196.65 -99642.38,103042.37 -207181.92,198235.48 -321624.57,284323.8 290.76,6177.21 527.63,12307.17 765.16,18484.38z"/>
     <path class="fil10" style="mask:url(#id16)" d="M7820069.85 8577617.92c97922.42,180990 176689.11,375493.48 233043.14,581239.54 583448.54,-252049.16 1105218.84,-627542.64 1529121.27,-1096935.1 -306974,221406.65 -664796.17,382822.42 -1059776.05,463452.12 -236491.71,48314.48 -472121.77,64740.23 -702388.36,52243.43z"/>
     <path class="fil13" style="mask:url(#id18)" d="M4927699.65 8197287.94c137038.29,-302619.21 408628.42,-539347.12 754908.59,-619644.81l61678.91 -12496.8c278668.24,-48456.87 567781.3,-154087.49 805660.95,-281595.16 397519.57,-213122.92 730734.05,-518424.2 977323.93,-882186.71 151072.74,-222841.84 269673.23,-467616.61 350594.36,-726560.91 -75177.07,192152.75 -171513.94,374965.18 -286815.57,545043.27 -246591.21,363761.84 -579805.03,669055.8 -977325.26,882179.39 -237825.75,127514.99 -526986.06,233137.62 -805660.95,281547.25l-61671.59 12502.79c-412983.87,95809.24 -719673.76,414034.48 -818693.36,801211.68z"/>
    </g>
   </g>
   <path class="fil2" d="M5920702.13 10588983.76c103168.12,505315.27 60881.14,1006551.21 -98161.28,1460278.43 27117.43,31063.68 53575.48,62773.43 79342.9,95112.6 155995.07,195811.57 286614.63,414705.16 385784.61,652683.95 67564.69,162121.05 120532.03,333106.03 156988.46,511671.46 2210.33,10836.72 4361.44,21680.77 6438.03,32517.49 59672.85,310921.58 64464.11,619950.88 21072.63,916949.13 4532.43,4169.15 9049.57,8359.59 13559.38,12558.01 248510.78,207686.26 585837.85,304430.32 927829.76,234603.41 15798.98,-3226.33 31449.59,-6772.04 46944.5,-10636.45 4435.29,-90321.34 -2254.91,-182660.06 -21176.43,-275339.44 -5541.12,-27132.73 -12031.05,-53821 -19433.85,-80048.18 -24425.38,-86538.77 -58767.29,-168003.5 -101514.04,-243400.81 -15731.78,-27748.86 -32606.65,-54681.31 -50541.44,-80738.16 -10169.37,-13781.61 -20219.64,-27674.33 -30151.47,-41670.86 -214933.36,-303021.09 -371736.19,-654700.65 -450827.58,-1042094.77 -21257.6,-104132.23 -36344.65,-208094.12 -45505.33,-311499.78 511.66,-229.55 1023.99,-459.76 1528.33,-681.99 -37272.16,-350900.43 96625.63,-687619.36 340634.58,-917787.48 3070.64,-2885 6163.9,-5748.05 9264.48,-8603.78 332823.91,-310468.47 584858.44,-699791.46 731714.79,-1131066.09 124262.71,-364934.21 173217.26,-759916.09 132088.01,-1162574.9 -9315.71,-91174.33 -23245.7,-182734.58 -41966.94,-274435.21 -24380.8,-119182.01 -56075.24,-235071.16 -94549.04,-347184.39 97916.43,181027.93 176673.81,375496.14 233060.44,581268.82 191553.26,-82755.53 376409.01,-178788.33 553290.41,-287044.46 613638.6,-375548.7 1131377.48,-898153.36 1500487.49,-1523459.06 -50838.86,-21592.28 -100972.43,-44674.96 -150342.17,-69226.76l-7.98 0c-278565.77,-138504.08 -532670.23,-323433.68 -750428.71,-546911.6 295781.97,213501.51 633249.43,368294.28 993117.59,451621.35 57262.25,13254.64 115087.39,24706.83 173402.9,34297.33 402199.05,-90284.08 764574.28,-264799.46 1072282.83,-501057.63 180516.27,78935.7 351961.68,176919.33 511300.85,291932.86l7.98 0 0 7.32c-15725.13,45446.11 -32703.13,90647.37 -50942.65,135552.54 -50949.97,125412.45 -111764.58,248451.56 -182645.42,368108.64 -21087.27,35596.12 -43072.11,70887.5 -65947.2,105860.83 -5963.63,9115.44 -11971.83,18186.96 -18024.61,27206.59 -29884.66,43933.08 3234.32,-4754.67 -19930.21,29298.48 -172594.49,250358.48 -379717.18,463547.94 -610737.63,637351.38 281.45,6156.58 548.26,12313.16 793.11,18469.74 30374.37,322439.63 201915.59,628583.93 494011.46,819670.11 13492.18,8826.67 27110.11,17319.33 40832.5,25478.65 66719.01,-61037.5 126955.42,-131339.48 178743.08,-210497.41 85277.91,-130360.07 139186.74,-271979.37 163856.97,-416069.15 1661.4,-11118.84 3390.01,-22229.69 5185.15,-33341.21 29587.25,-182904.91 77970.92,-364281.49 145735.88,-541274.67 69211.45,-180775.76 158642.54,-356967.85 268938.67,-525556.86 18202.26,-27830.03 36827.03,-55214.93 55853.01,-82170.01 24885.14,-35239.48 50452.28,-69723.12 76680.12,-103449.57 17824.34,-22912.35 35952.08,-45476.05 54376.58,-67691.1 45720.9,-55125.77 93258.91,-108078.48 142465.64,-158835.5 46706.97,-48160.78 94912.33,-94340.78 144504.97,-138511.4 -78364.82,-85158.81 -161861.56,-165117.83 -249868.78,-239469.86l-7.32 0c-188007.56,-158842.82 -396635.97,-292139.79 -619994.79,-395983.25 -109791.78,-51053.77 -223143.91,-94971.55 -339359.08,-131309.54l8923.15 2796.51c-686520.85,-244735.52 -1262805.45,-757238.68 -1577457.04,-1437447.25 -88014.54,-190277.77 -155556.6,-393684.43 -199319.35,-608016.31 -40054.03,-196188.83 -58181.77,-391762.87 -56067.92,-584176.44 70427.73,83156.08 164354,143941.41 269220.78,174055.62 82569.89,23713.44 171926.46,28408.89 261929.1,10035.63 65539.99,-13381.06 125961.37,-37880.3 179715.17,-71132.35 1913.58,-1187 3812.52,-2380.66 5711.45,-3582.3 4197.76,-2833.77 8440.76,-5614.98 12728.34,-8344.95 41047.41,-27733.55 114768.68,-60288.31 185425.96,-74714.65 64449.47,-13158.83 128565.59,-14486.23 190099.45,-5474.59 170562.48,24989.61 321268.6,129440.54 404149.88,281645.06 -815.73,-1676.71 186717.43,384975.53 606161.28,299349.63 298200.56,-60881.81 490584.19,-351975.65 429702.38,-650176.2 -11229.95,-54992.04 -30299.85,-106365.18 -55785.81,-153235.16 1290.8,2380.66 2581.6,4754.67 3842.46,7150.63 -237748.57,-482751.57 -608928.52,-876940.34 -1056944.28,-1145159.09 -35254.79,-21109.89 -70976.65,-41433.99 -107150.97,-60956.33 -26821.34,-14478.24 -53894.86,-28519.34 -81197.92,-42108 -422.5,-215.58 -845.67,-423.17 -1268.18,-630.76 -44199.89,-21984.84 -89023.22,-42790.66 -134410.12,-62402.16 -70554.15,-30433.58 -142480.27,-57974.18 -215600.05,-82496.04 21.96,-37.26 36.59,-66.54 59.22,-103.8 -99756.15,-33511.54 -201737.27,-61400.79 -305476.94,-83370.99 -40721.39,-8626.4 -81709.58,-16333.27 -122942.63,-23119.94 -1305.44,296.75 -2603.56,586.18 -3908.99,882.93l0 7.32c-1412568.76,319213.3 -2332722.26,1677777.42 -2115846.05,3100360.53 -16399.8,-107566.82 -26301.7,-214769.69 -29981.14,-321186.76 18588.17,592194.7 -155438.17,1159623.36 -474006.07,1629527.48 -246605.18,363755.19 -579815.01,669068.45 -977340.56,882184.05l0 7.32c-230502.13,123573.39 -482625.81,216156.96 -752024.25,271156.98 -17816.36,3634.2 -35632.71,7098.06 -53441.75,10376.3l-171 29.94c-10762.2,1869 -21547.03,3901.67 -32324.54,6097.36 -96.48,21.96 -200.27,44.58 -304.07,66.54 -9672.34,2158.43 -19366.64,4272.28 -29083.57,6334.23 -579748.47,134462.02 -950074.76,707356.61 -830306.56,1293988.9 45824.7,224434.04 156847.4,418902.92 309296.77,567680.16 15746.42,13803.57 31345.13,27770.15 46795.46,41930.35 34602.07,38488.44 68166.17,78008.18 100646.41,118529.3 39097.24,48768.92 76606.27,98977.02 112447.24,150572.39 207040.86,298022.24 358258.65,642098.73 435451.1,1020191.1zm820448.58 1831035.21l-118.43 -1134.44 -119.1 -1135.1 -118.43 -1135.1 -111.12 -1134.44 -119.1 -1135.1 0 -7.32 -111.12 -1127.79 0 -7.32 -111.12 -1127.12 0 -7.32 -111.12 -1127.79 0 -7.32 -111.12 -1127.12 0 -7.98 -111.78 -1127.12 0 -7.32 -103.8 -1127.79 0 -7.32 -103.8 -1127.12 0 -7.32 -111.12 -1127.79 0 -7.32 -103.8 -1127.79 0 -7.32 -96.48 -1127.12 -103.8 -1135.1 -103.8 -1134.44 -96.48 -1135.1 -96.48 -1135.1 -96.48 -1127.12 0 -7.32 -96.48 -1127.79 0 -7.32 -96.48 -1127.12 -88.49 -1135.1 -96.48 -1135.1 -89.16 -1127.12 0 -7.32 -89.16 -1127.79 0 -7.32 -89.16 -1127.12 -89.16 -1135.1 -81.17 -1127.79 0 -7.32 -89.16 -1127.12 -81.84 -1135.1 -81.17 -1127.12 0 -7.32 -81.84 -1127.79 -81.17 -1134.44 -81.84 -1127.79 -74.52 -1135.1 -73.86 -1127.12 0 -7.32 -81.84 -1127.79 -73.86 -1127.12 0 -7.32 -66.54 -1127.79 -74.52 -1127.12 0 -7.32 -73.86 -1127.79 -67.2 -1127.12 0 -7.98 -66.54 -1127.12 -66.54 -1127.79 -67.2 -1134.44 -66.54 -1127.79 -59.22 -1127.12 0 -7.32 -67.2 -1127.79 -59.22 -1127.12 -59.22 -1135.1 -59.22 -1127.12 -59.22 -1127.79 -59.22 -1127.12 -52.56 -1135.1 -51.9 -1127.12 -51.9 -1127.79 -51.9 -1127.12 -51.9 -1127.79 -51.9 -1134.44 -44.58 -1127.79 -51.9 -1127.12 -44.58 -1127.79 -43.91 -1127.12c1490.41,24084.05 3308.17,48212.68 5443.98,72363.27 -66.54,29.94 -133.74,59.88 -200.27,89.16zm1353987.11 -7507927.34c16317.96,106861.54 8084.79,52833.61 0,0zm944497.04 1690023.38l2224.97 -1757.88 -2217.65 1765.2 -7.32 -7.32zm166437.91 130070.64l7.32 7.98 -2632.83 -1906.26 2625.51 1898.27z"/>
   <path class="fil14" d="M8119668.33 5049665.54c-281508.66,-1378809.71 519947.21,-2727185.17 1821258.4,-3163020.18 -3977.52,-13899.38 -7472,-28063.57 -10420.21,-42461.97 -58763.3,-287842.22 118494.03,-569038.83 399066.53,-642965.03 -24428.71,-640.08 -48951.23,-967.43 -73535.63,-967.43 -1521732.45,0 -2755357.19,1233610.11 -2755357.19,2755342.55 0,919669.78 450576.07,1734104.84 1142991.35,2234584.27 -252602.74,-324345.23 -436193.64,-710417.93 -524003.25,-1140512.21z"/>
   <path class="fil1" d="M7520288.4 4102790.5c0,-1452548.94 1124069.83,-2642230.62 2549724.9,-2747449.38 68450.28,-72521.62 157149.48,-127151.7 259622.29,-154138.72 -24444.68,-639.41 -48997.8,-966.77 -73598.17,-966.77 -1521732.45,0 -2755357.19,1233625.41 -2755357.19,2755357.86 0,150098.65 11995.78,297373.51 35098.43,440951.63 -10233.24,-96514.52 -15490.26,-194526.1 -15490.26,-293754.62z"/>
   <path class="fil15" d="M-0 16846648.35l3275.57 1001931.62c0,464946.52 186631.59,684324.49 572997.06,684324.49 173539.96,0 366716.71,-68763.67 471497.66,-203004.78l0 186631.59 484589.96 0 0 -1669882.92 -484589.96 0 0 969184.57c0,248849.44 -85131.53,353625.08 -281590.5,353625.08 -189907.16,0 -281584.51,-104775.63 -281584.51,-353625.08l0 -969184.57 -484595.28 0zm3293919.85 1669882.92l-3269.58 -1001926.29c0,-464951.85 -186636.92,-684324.49 -573003.05,-684324.49 -173533.31,0 -366716.71,68758.34 -471491.67,203004.78l0 -186636.92 -484595.28 0 0 1669882.92 484595.28 0 0 -969185.24c0,-248843.46 85131.53,-353625.08 281584.51,-353625.08 189907.16,0 281590.5,104781.62 281590.5,353625.08l0 969185.24 484589.29 0zm769456.03 -2236334.83c0,-127694.64 -108051.2,-235745.84 -252119.03,-235745.84 -137516.69,0 -252119.69,108051.2 -252119.69,235745.84 0,134246.44 114603,239028.06 252119.69,239028.06 144067.82,0 252119.03,-104781.62 252119.03,-239028.06zm-3275.57 2236334.83l0 -1669882.92 -504238.72 0 0 1669882.92 504238.72 0zm8703025.05 -1182012.07l72033.91 -389641.7c-52390.48,-65488.1 -140792.26,-114597.02 -261941.08,-114597.02 -225923.79,0 -353624.41,108051.2 -406009.57,291406.56l0 -275038.69 -507514.29 0 0 1669882.92 507514.29 0 0 -674503.11c0,-396187.52 65482.77,-612289.92 353619.09,-612289.92 137522.01,0 219377.97,81855.96 242297.64,104780.95zm1768106.08 1182012.07l-3270.25 -1001926.29c0,-464951.85 -186636.92,-684324.49 -573003.05,-684324.49 -173533.31,0 -366716.04,68758.34 -471491.67,203004.78l0 -186636.92 -484595.28 0 0 1669882.92 484595.28 0 0 -969185.24c0,-248843.46 85131.53,-353625.08 281584.51,-353625.08 189907.16,0 281591.16,104781.62 281591.16,353625.08l0 969185.24 484589.29 0zm772731.6 -1188563.88c0,-68757.68 85131.53,-98229.15 144068.49,-98229.15 130970.21,0 248843.46,68764.33 333974.99,157166.11l284860.74 -284860.74c-160435.69,-189907.16 -432204.8,-271763.13 -661404.83,-271763.13 -232469.6,0 -609014.35,108051.2 -609014.35,458394.05 0,199735.2 127695.3,327429.84 412561.37,468222.09 219372.65,108051.2 337251.22,166987.49 337251.22,271769.11 0,68758.34 -52390.48,104774.97 -153895.86,104774.97 -108051.2,0 -268486.89,-65488.1 -402733.33,-203004.78l-294682.79 294682.79c176809.54,199734.54 487865.53,307785.74 739985.22,307785.74 347072.61,0 618835.73,-166987.49 618835.73,-474773.23 0,-235746.5 -173533.31,-373268.51 -435475.05,-491141.76 -261947.06,-121148.82 -314331.55,-160435.69 -314331.55,-239022.07z"/>
   <path class="fil15" d="M5821660.58 18202199.05l-307780.41 -275038.69c-101505.39,176809.54 -229200.02,206280.35 -337251.22,206280.35 -232475.59,0 -376544.08,-193182.73 -376544.08,-448577.99 0,-258665.51 144068.49,-455124.47 376544.08,-455124.47 108051.2,0 235745.84,39292.86 337251.22,206280.35l307780.41 -275038.69c-150614.31,-203004.78 -356895.32,-330699.42 -677772.69,-330699.42 -471497.66,0 -851311.99,376538.09 -851311.99,854582.23 0,478043.48 379814.33,848041.74 851311.99,848041.74 320877.37,0 527158.39,-127700.62 677772.69,-330705.41zm972460.14 -1371918.57c-464945.86,0 -874230.99,307779.75 -874230.99,854582.23 0,546807.81 409285.13,848041.74 874230.99,848041.74 464945.86,0 874231.66,-301233.93 874231.66,-848041.74 0,-546802.49 -409285.8,-854582.23 -874231.66,-854582.23zm0 399457.76c245567.89,0 366716.71,189907.16 366716.71,455124.47 0,261947.06 -121148.82,448577.99 -366716.71,448577.99 -245573.21,0 -366722.03,-186630.93 -366722.03,-448577.99 0,-265217.31 121148.82,-455124.47 366722.03,-455124.47z"/>
   <path class="fil15" d="M8536031.57 16830280.48c-412555.38,0 -736708.98,320877.37 -736708.98,851311.99 0,563175.67 324153.6,851311.99 736708.98,851311.99 166987.49,0 396187.52,-52390.48 536985.76,-239021.41l0 222648.22 507508.96 0 0 -2553936.63 -507508.96 0 0 1106707.91c-140798.24,-186637.58 -369998.26,-239022.07 -536985.76,-239022.07zm153895.86 1303160.23c-245573.21,0 -383095.88,-189907.16 -383095.88,-451848.24 0,-265217.31 137522.67,-451854.23 383095.88,-451854.23 245567.89,0 383089.9,186636.92 383089.9,451854.23 0,261941.08 -137522.01,451848.24 -383089.9,451848.24zm2773307.95 -287046.45l0 -167529.76c0,-485143.54 -317601.8,-848584.01 -828392.32,-848584.01 -500963.15,0 -825116.75,369992.28 -825116.75,848584.01 0,477495.89 324153.6,854039.97 854587.56,854039.97 304504.18,0 530434.62,-104780.95 707243.5,-278314.93l-301233.93 -277766.67c-98229.15,104775.63 -248843.46,156617.85 -379814.33,156617.85 -186636.92,0 -373267.85,-107502.94 -373267.85,-296867.84l1145994.12 9821.38zm-507508.96 -318150.06l-638485.16 0c0,-180632.7 140792.26,-298505.96 317601.8,-298505.96 183360.68,0 320883.36,117873.25 320883.36,298505.96z"/>
  </g>
 </g>
</svg>
