<?xml version="1.0" encoding="UTF-8"?>
<!DOCTYPE svg PUBLIC "-//W3C//DTD SVG 1.1//EN" "http://www.w3.org/Graphics/SVG/1.1/DTD/svg11.dtd">
<!-- Creator: CorelDRAW 2018 (64-Bit) -->
<svg xmlns="http://www.w3.org/2000/svg" xml:space="preserve" width="4.53465in" height="3.7167in" version="1.1" style="shape-rendering:geometricPrecision; text-rendering:geometricPrecision; image-rendering:optimizeQuality; fill-rule:evenodd; clip-rule:evenodd"
viewBox="0 0 27789 22777"
 xmlns:xlink="http://www.w3.org/1999/xlink">
 <defs>
  <style type="text/css">
   <![CDATA[
    .fil0 {fill:black}
    .fil1 {fill:black;fill-rule:nonzero}
   ]]>
  </style>
 </defs>
 <g id="Layer_x0020_1">
  <metadata id="CorelCorpID_0Corel-Layer"/>
  <path class="fil0" d="M13895 0c2332,0 4223,1891 4223,4223 0,1890 -2083,5246 -3433,6450 -219,169 -493,270 -790,270 -298,0 -572,-101 -790,-270 -1349,-1204 -3433,-4560 -3433,-6450 0,-2332 1891,-4223 4223,-4223zm1914 3937l0 547c0,145 -119,264 -264,264l-1112 0 0 1112c0,145 -119,264 -264,264l-547 0c-145,0 -264,-119 -264,-264l0 -1112 -1112 0c-145,0 -264,-119 -264,-264l0 -547c0,-145 119,-264 264,-264l1112 0 0 -1112c0,-145 119,-264 264,-264l547 0c145,0 264,119 264,264l0 1112 1112 0c145,0 264,119 264,264z"/>
  <path class="fil1" d="M0 17855c0,1319 735,2064 2225,2064 1148,0 1893,-443 2245,-1339 91,-211 20,-362 -211,-453l-453 -131c-242,-81 -352,-40 -443,201 -171,463 -544,695 -1097,695 -715,0 -1097,-352 -1097,-986l0 -1490c0,-654 362,-986 1097,-986 554,0 926,222 1097,674 90,242 201,302 443,211l443 -141c242,-91 302,-201 222,-453 -272,-795 -1017,-1319 -2154,-1319 -1540,0 -2315,745 -2315,2064l0 1389zm5274 -91c0,1319 745,2154 2315,2154 1057,0 1782,-322 2174,-966 151,-232 111,-393 -121,-503l-352 -191c-242,-131 -352,-111 -513,121 -231,352 -624,533 -1188,533 -735,0 -1148,-352 -1148,-1007l0 -372 3040 0c302,0 453,-141 453,-433l0 -614c0,-1218 -795,-2084 -2325,-2084 -1520,0 -2335,765 -2335,2174l0 1188zm3493 -1127l-2325 0 0 -222c0,-654 413,-1027 1168,-1027 765,0 1158,372 1158,1027l0 222zm2093 -614c0,513 181,896 423,1107 121,111 282,201 473,272 393,151 664,191 1137,242 896,91 1208,201 1208,644 0,393 -352,594 -1067,594 -604,0 -986,-181 -1138,-554 -91,-231 -211,-272 -413,-191l-453 141c-211,70 -282,211 -201,423 312,815 1067,1218 2245,1218 1399,0 2174,-664 2174,-1681 0,-1127 -685,-1490 -2054,-1621 -876,-81 -1178,-181 -1178,-624 0,-362 312,-544 946,-544 533,0 896,171 1087,524 131,211 191,231 423,141l453 -181c211,-101 272,-252 161,-453 -352,-715 -1077,-1077 -2154,-1077 -1359,0 -2074,624 -2074,1621zm6049 -2678c-232,0 -312,70 -312,302l0 906 -695 0c-232,0 -302,70 -302,302l0 463c0,231 70,312 302,312l695 0 0 2064c0,856 171,1450 523,1772 342,322 936,473 1782,443 242,-10 322,-81 322,-322l0 -463c0,-242 -81,-312 -322,-312 -443,0 -745,-70 -896,-221 -161,-151 -242,-463 -242,-936l0 -2023 1148 0c231,0 312,-81 312,-312l0 -463c0,-232 -81,-302 -312,-302l-1148 0 0 -906c0,-232 -81,-302 -312,-302l-543 0zm5425 1057c-755,20 -1379,121 -1872,302 -322,131 -393,252 -393,574l0 4178c0,232 81,312 312,312l554 0c231,0 302,-81 302,-312l0 -3745c0,-70 30,-111 101,-121 262,-81 584,-121 956,-121l362 0c231,0 312,-81 312,-312l0 -443c0,-242 -81,-312 -312,-312l-322 0zm1217 1047c-111,201 -50,352 171,453l403 171c232,81 282,60 433,-151 211,-322 564,-483 1057,-483 725,0 1007,342 1007,997l0 282c-574,-30 -896,-50 -966,-50 -1641,0 -2285,423 -2285,1621 0,554 161,966 483,1228 322,272 906,403 1762,403 805,0 1409,-90 1812,-262 282,-121 362,-221 362,-574l0 -2607c0,-1379 -715,-2074 -2154,-2074 -1027,0 -1721,352 -2084,1047zm3070 3282c0,70 -40,111 -111,141 -242,50 -574,81 -1007,81 -735,0 -946,-222 -946,-674 0,-443 242,-654 966,-654 30,0 393,20 1097,50l0 1057z"/>
  <path class="fil1" d="M5095 22395c0,236 136,381 410,381 195,0 329,-68 404,-204 15,-25 11,-42 -13,-55l-40 -21c-21,-11 -40,-8 -55,13 -59,104 -157,157 -296,157 -183,0 -283,-94 -283,-259l0 -110 653 0c38,0 57,-17 57,-53l0 -104c0,-236 -145,-391 -419,-391 -272,0 -417,147 -417,398l0 246zm710 -195l-584 0 0 -66c0,-172 102,-274 291,-274 191,0 293,102 293,274l0 66zm395 -385c-59,25 -72,45 -72,104l0 797c0,23 11,34 34,34l60 0c23,0 34,-11 34,-34l0 -759c0,-23 9,-38 28,-47 77,-28 162,-42 251,-42 176,0 264,85 264,257l0 591c0,25 9,34 34,34l59 0c23,0 34,-11 34,-34l0 -595c0,-248 -125,-370 -376,-370 -130,0 -247,21 -351,64zm1434 -463c-272,6 -382,110 -382,380l0 47 -168 0c-24,0 -34,9 -34,34l0 49c0,23 11,34 34,34l168 0 0 820c0,23 11,34 34,34l59 0c24,0 34,-9 34,-34l0 -820 274 0c23,0 34,-11 34,-34l0 -49c0,-24 -6,-34 -34,-34l-274 0 0 -47c0,-100 19,-170 59,-206 38,-36 108,-55 212,-55 23,0 34,-11 34,-36l0 -49c0,-25 -6,-34 -34,-34l-15 0zm132 1043c0,236 136,381 410,381 195,0 329,-68 404,-204 15,-25 11,-42 -13,-55l-40 -21c-21,-11 -40,-8 -55,13 -59,104 -157,157 -296,157 -183,0 -283,-94 -283,-259l0 -110 654 0c38,0 57,-17 57,-53l0 -104c0,-236 -145,-391 -419,-391 -272,0 -417,147 -417,398l0 246zm710 -195l-584 0 0 -66c0,-172 102,-274 291,-274 191,0 293,102 293,274l0 66zm737 -449c-132,2 -246,23 -342,59 -55,25 -72,47 -72,106l0 801c0,23 11,34 34,34l60 0c23,0 34,-11 34,-34l0 -759c0,-24 11,-40 32,-49 72,-26 155,-40 249,-40l62 0c23,0 34,-11 34,-34l0 -49c0,-23 -11,-34 -34,-34l-59 0zm831 81c-57,-55 -138,-81 -244,-81 -111,0 -212,21 -302,60 -55,24 -72,49 -72,108l0 797c0,23 11,34 34,34l60 0c23,0 34,-11 34,-34l0 -759c0,-24 9,-42 30,-51 59,-24 125,-38 198,-38 161,0 240,83 240,248l0 601c0,25 9,34 34,34l59 0c28,0 34,-9 34,-34l0 -606c0,-72 -11,-130 -36,-178 81,-43 168,-64 257,-64 157,0 234,83 234,248l0 601c0,25 9,34 34,34l59 0c28,0 34,-9 34,-34l0 -606c0,-240 -115,-359 -346,-359 -108,0 -223,26 -342,81zm893 563c0,236 136,381 410,381 195,0 329,-68 404,-204 15,-25 11,-42 -13,-55l-40 -21c-21,-11 -40,-8 -55,13 -59,104 -157,157 -296,157 -183,0 -283,-94 -283,-259l0 -110 653 0c38,0 57,-17 57,-53l0 -104c0,-236 -145,-391 -419,-391 -272,0 -417,147 -417,398l0 246zm710 -195l-584 0 0 -66c0,-172 102,-274 291,-274 191,0 293,102 293,274l0 66zm737 -449c-132,2 -246,23 -342,59 -55,25 -72,47 -72,106l0 801c0,23 11,34 34,34l60 0c23,0 34,-11 34,-34l0 -759c0,-24 11,-40 32,-49 72,-26 155,-40 249,-40l62 0c23,0 34,-11 34,-34l0 -49c0,-23 -11,-34 -34,-34l-59 0zm151 -170c-15,9 -17,23 -4,40l15 21c8,11 23,11 45,2l272 -170c21,-8 23,-21 8,-40l-28 -34c-13,-19 -34,-21 -62,-4l-246 185zm138 198c-24,0 -34,9 -34,34l0 903c0,25 9,34 34,34l59 0c28,0 34,-9 34,-34l0 -903c0,-24 -6,-34 -34,-34l-59 0zm300 170c-11,25 -6,40 19,49l45 19c17,9 34,4 47,-15 51,-93 140,-138 264,-138 191,0 255,95 255,259l0 87c-113,-13 -196,-19 -247,-19 -300,0 -416,79 -416,293 0,100 28,174 87,221 59,49 164,72 321,72 134,0 238,-17 314,-49 53,-23 68,-42 68,-108l0 -495c0,-229 -98,-374 -378,-374 -183,0 -310,66 -380,198zm631 637c0,36 -6,42 -36,55 -57,21 -132,30 -229,30 -210,0 -268,-60 -268,-189 0,-130 74,-185 272,-185 60,0 147,6 261,17l0 272zm782 -637c-11,25 -6,40 19,49l45 19c17,9 34,4 47,-15 51,-93 140,-138 264,-138 191,0 255,95 255,259l0 87c-113,-13 -196,-19 -247,-19 -300,0 -416,79 -416,293 0,100 28,174 87,221 59,49 164,72 321,72 134,0 238,-17 314,-49 53,-23 68,-42 68,-108l0 -495c0,-229 -98,-374 -378,-374 -183,0 -310,66 -380,198zm631 637c0,36 -6,42 -36,55 -57,21 -132,30 -229,30 -210,0 -268,-60 -268,-189 0,-130 74,-185 272,-185 60,0 147,6 261,17l0 272zm774 -187c0,251 132,378 397,378 129,0 238,-19 327,-57 60,-25 74,-42 74,-102l0 -1232c0,-25 -9,-34 -34,-34l-59 0c-23,0 -34,11 -34,34l0 419c-106,-36 -206,-55 -298,-55 -249,0 -372,136 -372,378l0 270zm671 178c0,30 -6,36 -36,49 -66,25 -142,36 -227,36 -187,0 -281,-89 -281,-264l0 -264c0,-176 89,-264 268,-264 87,0 179,19 276,57l0 652zm344 -146c0,213 157,346 414,346 259,0 417,-128 417,-346l0 -332c0,-217 -159,-347 -417,-347 -257,0 -414,130 -414,347l0 332zm703 0c0,144 -110,230 -289,230 -174,0 -287,-87 -287,-230l0 -332c0,-143 111,-232 287,-232 179,0 289,89 289,232l0 332zm960 -599c-57,-55 -138,-81 -244,-81 -111,0 -212,21 -302,60 -55,24 -72,49 -72,108l0 797c0,23 11,34 34,34l60 0c23,0 34,-11 34,-34l0 -759c0,-24 9,-42 30,-51 59,-24 125,-38 198,-38 161,0 240,83 240,248l0 601c0,25 9,34 34,34l59 0c28,0 34,-9 34,-34l0 -606c0,-72 -11,-130 -36,-178 81,-43 168,-64 257,-64 157,0 234,83 234,248l0 601c0,25 9,34 34,34l59 0c28,0 34,-9 34,-34l0 -606c0,-240 -115,-359 -346,-359 -108,0 -223,26 -342,81zm988 -400c-53,0 -70,17 -70,70l0 13c0,53 17,70 70,70l11 0c53,0 70,-17 70,-70l0 -13c0,-53 -17,-70 -70,-70l-11 0zm-24 348c-23,0 -34,11 -34,34l0 903c0,23 11,34 34,34l60 0c23,0 34,-11 34,-34l0 -903c0,-23 -11,-34 -34,-34l-60 0zm312 625c0,234 140,372 404,372 213,0 348,-89 406,-264 9,-25 2,-40 -23,-49l-49 -15c-25,-6 -40,2 -49,23 -40,130 -134,194 -281,194 -181,0 -281,-96 -281,-257l0 -289c0,-161 98,-255 281,-255 159,0 240,57 280,185 9,23 24,30 47,23l49 -17c23,-9 30,-25 23,-49 -51,-170 -183,-255 -395,-255 -272,0 -412,138 -412,372l0 281zm1063 -973c-53,0 -70,17 -70,70l0 13c0,53 17,70 70,70l11 0c53,0 70,-17 70,-70l0 -13c0,-53 -17,-70 -70,-70l-11 0zm-24 348c-23,0 -34,11 -34,34l0 903c0,23 11,34 34,34l60 0c23,0 34,-11 34,-34l0 -903c0,-23 -11,-34 -34,-34l-60 0zm478 -393c0,-25 -6,-34 -34,-34l-59 0c-25,0 -34,9 -34,34l0 1330c0,25 9,34 34,34l59 0c28,0 34,-9 34,-34l0 -1330zm315 45c-53,0 -70,17 -70,70l0 13c0,53 17,70 70,70l11 0c53,0 70,-17 70,-70l0 -13c0,-53 -17,-70 -70,-70l-11 0zm-24 348c-23,0 -34,11 -34,34l0 903c0,23 11,34 34,34l60 0c23,0 34,-11 34,-34l0 -903c0,-23 -11,-34 -34,-34l-60 0zm313 652c0,213 157,346 414,346 259,0 417,-128 417,-346l0 -332c0,-217 -159,-347 -417,-347 -257,0 -414,130 -414,347l0 332zm703 0c0,144 -110,230 -289,230 -174,0 -287,-87 -287,-230l0 -332c0,-143 111,-232 287,-232 179,0 289,89 289,232l0 332z"/>
 </g>
</svg>
