<?xml version="1.0" encoding="UTF-8"?>
<!DOCTYPE svg PUBLIC "-//W3C//DTD SVG 1.1//EN" "http://www.w3.org/Graphics/SVG/1.1/DTD/svg11.dtd">
<!-- Creator: CorelDRAW 2018 (64-Bit) -->
<svg xmlns="http://www.w3.org/2000/svg" xml:space="preserve" width="4.53465in" height="3.7167in" version="1.1" style="shape-rendering:geometricPrecision; text-rendering:geometricPrecision; image-rendering:optimizeQuality; fill-rule:evenodd; clip-rule:evenodd"
viewBox="0 0 54832 44942"
 xmlns:xlink="http://www.w3.org/1999/xlink">
 <defs>
  <style type="text/css">
   <![CDATA[
    .fil0 {fill:#FEFEFE}
    .fil1 {fill:#FEFEFE;fill-rule:nonzero}
   ]]>
  </style>
 </defs>
 <g id="Layer_x0020_1">
  <metadata id="CorelCorpID_0Corel-Layer"/>
  <path class="fil0" d="M27416 0c4602,0 8332,3730 8332,8333 0,3730 -4111,10352 -6773,12727 -431,334 -972,532 -1559,532 -587,0 -1128,-199 -1559,-532 -2663,-2375 -6773,-8997 -6773,-12727 0,-4602 3730,-8333 8332,-8333zm3777 7769l0 1080c0,287 -235,521 -522,521l-2194 0 0 2194c0,287 -235,522 -521,522l-1080 0c-287,0 -521,-234 -521,-522l0 -2194 -2194 0c-287,0 -521,-235 -521,-521l0 -1080c0,-287 234,-521 521,-521l2194 0 0 -2194c0,-287 235,-521 521,-521l1080 0c287,0 521,235 521,521l0 2194 2194 0c287,0 522,235 522,521z"/>
  <path class="fil1" d="M0 35231c0,2602 1450,4072 4390,4072 2264,0 3734,-874 4429,-2642 179,-417 40,-715 -417,-894l-894 -258c-477,-159 -695,-79 -874,398 -338,914 -1073,1370 -2165,1370 -1410,0 -2165,-695 -2165,-1946l0 -2940c0,-1291 715,-1946 2165,-1946 1093,0 1827,437 2165,1331 179,477 397,596 874,417l874 -278c477,-179 596,-397 437,-894 -536,-1569 -2006,-2602 -4251,-2602 -3039,0 -4569,1470 -4569,4072l0 2741zm10406 -179c0,2602 1470,4251 4569,4251 2086,0 3516,-636 4290,-1907 298,-457 218,-775 -238,-993l-695 -378c-477,-258 -695,-218 -1013,238 -457,695 -1232,1053 -2344,1053 -1450,0 -2264,-695 -2264,-1986l0 -735 5999 0c596,0 894,-278 894,-854l0 -1212c0,-2403 -1569,-4112 -4588,-4112 -2999,0 -4608,1510 -4608,4290l0 2344zm6893 -2225l-4588 0 0 -437c0,-1291 815,-2026 2304,-2026 1510,0 2284,735 2284,2026l0 437zm4130 -1212c0,1013 358,1768 834,2185 238,218 556,397 934,536 774,298 1311,377 2244,477 1768,179 2384,397 2384,1271 0,775 -695,1172 -2105,1172 -1192,0 -1946,-357 -2245,-1093 -179,-457 -417,-536 -814,-377l-894 278c-417,139 -556,417 -397,834 616,1609 2105,2403 4429,2403 2761,0 4290,-1311 4290,-3317 0,-2225 -1351,-2940 -4052,-3198 -1728,-159 -2324,-357 -2324,-1231 0,-715 616,-1073 1867,-1073 1053,0 1768,338 2145,1033 258,417 377,457 834,278l894 -357c417,-199 536,-497 318,-894 -695,-1410 -2125,-2126 -4251,-2126 -2681,0 -4092,1232 -4092,3198zm11936 -5284c-457,0 -616,139 -616,596l0 1788 -1370 0c-457,0 -596,139 -596,596l0 914c0,457 139,616 596,616l1370 0 0 4072c0,1688 338,2860 1033,3496 675,636 1847,934 3516,874 477,-20 636,-159 636,-636l0 -914c0,-477 -159,-616 -636,-616 -874,0 -1470,-139 -1768,-437 -318,-298 -477,-914 -477,-1847l0 -3993 2264 0c457,0 616,-159 616,-616l0 -914c0,-457 -159,-596 -616,-596l-2264 0 0 -1788c0,-457 -159,-596 -616,-596l-1072 0zm10704 2085c-1490,40 -2721,239 -3694,596 -636,258 -774,497 -774,1132l0 8243c0,457 159,616 616,616l1093 0c457,0 596,-159 596,-616l0 -7389c0,-139 60,-218 198,-238 517,-159 1152,-238 1887,-238l715 0c457,0 616,-159 616,-616l0 -874c0,-477 -159,-616 -616,-616l-636 0zm2402 2066c-218,397 -99,695 338,894l794 337c457,159 556,119 854,-298 417,-636 1112,-953 2086,-953 1430,0 1986,675 1986,1966l0 556c-1132,-60 -1768,-99 -1907,-99 -3238,0 -4509,834 -4509,3198 0,1093 318,1907 953,2423 636,536 1788,794 3476,794 1589,0 2781,-179 3575,-516 556,-238 715,-437 715,-1132l0 -5144c0,-2721 -1410,-4092 -4251,-4092 -2026,0 -3396,695 -4112,2066zm6058 6475c0,139 -79,218 -219,278 -477,99 -1132,159 -1986,159 -1450,0 -1867,-437 -1867,-1331 0,-874 477,-1291 1907,-1291 60,0 775,40 2165,99l0 2086z"/>
  <path class="fil1" d="M10053 44189c0,466 268,753 809,753 384,0 648,-134 797,-402 30,-49 22,-82 -26,-108l-78 -41c-41,-22 -78,-15 -108,26 -115,205 -309,309 -585,309 -361,0 -559,-186 -559,-511l0 -216 1289 0c75,0 112,-33 112,-104l0 -205c0,-466 -287,-771 -827,-771 -537,0 -824,291 -824,786l0 485zm1401 -384l-1152 0 0 -130c0,-339 201,-541 574,-541 377,0 578,201 578,541l0 130zm779 -760c-115,49 -142,89 -142,205l0 1573c0,45 22,67 67,67l119 0c45,0 67,-22 67,-67l0 -1498c0,-45 19,-75 56,-93 153,-56 320,-82 496,-82 347,0 522,168 522,507l0 1166c0,49 19,67 67,67l116 0c45,0 67,-22 67,-67l0 -1174c0,-488 -246,-731 -742,-731 -257,0 -488,41 -693,127zm2829 -913c-537,11 -753,216 -753,749l0 93 -332 0c-48,0 -67,19 -67,67l0 97c0,45 22,67 67,67l332 0 0 1617c0,45 22,67 67,67l116 0c48,0 67,-19 67,-67l0 -1617 541 0c45,0 67,-22 67,-67l0 -97c0,-48 -11,-67 -67,-67l-541 0 0 -93c0,-197 37,-335 116,-406 74,-71 212,-108 417,-108 45,0 67,-22 67,-71l0 -97c0,-49 -11,-67 -67,-67l-30 0zm261 2057c0,466 268,753 809,753 384,0 648,-134 797,-402 30,-49 22,-82 -26,-108l-78 -41c-41,-22 -78,-15 -108,26 -115,205 -309,309 -585,309 -361,0 -559,-186 -559,-511l0 -216 1289 0c75,0 112,-33 112,-104l0 -205c0,-466 -287,-771 -827,-771 -537,0 -824,291 -824,786l0 485zm1401 -384l-1152 0 0 -130c0,-339 201,-541 574,-541 377,0 578,201 578,541l0 130zm1453 -887c-261,4 -485,45 -675,115 -108,49 -142,93 -142,209l0 1580c0,45 22,67 67,67l119 0c45,0 67,-22 67,-67l0 -1498c0,-48 22,-78 63,-97 141,-52 305,-78 492,-78l123 0c45,0 67,-22 67,-67l0 -97c0,-45 -22,-67 -67,-67l-115 0zm1640 160c-112,-108 -272,-160 -481,-160 -220,0 -418,41 -596,119 -108,48 -141,97 -141,212l0 1573c0,45 22,67 67,67l119 0c45,0 67,-22 67,-67l0 -1498c0,-48 19,-82 60,-101 116,-48 246,-75 391,-75 317,0 473,164 473,488l0 1185c0,49 19,67 67,67l115 0c56,0 67,-19 67,-67l0 -1196c0,-142 -23,-257 -71,-350 160,-86 332,-127 507,-127 309,0 462,164 462,488l0 1185c0,49 19,67 67,67l115 0c56,0 67,-19 67,-67l0 -1196c0,-473 -227,-708 -682,-708 -212,0 -440,52 -674,160zm1763 1111c0,466 268,753 809,753 384,0 648,-134 797,-402 30,-49 22,-82 -26,-108l-78 -41c-41,-22 -78,-15 -108,26 -115,205 -309,309 -585,309 -361,0 -559,-186 -559,-511l0 -216 1289 0c75,0 112,-33 112,-104l0 -205c0,-466 -287,-771 -827,-771 -537,0 -824,291 -824,786l0 485zm1401 -384l-1152 0 0 -130c0,-339 201,-541 574,-541 377,0 578,201 578,541l0 130zm1453 -887c-261,4 -485,45 -675,115 -108,49 -141,93 -141,209l0 1580c0,45 22,67 67,67l119 0c45,0 67,-22 67,-67l0 -1498c0,-48 22,-78 63,-97 142,-52 306,-78 492,-78l123 0c45,0 67,-22 67,-67l0 -97c0,-45 -22,-67 -67,-67l-115 0zm298 -335c-30,19 -33,45 -7,78l30 41c15,22 45,22 89,4l537 -335c41,-15 45,-41 15,-78l-56 -67c-26,-37 -67,-41 -123,-7l-485 365zm272 391c-48,0 -67,19 -67,67l0 1781c0,49 19,67 67,67l116 0c56,0 67,-19 67,-67l0 -1781c0,-48 -11,-67 -67,-67l-116 0zm593 335c-22,49 -11,78 37,97l89 37c33,19 67,7 93,-30 101,-183 276,-272 522,-272 377,0 503,186 503,511l0 171c-224,-26 -387,-37 -488,-37 -593,0 -820,157 -820,578 0,197 56,343 171,436 115,97 324,141 633,141 265,0 470,-33 619,-97 104,-45 134,-82 134,-213l0 -976c0,-451 -194,-738 -745,-738 -361,0 -611,131 -749,391zm1245 1256c0,71 -11,82 -71,108 -112,41 -261,60 -451,60 -414,0 -529,-119 -529,-373 0,-257 145,-365 536,-365 119,0 291,11 514,34l0 537zm1543 -1256c-23,49 -11,78 37,97l89 37c33,19 67,7 93,-30 101,-183 276,-272 522,-272 377,0 503,186 503,511l0 171c-224,-26 -388,-37 -488,-37 -593,0 -820,157 -820,578 0,197 56,343 171,436 115,97 324,141 633,141 265,0 470,-33 619,-97 104,-45 134,-82 134,-213l0 -976c0,-451 -194,-738 -745,-738 -361,0 -611,131 -749,391zm1245 1256c0,71 -11,82 -71,108 -112,41 -261,60 -451,60 -414,0 -529,-119 -529,-373 0,-257 145,-365 536,-365 119,0 291,11 514,34l0 537zm1528 -369c0,496 261,745 783,745 254,0 470,-37 645,-112 119,-49 145,-82 145,-201l0 -2430c0,-49 -18,-67 -67,-67l-115 0c-45,0 -67,22 -67,67l0 827c-209,-71 -406,-108 -589,-108 -492,0 -734,268 -734,745l0 533zm1323 350c0,60 -11,71 -71,97 -131,49 -280,71 -447,71 -369,0 -555,-175 -555,-522l0 -522c0,-347 175,-522 529,-522 171,0 354,37 544,112l0 1286zm678 -287c0,421 309,682 816,682 511,0 824,-253 824,-682l0 -656c0,-428 -313,-686 -824,-686 -507,0 -816,257 -816,686l0 656zm1387 0c0,283 -216,455 -570,455 -343,0 -567,-171 -567,-455l0 -656c0,-283 220,-458 567,-458 354,0 570,175 570,458l0 656zm1893 -1181c-112,-108 -272,-160 -481,-160 -220,0 -418,41 -596,119 -108,48 -142,97 -142,212l0 1573c0,45 22,67 67,67l119 0c45,0 67,-22 67,-67l0 -1498c0,-48 19,-82 60,-101 116,-48 246,-75 391,-75 317,0 473,164 473,488l0 1185c0,49 19,67 67,67l115 0c56,0 67,-19 67,-67l0 -1196c0,-142 -22,-257 -71,-350 160,-86 332,-127 507,-127 309,0 462,164 462,488l0 1185c0,49 19,67 67,67l115 0c56,0 67,-19 67,-67l0 -1196c0,-473 -227,-708 -682,-708 -212,0 -440,52 -674,160zm1949 -790c-104,0 -138,33 -138,138l0 26c0,104 34,138 138,138l22 0c104,0 138,-33 138,-138l0 -26c0,-104 -34,-138 -138,-138l-22 0zm-48 686c-45,0 -67,22 -67,67l0 1781c0,45 22,67 67,67l119 0c45,0 67,-22 67,-67l0 -1781c0,-45 -22,-67 -67,-67l-119 0zm615 1234c0,462 276,734 797,734 421,0 686,-175 801,-522 19,-49 4,-78 -45,-97l-97 -30c-49,-11 -78,4 -97,45 -78,257 -265,384 -555,384 -358,0 -555,-190 -555,-507l0 -570c0,-317 194,-503 555,-503 313,0 473,112 552,365 19,45 48,60 93,45l97 -33c45,-19 60,-49 45,-97 -101,-336 -361,-503 -779,-503 -537,0 -813,272 -813,734l0 555zm2098 -1919c-104,0 -138,33 -138,138l0 26c0,104 34,138 138,138l22 0c104,0 138,-33 138,-138l0 -26c0,-104 -34,-138 -138,-138l-22 0zm-48 686c-45,0 -67,22 -67,67l0 1781c0,45 22,67 67,67l119 0c45,0 67,-22 67,-67l0 -1781c0,-45 -22,-67 -67,-67l-119 0zm943 -775c0,-49 -11,-67 -67,-67l-115 0c-49,0 -67,19 -67,67l0 2624c0,49 19,67 67,67l115 0c56,0 67,-19 67,-67l0 -2624zm622 89c-104,0 -138,33 -138,138l0 26c0,104 34,138 138,138l22 0c104,0 138,-33 138,-138l0 -26c0,-104 -34,-138 -138,-138l-22 0zm-48 686c-45,0 -67,22 -67,67l0 1781c0,45 22,67 67,67l119 0c45,0 67,-22 67,-67l0 -1781c0,-45 -22,-67 -67,-67l-119 0zm618 1286c0,421 309,682 816,682 511,0 824,-253 824,-682l0 -656c0,-428 -313,-686 -824,-686 -507,0 -816,257 -816,686l0 656zm1387 0c0,283 -216,455 -570,455 -343,0 -567,-171 -567,-455l0 -656c0,-283 220,-458 567,-458 354,0 570,175 570,458l0 656z"/>
 </g>
</svg>
