<?xml version="1.0" encoding="UTF-8"?>
<!DOCTYPE svg PUBLIC "-//W3C//DTD SVG 1.1//EN" "http://www.w3.org/Graphics/SVG/1.1/DTD/svg11.dtd">
<!-- Creator: CorelDRAW 2018 (64-Bit) -->
<svg xmlns="http://www.w3.org/2000/svg" xml:space="preserve" width="4.53465in" height="3.7167in" version="1.1" style="shape-rendering:geometricPrecision; text-rendering:geometricPrecision; image-rendering:optimizeQuality; fill-rule:evenodd; clip-rule:evenodd"
viewBox="0 0 36885 30232"
 xmlns:xlink="http://www.w3.org/1999/xlink">
 <defs>
  <style type="text/css">
   <![CDATA[
    .fil0 {fill:#55CEE0}
    .fil1 {fill:#55CEE0;fill-rule:nonzero}
   ]]>
  </style>
 </defs>
 <g id="Layer_x0020_1">
  <metadata id="CorelCorpID_0Corel-Layer"/>
  <path class="fil0" d="M18443 0c3096,0 5605,2509 5605,5605 0,2509 -2765,6964 -4556,8561 -290,224 -654,358 -1049,358 -395,0 -759,-134 -1049,-358 -1791,-1598 -4556,-6052 -4556,-8561 0,-3096 2509,-5605 5605,-5605zm2541 5226l0 726c0,193 -158,351 -351,351l-1476 0 0 1476c0,193 -158,351 -351,351l-726 0c-193,0 -351,-158 -351,-351l0 -1476 -1476 0c-193,0 -351,-158 -351,-351l0 -726c0,-193 158,-351 351,-351l1476 0 0 -1476c0,-193 158,-351 351,-351l726 0c193,0 351,158 351,351l0 1476 1476 0c193,0 351,158 351,351z"/>
  <path class="fil1" d="M0 23699c0,1750 975,2739 2953,2739 1523,0 2512,-588 2980,-1777 120,-281 27,-481 -281,-601l-601 -174c-321,-107 -468,-53 -588,267 -227,615 -721,922 -1456,922 -949,0 -1456,-468 -1456,-1309l0 -1978c0,-868 481,-1309 1456,-1309 735,0 1229,294 1456,895 120,321 267,401 588,281l588 -187c321,-120 401,-267 294,-601 -361,-1056 -1350,-1750 -2859,-1750 -2044,0 -3073,989 -3073,2739l0 1844zm7000 -120c0,1750 989,2859 3073,2859 1403,0 2365,-428 2886,-1283 200,-307 147,-521 -160,-668l-468 -254c-321,-174 -468,-147 -682,160 -307,468 -828,708 -1577,708 -975,0 -1523,-468 -1523,-1336l0 -494 4035 0c401,0 601,-187 601,-575l0 -815c0,-1617 -1056,-2766 -3087,-2766 -2017,0 -3100,1016 -3100,2886l0 1577zm4637 -1497l-3087 0 0 -294c0,-868 548,-1363 1550,-1363 1016,0 1537,494 1537,1363l0 294zm2778 -815c0,681 241,1189 561,1470 160,147 374,267 628,361 521,200 882,254 1510,321 1189,120 1603,267 1603,855 0,521 -468,788 -1416,788 -802,0 -1309,-240 -1510,-735 -120,-307 -281,-361 -548,-254l-601 187c-281,93 -374,281 -267,561 414,1082 1416,1617 2980,1617 1857,0 2886,-882 2886,-2231 0,-1496 -909,-1978 -2726,-2151 -1162,-107 -1563,-240 -1563,-828 0,-481 414,-722 1256,-722 708,0 1189,227 1443,695 174,281 254,307 561,187l601 -240c281,-134 361,-334 214,-601 -468,-949 -1430,-1430 -2859,-1430 -1804,0 -2752,829 -2752,2151zm8029 -3554c-307,0 -414,93 -414,401l0 1202 -922 0c-307,0 -401,93 -401,401l0 615c0,307 93,414 401,414l922 0 0 2739c0,1136 227,1924 695,2352 454,428 1243,628 2365,588 321,-13 428,-107 428,-428l0 -615c0,-321 -107,-414 -428,-414 -588,0 -989,-93 -1189,-294 -214,-200 -321,-615 -321,-1243l0 -2686 1523 0c307,0 414,-107 414,-414l0 -615c0,-307 -107,-401 -414,-401l-1523 0 0 -1202c0,-307 -107,-401 -414,-401l-721 0zm7200 1403c-1002,27 -1831,161 -2485,401 -428,174 -521,334 -521,762l0 5545c0,307 107,414 414,414l735 0c307,0 401,-107 401,-414l0 -4970c0,-93 40,-147 134,-160 347,-107 775,-160 1269,-160l481 0c307,0 414,-107 414,-414l0 -588c0,-321 -107,-414 -414,-414l-428 0zm1616 1390c-147,267 -67,468 227,601l534 227c307,107 374,80 575,-200 281,-428 748,-641 1403,-641 962,0 1336,454 1336,1323l0 374c-762,-40 -1189,-67 -1283,-67 -2178,0 -3033,561 -3033,2151 0,735 214,1283 641,1630 428,361 1202,534 2338,534 1069,0 1871,-120 2405,-347 374,-160 481,-294 481,-762l0 -3461c0,-1831 -949,-2753 -2859,-2753 -1363,0 -2285,468 -2766,1390zm4075 4356c0,93 -53,147 -147,187 -321,67 -762,107 -1336,107 -975,0 -1256,-294 -1256,-895 0,-588 321,-869 1283,-869 40,0 521,27 1456,67l0 1403z"/>
  <path class="fil1" d="M6762 29726c0,313 180,506 544,506 258,0 436,-90 536,-271 20,-33 15,-55 -18,-73l-53 -27c-28,-15 -53,-10 -73,18 -78,138 -208,208 -393,208 -243,0 -376,-125 -376,-343l0 -145 867 0c50,0 75,-23 75,-70l0 -138c0,-313 -193,-519 -557,-519 -361,0 -554,196 -554,529l0 326zm943 -258l-775 0 0 -88c0,-228 135,-364 386,-364 253,0 389,135 389,364l0 88zm524 -511c-78,33 -95,60 -95,138l0 1058c0,30 15,45 45,45l80 0c30,0 45,-15 45,-45l0 -1008c0,-30 13,-50 38,-63 103,-37 215,-55 333,-55 233,0 351,113 351,341l0 785c0,33 13,45 45,45l78 0c30,0 45,-15 45,-45l0 -790c0,-329 -165,-491 -499,-491 -173,0 -328,28 -466,85zm1903 -614c-361,8 -506,146 -506,504l0 63 -223 0c-32,0 -45,13 -45,45l0 65c0,30 15,45 45,45l223 0 0 1088c0,30 15,45 45,45l78 0c32,0 45,-13 45,-45l0 -1088 364 0c30,0 45,-15 45,-45l0 -65c0,-32 -8,-45 -45,-45l-364 0 0 -63c0,-133 25,-226 78,-273 50,-48 143,-73 281,-73 30,0 45,-15 45,-48l0 -65c0,-33 -7,-45 -45,-45l-20 0zm176 1384c0,313 180,506 544,506 258,0 436,-90 536,-271 20,-33 15,-55 -18,-73l-53 -27c-28,-15 -53,-10 -73,18 -78,138 -208,208 -394,208 -243,0 -376,-125 -376,-343l0 -145 867 0c50,0 75,-23 75,-70l0 -138c0,-313 -193,-519 -557,-519 -361,0 -554,196 -554,529l0 326zm943 -258l-775 0 0 -88c0,-228 135,-364 386,-364 253,0 389,135 389,364l0 88zm978 -597c-175,2 -326,30 -454,78 -73,33 -95,63 -95,140l0 1063c0,30 15,45 45,45l80 0c30,0 45,-15 45,-45l0 -1008c0,-33 15,-53 43,-65 95,-35 205,-53 331,-53l83 0c30,0 45,-15 45,-45l0 -65c0,-30 -15,-45 -45,-45l-78 0zm1103 108c-75,-73 -183,-108 -323,-108 -148,0 -281,28 -401,80 -73,32 -95,65 -95,143l0 1058c0,30 15,45 45,45l80 0c30,0 45,-15 45,-45l0 -1008c0,-33 13,-55 40,-68 78,-32 165,-50 263,-50 213,0 318,110 318,329l0 797c0,33 13,45 45,45l78 0c38,0 45,-13 45,-45l0 -805c0,-95 -15,-173 -48,-236 108,-58 223,-85 341,-85 208,0 311,110 311,329l0 797c0,33 13,45 45,45l78 0c38,0 45,-13 45,-45l0 -805c0,-318 -153,-476 -459,-476 -143,0 -296,35 -454,108zm1186 747c0,313 180,506 544,506 258,0 436,-90 536,-271 20,-33 15,-55 -18,-73l-53 -27c-27,-15 -53,-10 -73,18 -78,138 -208,208 -394,208 -243,0 -376,-125 -376,-343l0 -145 867 0c50,0 75,-23 75,-70l0 -138c0,-313 -193,-519 -557,-519 -361,0 -554,196 -554,529l0 326zm943 -258l-775 0 0 -88c0,-228 135,-364 386,-364 253,0 389,135 389,364l0 88zm978 -597c-175,2 -326,30 -454,78 -73,33 -95,63 -95,140l0 1063c0,30 15,45 45,45l80 0c30,0 45,-15 45,-45l0 -1008c0,-33 15,-53 43,-65 95,-35 205,-53 331,-53l83 0c30,0 45,-15 45,-45l0 -65c0,-30 -15,-45 -45,-45l-78 0zm201 -226c-20,13 -23,30 -5,53l20 28c10,15 30,15 60,2l361 -226c28,-10 30,-28 10,-53l-37 -45c-18,-25 -45,-27 -83,-5l-326 246zm183 263c-32,0 -45,13 -45,45l0 1198c0,33 13,45 45,45l78 0c38,0 45,-13 45,-45l0 -1198c0,-32 -7,-45 -45,-45l-78 0zm399 226c-15,33 -8,53 25,65l60 25c23,13 45,5 63,-20 68,-123 185,-183 351,-183 253,0 339,125 339,343l0 115c-150,-18 -261,-25 -328,-25 -399,0 -552,105 -552,389 0,133 38,231 115,293 78,65 218,95 426,95 178,0 316,-22 416,-65 70,-30 90,-55 90,-143l0 -657c0,-303 -130,-496 -501,-496 -243,0 -411,88 -504,263zm837 845c0,48 -8,55 -48,73 -75,28 -176,40 -303,40 -278,0 -356,-80 -356,-251 0,-173 98,-246 361,-246 80,0 196,8 346,23l0 361zm1038 -845c-15,33 -8,53 25,65l60 25c23,13 45,5 63,-20 68,-123 185,-183 351,-183 253,0 338,125 338,343l0 115c-150,-18 -261,-25 -328,-25 -399,0 -552,105 -552,389 0,133 38,231 115,293 78,65 218,95 426,95 178,0 316,-22 416,-65 70,-30 90,-55 90,-143l0 -657c0,-303 -130,-496 -501,-496 -243,0 -411,88 -504,263zm837 845c0,48 -8,55 -48,73 -75,28 -176,40 -303,40 -278,0 -356,-80 -356,-251 0,-173 98,-246 361,-246 80,0 196,8 346,23l0 361zm1028 -248c0,334 176,501 526,501 171,0 316,-25 434,-75 80,-33 98,-55 98,-135l0 -1635c0,-33 -12,-45 -45,-45l-78 0c-30,0 -45,15 -45,45l0 557c-140,-48 -273,-73 -396,-73 -331,0 -494,180 -494,501l0 358zm890 236c0,40 -8,48 -48,65 -88,33 -188,48 -301,48 -248,0 -374,-118 -374,-351l0 -351c0,-233 118,-351 356,-351 115,0 238,25 366,75l0 865zm456 -193c0,283 208,459 549,459 343,0 554,-170 554,-459l0 -441c0,-288 -211,-461 -554,-461 -341,0 -549,173 -549,461l0 441zm933 0c0,191 -145,306 -384,306 -231,0 -381,-115 -381,-306l0 -441c0,-190 148,-308 381,-308 238,0 384,118 384,308l0 441zm1274 -795c-75,-73 -183,-108 -323,-108 -148,0 -281,28 -401,80 -73,32 -95,65 -95,143l0 1058c0,30 15,45 45,45l80 0c30,0 45,-15 45,-45l0 -1008c0,-33 13,-55 40,-68 78,-32 165,-50 263,-50 213,0 318,110 318,329l0 797c0,33 13,45 45,45l78 0c38,0 45,-13 45,-45l0 -805c0,-95 -15,-173 -48,-236 108,-58 223,-85 341,-85 208,0 311,110 311,329l0 797c0,33 13,45 45,45l78 0c38,0 45,-13 45,-45l0 -805c0,-318 -153,-476 -459,-476 -143,0 -296,35 -454,108zm1311 -531c-70,0 -93,23 -93,93l0 18c0,70 23,93 93,93l15 0c70,0 93,-22 93,-93l0 -18c0,-70 -23,-93 -93,-93l-15 0zm-32 461c-30,0 -45,15 -45,45l0 1198c0,30 15,45 45,45l80 0c30,0 45,-15 45,-45l0 -1198c0,-30 -15,-45 -45,-45l-80 0zm414 830c0,311 186,494 536,494 283,0 461,-118 539,-351 13,-33 3,-53 -30,-65l-65 -20c-33,-8 -53,2 -65,30 -53,173 -178,258 -374,258 -241,0 -374,-128 -374,-341l0 -384c0,-213 130,-339 374,-339 211,0 318,75 371,246 13,30 32,40 63,30l65 -23c30,-13 40,-33 30,-65 -68,-226 -243,-339 -524,-339 -361,0 -547,183 -547,494l0 374zm1411 -1291c-70,0 -93,23 -93,93l0 18c0,70 23,93 93,93l15 0c70,0 93,-22 93,-93l0 -18c0,-70 -23,-93 -93,-93l-15 0zm-32 461c-30,0 -45,15 -45,45l0 1198c0,30 15,45 45,45l80 0c30,0 45,-15 45,-45l0 -1198c0,-30 -15,-45 -45,-45l-80 0zm634 -522c0,-33 -8,-45 -45,-45l-78 0c-33,0 -45,13 -45,45l0 1765c0,33 13,45 45,45l78 0c38,0 45,-13 45,-45l0 -1765zm419 60c-70,0 -93,23 -93,93l0 18c0,70 23,93 93,93l15 0c70,0 93,-22 93,-93l0 -18c0,-70 -23,-93 -93,-93l-15 0zm-33 461c-30,0 -45,15 -45,45l0 1198c0,30 15,45 45,45l80 0c30,0 45,-15 45,-45l0 -1198c0,-30 -15,-45 -45,-45l-80 0zm416 865c0,283 208,459 549,459 343,0 554,-170 554,-459l0 -441c0,-288 -210,-461 -554,-461 -341,0 -549,173 -549,461l0 441zm933 0c0,191 -145,306 -384,306 -231,0 -381,-115 -381,-306l0 -441c0,-190 148,-308 381,-308 238,0 384,118 384,308l0 441z"/>
 </g>
</svg>
