<?xml version="1.0" encoding="UTF-8"?>
<!DOCTYPE svg PUBLIC "-//W3C//DTD SVG 1.1//EN" "http://www.w3.org/Graphics/SVG/1.1/DTD/svg11.dtd">
<!-- Creator: CorelDRAW 2018 (64-Bit) -->
<svg xmlns="http://www.w3.org/2000/svg" xml:space="preserve" width="2.4282in" height="0.635492in" version="1.1" style="shape-rendering:geometricPrecision; text-rendering:geometricPrecision; image-rendering:optimizeQuality; fill-rule:evenodd; clip-rule:evenodd"
viewBox="0 0 137.68 36.03"
 xmlns:xlink="http://www.w3.org/1999/xlink">
 <defs>
  <style type="text/css">
   <![CDATA[
    .str3 {stroke:#317EC0;stroke-width:0.14;stroke-miterlimit:10}
    .str2 {stroke:#A9FF29;stroke-width:0.21;stroke-miterlimit:10}
    .str0 {stroke:#A9FF29;stroke-width:0.44;stroke-miterlimit:10}
    .str1 {stroke:#317EC0;stroke-width:0.29;stroke-miterlimit:10}
    .fil16 {fill:none}
    .fil19 {fill:none;fill-rule:nonzero}
    .fil3 {fill:#0052B4}
    .fil23 {fill:#0C73A2}
    .fil8 {fill:#285680}
    .fil15 {fill:#35495E}
    .fil13 {fill:#4482C3}
    .fil14 {fill:#457BA3}
    .fil9 {fill:#95A5A5}
    .fil1 {fill:#979797}
    .fil0 {fill:#B3B3B3}
    .fil11 {fill:#BDC3C7}
    .fil5 {fill:#C7C7C7}
    .fil4 {fill:#D80027}
    .fil7 {fill:#E6E7E8}
    .fil2 {fill:#F0F0F0}
    .fil6 {fill:#FFDA44}
    .fil10 {fill:white}
    .fil18 {fill:#448AC9;fill-rule:nonzero}
    .fil17 {fill:#3789C8;fill-rule:nonzero}
    .fil20 {fill:#255B86;fill-rule:nonzero}
    .fil21 {fill:#242C37;fill-rule:nonzero}
    .fil22 {fill:#8EE014;fill-rule:nonzero}
    .fil12 {fill:white;fill-rule:nonzero}
   ]]>
  </style>
 </defs>
 <g id="Layer_x0020_1">
  <metadata id="CorelCorpID_0Corel-Layer"/>
  <path class="fil0" d="M68.48 12.15c-1.36,-2.66 -4.1,-4.54 -7.32,-4.54l0 4.16c2.27,0 4.12,1.79 4.12,4.07 0,2.25 -1.87,4.18 -4.12,4.18l0 8.59c2.9,-3.02 6.23,-6.34 7.69,-10.31 0.73,-1.99 0.59,-4.27 -0.37,-6.15z"/>
  <path class="fil1" d="M53.47 18.3c1.46,3.97 4.79,7.29 7.69,10.31l0 -8.59c-2.26,-0 -4.13,-1.94 -4.13,-4.18 0,-2.27 1.85,-4.07 4.13,-4.07l0 -4.16c-3.21,0 -5.95,1.88 -7.32,4.54 -0.97,1.88 -1.1,4.16 -0.37,6.15z"/>
  <path class="fil2" d="M67.72 15.76c0,-3.62 -2.94,-6.56 -6.56,-6.56 -3.62,0 -6.56,2.94 -6.56,6.56 0,3.62 2.94,6.56 6.56,6.56 3.62,0 6.56,-2.94 6.56,-6.56z"/>
  <path class="fil3" d="M54.6 15.76c0,3.62 2.94,6.56 6.56,6.56 0,-2.5 0,-6.56 0,-6.56 0,0 -4.28,0 -6.56,0z"/>
  <path class="fil4" d="M61.16 9.2c3.62,0 6.56,2.94 6.56,6.56 -2.49,0 -6.56,0 -6.56,0 0,0 0,-4.28 0,-6.56z"/>
  <polygon class="fil3" points="58.5,11.48 58.93,12.79 60.3,12.79 59.19,13.6 59.62,14.91 58.5,14.1 57.39,14.91 57.82,13.6 56.7,12.79 58.08,12.79 "/>
  <polygon class="fil4" points="63.81,16.62 64.24,17.93 65.61,17.93 64.5,18.73 64.93,20.04 63.81,19.23 62.7,20.04 63.13,18.73 62.01,17.93 63.39,17.93 "/>
  <path class="fil5" d="M61.16 8.5c-3.02,0 -5.8,1.95 -6.83,4.79 -1.04,2.86 -0.13,6.14 2.21,8.08 2.35,1.94 5.76,2.2 8.36,0.62 2.61,-1.58 3.99,-4.7 3.37,-7.69 -0.6,-2.93 -3.04,-5.25 -5.99,-5.71 -0.37,-0.06 -0.75,-0.09 -1.13,-0.09zm5.85 9.9c-1.24,2.75 -4.34,4.3 -7.28,3.63 -2.26,-0.52 -4.12,-2.29 -4.75,-4.52 -0.65,-2.28 0.05,-4.79 1.78,-6.41 1.87,-1.76 4.68,-2.24 7.02,-1.18 2.8,1.26 4.35,4.43 3.59,7.42 -0.09,0.37 -0.22,0.73 -0.37,1.07 -0.09,0.19 0.06,-0.14 0,0z"/>
  <path class="fil0" d="M136.85 12.15c-1.36,-2.65 -4.1,-4.53 -7.31,-4.53l0 4.15c2.27,0 4.12,1.79 4.12,4.06 0,2.25 -1.86,4.18 -4.12,4.18l0 8.58c2.89,-3.02 6.23,-6.33 7.68,-10.3 0.73,-1.99 0.59,-4.26 -0.37,-6.14z"/>
  <path class="fil1" d="M121.85 18.3c1.46,3.97 4.79,7.29 7.68,10.3l0 -8.58c-2.26,-0 -4.12,-1.94 -4.12,-4.18 0,-2.27 1.85,-4.06 4.12,-4.06l0 -4.15c-3.21,0 -5.95,1.88 -7.31,4.53 -0.97,1.88 -1.1,4.16 -0.37,6.14z"/>
  <path class="fil3" d="M135.44 18.61c0.42,-0.86 0.65,-1.83 0.65,-2.85 0,-1.02 -0.23,-1.99 -0.65,-2.85l-5.91 -0.57 -5.91 0.57c-0.42,0.86 -0.65,1.83 -0.65,2.85 0,1.02 0.23,1.99 0.65,2.85l5.91 0.57 5.91 -0.57z"/>
  <path class="fil4" d="M129.53 22.32c2.6,0 4.85,-1.51 5.91,-3.71l-11.81 0c1.06,2.19 3.31,3.71 5.91,3.71z"/>
  <polygon class="fil2" points="134.33,17.05 133.99,17.32 134.14,17.73 133.77,17.49 133.43,17.76 133.55,17.34 133.18,17.09 133.62,17.08 133.74,16.65 133.89,17.07 "/>
  <polygon class="fil2" points="133.45,15.51 133.21,15.89 133.5,16.22 133.07,16.12 132.84,16.49 132.81,16.05 132.38,15.95 132.79,15.78 132.76,15.34 133.04,15.68 "/>
  <polygon class="fil2" points="132.09,14.37 132,14.8 132.38,15.02 131.94,15.07 131.85,15.5 131.67,15.1 131.23,15.14 131.56,14.85 131.38,14.45 131.76,14.67 "/>
  <polygon class="fil2" points="130.42,13.77 130.48,14.2 130.92,14.28 130.52,14.47 130.58,14.91 130.28,14.59 129.88,14.78 130.09,14.4 129.78,14.08 130.22,14.16 "/>
  <polygon class="fil2" points="128.65,13.77 128.85,14.16 129.29,14.08 128.98,14.4 129.19,14.78 128.79,14.59 128.49,14.91 128.55,14.47 128.15,14.28 128.59,14.2 "/>
  <polygon class="fil2" points="126.98,14.37 127.31,14.67 127.69,14.45 127.51,14.85 127.84,15.14 127.4,15.1 127.22,15.5 127.13,15.07 126.69,15.02 127.07,14.8 "/>
  <polygon class="fil2" points="125.62,15.51 126.03,15.68 126.31,15.34 126.28,15.78 126.69,15.95 126.26,16.05 126.23,16.49 126,16.12 125.57,16.22 125.86,15.89 "/>
  <polygon class="fil2" points="124.74,17.05 125.18,17.07 125.33,16.65 125.45,17.08 125.89,17.09 125.52,17.34 125.64,17.76 125.3,17.49 124.93,17.73 125.08,17.32 "/>
  <path class="fil6" d="M135.44 12.91c-1.06,-2.19 -3.31,-3.71 -5.91,-3.71 -2.6,0 -4.85,1.51 -5.91,3.71l11.81 0z"/>
  <path class="fil5" d="M129.53 8.51c-3.02,0 -5.8,1.95 -6.83,4.79 -1.04,2.86 -0.13,6.14 2.21,8.08 2.35,1.94 5.75,2.2 8.36,0.62 2.61,-1.58 3.98,-4.7 3.37,-7.69 -0.6,-2.93 -3.03,-5.25 -5.99,-5.71 -0.37,-0.06 -0.75,-0.09 -1.13,-0.09zm5.85 9.9c-1.24,2.75 -4.33,4.29 -7.27,3.62 -2.26,-0.52 -4.11,-2.28 -4.74,-4.52 -0.65,-2.28 0.05,-4.79 1.78,-6.41 1.87,-1.76 4.68,-2.24 7.02,-1.18 2.8,1.26 4.34,4.43 3.59,7.41 -0.09,0.37 -0.22,0.73 -0.37,1.07 -0.09,0.19 0.06,-0.14 0,0z"/>
  <path class="fil7" d="M95.84 15.38l-7.72 2.9c0,0 -0.46,2.93 3.26,6.52l4.56 0 4.56 0c3.72,-3.58 3.26,-6.52 3.26,-6.52l-7.72 -2.9c-0.06,-0.02 -0.13,-0.02 -0.2,0z"/>
  <path class="fil8" d="M97.57 12.73l-3.26 0 0 -3.52c0,-0.4 0.32,-0.72 0.72,-0.72l1.83 0c0.4,0 0.72,0.32 0.72,0.72l0 3.52z"/>
  <path class="fil9" d="M95.84 15.38c0.06,-0.02 0.13,-0.02 0.2,0l6.09 2.28 0 -4.32c0,-0.34 -0.27,-0.61 -0.61,-0.61l-11.16 0c-0.34,0 -0.61,0.27 -0.61,0.61l0 4.32 6.09 -2.28z"/>
  <path class="fil10" d="M100.17 14.36l-0.65 0c-0.18,0 -0.33,-0.15 -0.33,-0.33 0,-0.18 0.15,-0.33 0.33,-0.33l0.65 0c0.18,0 0.33,0.15 0.33,0.33 0,0.18 -0.15,0.33 -0.33,0.33zm-1.63 0l-0.65 0c-0.18,0 -0.33,-0.15 -0.33,-0.33 0,-0.18 0.15,-0.33 0.33,-0.33l0.65 0c0.18,0 0.33,0.15 0.33,0.33 0,0.18 -0.15,0.33 -0.33,0.33zm-1.63 0l-0.65 0c-0.18,0 -0.33,-0.15 -0.33,-0.33 0,-0.18 0.15,-0.33 0.33,-0.33l0.65 0c0.18,0 0.33,0.15 0.33,0.33 0,0.18 -0.15,0.33 -0.33,0.33zm-1.63 0l-0.65 0c-0.18,0 -0.33,-0.15 -0.33,-0.33 0,-0.18 0.15,-0.33 0.33,-0.33l0.65 0c0.18,0 0.33,0.15 0.33,0.33 0,0.18 -0.15,0.33 -0.33,0.33zm-1.63 0l-0.65 0c-0.18,0 -0.33,-0.15 -0.33,-0.33 0,-0.18 0.15,-0.33 0.33,-0.33l0.65 0c0.18,0 0.33,0.15 0.33,0.33 0,0.18 -0.15,0.33 -0.33,0.33zm-1.63 0l-0.65 0c-0.18,0 -0.33,-0.15 -0.33,-0.33 0,-0.18 0.15,-0.33 0.33,-0.33l0.65 0c0.18,0 0.33,0.15 0.33,0.33 0,0.18 -0.15,0.33 -0.33,0.33z"/>
  <path class="fil11" d="M95.84 15.38l-7.72 2.9c0,0 -0.46,2.93 3.26,6.52l4.56 0 0 -9.43c-0.03,0 -0.07,0.01 -0.1,0.02z"/>
  <path class="fil12" d="M89.86 19.55c-0.17,0.06 -0.36,-0.02 -0.42,-0.19 -0.06,-0.17 0.03,-0.36 0.19,-0.42l6.19 -2.28 0.23 0 5.86 2.28c0.17,0.06 0.25,0.25 0.19,0.42 -0.06,0.17 -0.25,0.25 -0.42,0.19l-5.75 -2.24 -6.08 2.24z"/>
  <path class="fil13" d="M98.54 24.79l-5.21 0 0.6 -4.23c0.03,-0.19 0.19,-0.33 0.38,-0.33l3.25 0c0.19,0 0.35,0.14 0.38,0.33l0.6 4.23z"/>
  <path class="fil14" d="M96.85 8.5l-0.91 0 0 4.24 1.63 0 0 -3.52c0,-0.4 -0.32,-0.72 -0.72,-0.72z"/>
  <path class="fil15" d="M95.94 20.23l-1.62 0c-0.19,0 -0.35,0.14 -0.38,0.33l-0.6 4.23 2.61 0 0 -4.56z"/>
  <path class="fil8" d="M104.41 24.46l-17.59 0c-0.18,0 -0.33,0.15 -0.33,0.33 0,0.18 0.15,0.33 0.33,0.33l17.59 0c0.18,0 0.33,-0.15 0.33,-0.33 0,-0.18 -0.15,-0.33 -0.33,-0.33z"/>
  <path class="fil8" d="M100.82 25.77l-9.45 0c-0.18,0 -0.33,0.15 -0.33,0.33 0,0.18 0.15,0.33 0.33,0.33l9.45 0c0.18,0 0.33,-0.15 0.33,-0.33 0,-0.18 -0.15,-0.33 -0.33,-0.33z"/>
  <path class="fil8" d="M98.22 27.07l-4.56 0c-0.18,0 -0.33,0.15 -0.33,0.33 0,0.18 0.15,0.33 0.33,0.33l4.56 0c0.18,0 0.33,-0.15 0.33,-0.33 0,-0.18 -0.15,-0.33 -0.33,-0.33z"/>
  <path class="fil16 str0" d="M22.19 21.33l2.1 0c0.48,0 0.86,0.39 0.86,0.86l0 1.23c0,0.48 0.39,0.86 0.86,0.86l4.65 0"/>
  <path class="fil16 str0" d="M22.19 18.05l2.15 0c0.48,0 0.86,-0.39 0.86,-0.86l0 0c0,-0.48 0.39,-0.86 0.86,-0.86l6.86 0"/>
  <path class="fil16 str0" d="M22.19 19.63l4.37 0c0.48,0 0.86,0.39 0.86,0.86l0 0.88c0,0.47 0.39,0.86 0.86,0.86l8.8 0"/>
  <path class="fil16 str0" d="M10.65 17.57l-2.8 0c-0.23,0 -0.45,-0.09 -0.61,-0.25l-1.56 -1.56c-0.16,-0.16 -0.38,-0.25 -0.61,-0.25l-5.08 0"/>
  <path class="fil16 str0" d="M10.37 20.93l-1.86 0c-0.52,0 -0.93,0.42 -0.93,0.93l0 0c0,0.52 -0.42,0.94 -0.93,0.94l-1.68 0c-0.25,0 -0.49,-0.1 -0.66,-0.27l-2.32 -2.32c-0.16,-0.16 -0.38,-0.25 -0.61,-0.25l-0.82 0"/>
  <path class="fil16 str0" d="M10.28 14.97l-1.79 0c-0.23,0 -0.45,-0.09 -0.61,-0.25l-1.44 -1.44c-0.16,-0.16 -0.38,-0.25 -0.61,-0.25l-2.51 0"/>
  <path class="fil17" d="M22.19 16.26l0 6.22c0,1.57 -1.27,2.85 -2.84,2.85l-6.22 0c-1.57,0 -2.85,-1.27 -2.85,-2.85l0 -6.22c0,-1.57 1.27,-2.84 2.85,-2.84l6.22 0c1.57,0 2.84,1.27 2.84,2.84z"/>
  <path class="fil18" d="M22.19 14.25l0 6.22c0,1.57 -1.27,2.84 -2.84,2.84l-6.22 0c-1.57,0 -2.85,-1.27 -2.85,-2.84l0 -6.22c0,-1.57 1.27,-2.84 2.85,-2.84l6.22 0c1.57,0 2.84,1.27 2.84,2.84z"/>
  <path class="fil19 str1" d="M20.67 15.05l0 4.63c0,1.17 -0.95,2.12 -2.12,2.12l-4.63 0c-1.17,0 -2.12,-0.95 -2.12,-2.12l0 -4.63c0,-1.17 0.95,-2.12 2.12,-2.12l4.63 0c1.17,0 2.12,0.95 2.12,2.12z"/>
  <path class="fil20" d="M19.05 12.04l0 4.03c0,0.83 -0.67,1.5 -1.51,1.5l-2.63 0c-0.83,0 -1.5,-0.67 -1.5,-1.5l0 -4.03c0,-0.83 0.67,-1.5 1.5,-1.5l2.63 0c0.83,0 1.51,0.67 1.51,1.5z"/>
  <path class="fil17" d="M19.05 10.8l0 4.03c0,0.83 -0.67,1.5 -1.51,1.5l-2.63 0c-0.83,0 -1.5,-0.67 -1.5,-1.5l0 -4.03c0,-0.83 0.67,-1.5 1.5,-1.5l2.63 0c0.83,0 1.51,0.67 1.51,1.5z"/>
  <path class="fil21" d="M16.47 12.71c0.68,0 1.24,0.55 1.24,1.24 0,0.68 -0.55,1.24 -1.24,1.24 -0.68,0 -1.24,-0.55 -1.24,-1.24 0,-0.68 0.55,-1.24 1.24,-1.24z"/>
  <path class="fil22" d="M28.3 15.25c0.6,0 1.08,0.49 1.08,1.08 0,0.6 -0.49,1.08 -1.08,1.08 -0.6,0 -1.08,-0.49 -1.08,-1.08 0,-0.6 0.48,-1.08 1.08,-1.08z"/>
  <path class="fil22" d="M7.49 16.49c0.6,0 1.08,0.48 1.08,1.08 0,0.6 -0.49,1.08 -1.08,1.08 -0.6,0 -1.08,-0.48 -1.08,-1.08 0,-0.6 0.49,-1.08 1.08,-1.08z"/>
  <path class="fil22" d="M30.65 23.19c0.6,0 1.08,0.49 1.08,1.08 0,0.6 -0.48,1.08 -1.08,1.08 -0.6,0 -1.08,-0.49 -1.08,-1.08 0,-0.6 0.48,-1.08 1.08,-1.08z"/>
  <path class="fil19 str2" d="M26.68 5.69l1 0c0.23,0 0.41,0.18 0.41,0.41l0 0.58c0,0.23 0.18,0.41 0.41,0.41l2.2 0"/>
  <path class="fil19 str2" d="M26.68 4.14l1.02 0c0.23,0 0.41,-0.18 0.41,-0.41l0 0c0,-0.23 0.18,-0.41 0.41,-0.41l3.25 0"/>
  <path class="fil19 str2" d="M26.68 4.89l2.07 0c0.23,0 0.41,0.18 0.41,0.41l0 0.42c0,0.23 0.18,0.41 0.41,0.41l4.18 0"/>
  <path class="fil19 str2" d="M21.21 3.91l-1.33 0c-0.11,0 -0.21,-0.04 -0.29,-0.12l-0.74 -0.74c-0.08,-0.08 -0.18,-0.12 -0.29,-0.12l-2.41 0"/>
  <path class="fil19 str2" d="M21.08 5.51l-0.88 0c-0.24,0 -0.44,0.2 -0.44,0.44l0 0c0,0.24 -0.2,0.44 -0.44,0.44l-0.8 0c-0.12,0 -0.23,-0.05 -0.31,-0.13l-1.1 -1.1c-0.08,-0.08 -0.18,-0.12 -0.29,-0.12l-0.39 0"/>
  <path class="fil19 str2" d="M21.03 2.68l-0.85 0c-0.11,0 -0.21,-0.04 -0.29,-0.12l-0.69 -0.69c-0.08,-0.08 -0.18,-0.12 -0.29,-0.12l-1.19 0"/>
  <path class="fil17" d="M26.68 3.3l0 2.95c0,0.74 -0.6,1.35 -1.35,1.35l-2.95 0c-0.75,0 -1.35,-0.6 -1.35,-1.35l0 -2.95c0,-0.74 0.6,-1.35 1.35,-1.35l2.95 0c0.75,0 1.35,0.6 1.35,1.35z"/>
  <path class="fil18" d="M26.68 2.35l0 2.95c0,0.75 -0.6,1.35 -1.35,1.35l-2.95 0c-0.75,0 -1.35,-0.6 -1.35,-1.35l0 -2.95c0,-0.75 0.6,-1.35 1.35,-1.35l2.95 0c0.75,0 1.35,0.6 1.35,1.35z"/>
  <path class="fil19 str3" d="M25.96 2.72l0 2.2c0,0.55 -0.45,1 -1,1l-2.2 0c-0.55,0 -1,-0.45 -1,-1l0 -2.2c0,-0.55 0.45,-1 1,-1l2.2 0c0.55,0 1,0.45 1,1z"/>
  <path class="fil20" d="M25.19 1.3l0 1.91c0,0.39 -0.32,0.71 -0.71,0.71l-1.25 0c-0.39,0 -0.71,-0.32 -0.71,-0.71l0 -1.91c0,-0.39 0.32,-0.71 0.71,-0.71l1.25 0c0.39,0 0.71,0.32 0.71,0.71z"/>
  <path class="fil17" d="M25.19 0.71l0 1.91c0,0.39 -0.32,0.71 -0.71,0.71l-1.25 0c-0.39,0 -0.71,-0.32 -0.71,-0.71l0 -1.91c0,-0.39 0.32,-0.71 0.71,-0.71l1.25 0c0.39,0 0.71,0.32 0.71,0.71z"/>
  <path class="fil21" d="M23.97 1.62c0.32,0 0.59,0.26 0.59,0.59 0,0.32 -0.26,0.59 -0.59,0.59 -0.32,0 -0.59,-0.26 -0.59,-0.59 0,-0.32 0.26,-0.59 0.59,-0.59z"/>
  <path class="fil22" d="M29.58 2.82c0.28,0 0.51,0.23 0.51,0.51 0,0.28 -0.23,0.51 -0.51,0.51 -0.28,0 -0.51,-0.23 -0.51,-0.51 0,-0.28 0.23,-0.51 0.51,-0.51z"/>
  <path class="fil22" d="M19.71 3.41c0.28,0 0.51,0.23 0.51,0.51 0,0.28 -0.23,0.51 -0.51,0.51 -0.28,0 -0.51,-0.23 -0.51,-0.51 0,-0.28 0.23,-0.51 0.51,-0.51z"/>
  <path class="fil22" d="M30.69 6.59c0.28,0 0.51,0.23 0.51,0.51 0,0.28 -0.23,0.51 -0.51,0.51 -0.28,0 -0.51,-0.23 -0.51,-0.51 0,-0.28 0.23,-0.51 0.51,-0.51z"/>
  <path class="fil19 str2" d="M26.68 34.11l1 0c0.23,0 0.41,0.18 0.41,0.41l0 0.58c0,0.23 0.18,0.41 0.41,0.41l2.2 0"/>
  <path class="fil19 str2" d="M26.68 32.56l1.02 0c0.23,0 0.41,-0.18 0.41,-0.41l0 0c0,-0.23 0.18,-0.41 0.41,-0.41l3.25 0"/>
  <path class="fil19 str2" d="M26.68 33.31l2.07 0c0.23,0 0.41,0.18 0.41,0.41l0 0.42c0,0.23 0.18,0.41 0.41,0.41l4.18 0"/>
  <path class="fil19 str2" d="M21.21 32.33l-1.33 0c-0.11,0 -0.21,-0.04 -0.29,-0.12l-0.74 -0.74c-0.08,-0.08 -0.18,-0.12 -0.29,-0.12l-2.41 0"/>
  <path class="fil19 str2" d="M21.08 33.92l-0.88 0c-0.24,0 -0.44,0.2 -0.44,0.44l0 0c0,0.24 -0.2,0.44 -0.44,0.44l-0.8 0c-0.12,0 -0.23,-0.05 -0.31,-0.13l-1.1 -1.1c-0.08,-0.08 -0.18,-0.12 -0.29,-0.12l-0.39 0"/>
  <path class="fil19 str2" d="M21.03 31.1l-0.85 0c-0.11,0 -0.21,-0.04 -0.29,-0.12l-0.69 -0.69c-0.08,-0.08 -0.18,-0.12 -0.29,-0.12l-1.19 0"/>
  <path class="fil17" d="M26.68 31.72l0 2.95c0,0.74 -0.6,1.35 -1.35,1.35l-2.95 0c-0.75,0 -1.35,-0.6 -1.35,-1.35l0 -2.95c0,-0.74 0.6,-1.35 1.35,-1.35l2.95 0c0.75,0 1.35,0.6 1.35,1.35z"/>
  <path class="fil18" d="M26.68 30.77l0 2.95c0,0.74 -0.6,1.35 -1.35,1.35l-2.95 0c-0.75,0 -1.35,-0.6 -1.35,-1.35l0 -2.95c0,-0.75 0.6,-1.35 1.35,-1.35l2.95 0c0.75,0 1.35,0.6 1.35,1.35z"/>
  <path class="fil19 str3" d="M25.96 31.13l0 2.2c0,0.55 -0.45,1 -1,1l-2.2 0c-0.55,0 -1,-0.45 -1,-1l0 -2.2c0,-0.55 0.45,-1 1,-1l2.2 0c0.55,0 1,0.45 1,1z"/>
  <path class="fil20" d="M25.19 29.72l0 1.91c0,0.39 -0.32,0.71 -0.71,0.71l-1.25 0c-0.39,0 -0.71,-0.32 -0.71,-0.71l0 -1.91c0,-0.39 0.32,-0.71 0.71,-0.71l1.25 0c0.39,0 0.71,0.32 0.71,0.71z"/>
  <path class="fil17" d="M25.19 29.13l0 1.91c0,0.39 -0.32,0.71 -0.71,0.71l-1.25 0c-0.39,0 -0.71,-0.32 -0.71,-0.71l0 -1.91c0,-0.39 0.32,-0.71 0.71,-0.71l1.25 0c0.39,0 0.71,0.32 0.71,0.71z"/>
  <path class="fil21" d="M23.97 30.03c0.32,0 0.59,0.26 0.59,0.59 0,0.33 -0.26,0.59 -0.59,0.59 -0.32,0 -0.59,-0.26 -0.59,-0.59 0,-0.32 0.26,-0.59 0.59,-0.59z"/>
  <path class="fil22" d="M29.58 31.24c0.28,0 0.51,0.23 0.51,0.51 0,0.28 -0.23,0.51 -0.51,0.51 -0.28,0 -0.51,-0.23 -0.51,-0.51 0,-0.28 0.23,-0.51 0.51,-0.51z"/>
  <path class="fil22" d="M19.71 31.83c0.28,0 0.51,0.23 0.51,0.51 0,0.28 -0.23,0.51 -0.51,0.51 -0.28,0 -0.51,-0.23 -0.51,-0.51 0,-0.28 0.23,-0.51 0.51,-0.51z"/>
  <path class="fil22" d="M30.69 35.01c0.28,0 0.51,0.23 0.51,0.51 0,0.28 -0.23,0.51 -0.51,0.51 -0.28,0 -0.51,-0.23 -0.51,-0.51 0,-0.28 0.23,-0.51 0.51,-0.51z"/>
  <path class="fil23" d="M43.06 21.55c-0.05,0.05 -0.12,0.08 -0.19,0.08 -0.07,0 -0.14,-0.03 -0.19,-0.08 -0.11,-0.11 -0.11,-0.28 0,-0.39l3.42 -3.42 -3.42 -3.42c-0.11,-0.11 -0.11,-0.28 0,-0.39 0.11,-0.11 0.28,-0.11 0.39,0l3.62 3.62c0.11,0.11 0.11,0.28 0,0.39l-3.62 3.62z"/>
  <path class="fil23" d="M75.72 21.55c-0.05,0.05 -0.12,0.08 -0.19,0.08 -0.07,0 -0.14,-0.03 -0.19,-0.08 -0.11,-0.11 -0.11,-0.28 0,-0.39l3.42 -3.42 -3.42 -3.42c-0.11,-0.11 -0.11,-0.28 0,-0.39 0.11,-0.11 0.28,-0.11 0.39,0l3.62 3.62c0.11,0.11 0.11,0.28 0,0.39l-3.62 3.62z"/>
  <path class="fil23" d="M110.77 21.55c-0.05,0.05 -0.12,0.08 -0.19,0.08 -0.07,0 -0.14,-0.03 -0.19,-0.08 -0.11,-0.11 -0.11,-0.28 0,-0.39l3.42 -3.42 -3.42 -3.42c-0.11,-0.11 -0.11,-0.28 0,-0.39 0.11,-0.11 0.28,-0.11 0.39,0l3.62 3.62c0.11,0.11 0.11,0.28 0,0.39l-3.62 3.62z"/>
 </g>
</svg>
