<?xml version="1.0" encoding="UTF-8"?>
<!DOCTYPE svg PUBLIC "-//W3C//DTD SVG 1.1//EN" "http://www.w3.org/Graphics/SVG/1.1/DTD/svg11.dtd">
<!-- Creator: CorelDRAW 2018 (64-Bit) -->
<svg xmlns="http://www.w3.org/2000/svg" xml:space="preserve" width="3.19111in" height="2.21852in" version="1.1" style="shape-rendering:geometricPrecision; text-rendering:geometricPrecision; image-rendering:optimizeQuality; fill-rule:evenodd; clip-rule:evenodd"
viewBox="0 0 122.27 85"
 xmlns:xlink="http://www.w3.org/1999/xlink">
 <defs>
  <style type="text/css">
   <![CDATA[
    .str7 {stroke:black;stroke-width:0.27;stroke-miterlimit:2.61313}
    .str4 {stroke:#8EE014;stroke-width:0.27;stroke-miterlimit:2.61313}
    .str8 {stroke:white;stroke-width:0.27;stroke-miterlimit:2.61313}
    .str6 {stroke:#8EE014;stroke-width:0.17;stroke-miterlimit:10}
    .str3 {stroke:#FEFEFE;stroke-width:0.28;stroke-miterlimit:10}
    .str2 {stroke:#8EE014;stroke-width:0.28;stroke-miterlimit:10}
    .str0 {stroke:#3D3A60;stroke-width:0.07;stroke-miterlimit:10}
    .str5 {stroke:#8EE014;stroke-width:0.11;stroke-miterlimit:10}
    .str1 {stroke:#8EE014;stroke-width:0.28;stroke-miterlimit:10;stroke-dasharray:1.533228 1.533228}
    .fil16 {fill:none}
    .fil12 {fill:none;fill-rule:nonzero}
    .fil19 {fill:#0C73A2}
    .fil18 {fill:#FFCC00}
    .fil21 {fill:white}
    .fil20 {fill:#CF035C}
    .fil4 {fill:#F8B7C1;fill-rule:nonzero}
    .fil7 {fill:#F38795;fill-rule:nonzero}
    .fil10 {fill:#F9FCFE;fill-rule:nonzero}
    .fil3 {fill:#41395B;fill-rule:nonzero}
    .fil1 {fill:#0C73A2;fill-rule:nonzero}
    .fil5 {fill:#68C1DE;fill-rule:nonzero}
    .fil14 {fill:#7FCAE3;fill-rule:nonzero}
    .fil6 {fill:#7FCAE3;fill-rule:nonzero}
    .fil13 {fill:#8EE014;fill-rule:nonzero}
    .fil11 {fill:#BABABA;fill-rule:nonzero}
    .fil9 {fill:#BABABA;fill-rule:nonzero}
    .fil8 {fill:#CCCCCC;fill-rule:nonzero}
    .fil17 {fill:white;fill-rule:nonzero}
    .fil15 {fill:white;fill-rule:nonzero}
    .fil2 {fill:url(#id1);fill-rule:nonzero}
    .fil0 {fill:url(#id2);fill-rule:nonzero}
   ]]>
  </style>
   <clipPath id="id0" style="clip-rule:nonzero">
    <path d="M34.16 55.46c0,0.91 -0.74,1.65 -1.65,1.65 -0.91,0 -1.65,-0.74 -1.65,-1.65 0,-0.91 0.74,-1.65 1.65,-1.65 0.91,0 1.65,0.74 1.65,1.65z"/>
   </clipPath>
  <linearGradient id="id1" gradientUnits="userSpaceOnUse" x1="116.59" y1="10.48" x2="54.48" y2="61.89">
   <stop offset="0" style="stop-opacity:1; stop-color:#0C73A2"/>
   <stop offset="1" style="stop-opacity:1; stop-color:#3298BA"/>
  </linearGradient>
  <linearGradient id="id2" gradientUnits="userSpaceOnUse" xlink:href="#id1" x1="1.12" y1="14.15" x2="39.92" y2="78.49">
  </linearGradient>
 </defs>
 <g id="Layer_x0020_1">
  <metadata id="CorelCorpID_0Corel-Layer"/>
  <path class="fil0" d="M16.83 16.86c-0.5,-0.19 -1.05,-0.26 -1.58,-0.21 -0.47,0.44 -1.35,0.57 -1.99,0.61 -0.66,-0.65 -1.46,-1.25 -2.29,-1.67 -0.55,-0.28 -1.2,-0.58 -1.37,-1.17 -0.27,-0.95 -1.9,-1.33 -2.86,-1.11 -1.22,-0.33 -2.62,0.1 -3.6,0.9 -0.43,0.35 0.05,1.23 0.43,1.65 0.37,0.42 0.84,0.88 0.75,1.43 -0.45,0.23 -1.07,0.24 -1.57,0.22 -0.3,-0.01 -0.61,-0.07 -0.89,0.02 -0.29,0.09 -0.53,0.4 -0.42,0.68 -0.2,0.34 -0.43,0.52 -0.2,0.84 0.18,0.25 0.48,0.46 0.48,0.76 -0,0.24 -0.21,0.44 -0.43,0.55 -0.22,0.11 -0.46,0.16 -0.67,0.3 -0.64,0.41 -0.65,1.33 -0.58,2.09 0.42,0.51 0.48,1.39 0.28,2.02 -0.08,0.24 -0.2,0.49 -0.11,0.73 0.1,0.27 0.42,0.38 0.7,0.45 0.6,0.15 1.3,0.29 1.77,-0.11 1.25,-1.03 3.19,-0.5 4.77,-0.14 0.55,0.12 1.12,0.32 1.44,0.78 0.43,0.61 0.24,1.47 -0.11,2.12 -0.35,0.66 -0.85,1.25 -1.08,1.96 -0.21,0.67 -0.15,1.39 -0.09,2.08 0.07,0.86 0.16,1.76 0.66,2.47 0.52,0.74 0.85,1.84 0.81,2.74 -0.03,0.72 -0.29,1.44 -0.22,2.16 0.12,1.31 1.25,2.29 2.41,2.92 1.21,0.66 2.25,1.78 2.66,3.09 0.21,0.66 0.27,1.36 0.46,2.02 0.32,1.15 1.01,2.2 1.95,2.95 0.68,0.54 1.8,0.73 2.66,0.89 0.44,0.08 0.92,0.15 1.26,0.45 0.15,0.14 0.27,0.32 0.41,0.47 0.72,0.71 2.04,0.42 2.76,1.12 0.19,0.18 0.32,0.41 0.48,0.61 0.44,0.54 1.16,0.85 1.86,0.78 -0.16,0.53 0.48,1.16 0.28,1.68 -0.16,0.42 -0.64,0.6 -0.97,0.91 -0.57,0.53 -0.66,1.43 -0.41,2.17 0.25,0.74 0.77,1.35 1.29,1.93 0.97,1.07 2.13,1.59 3.18,2.59 0.97,0.92 1.19,2.41 0.98,3.73 -0.21,1.32 -0.79,2.55 -1.21,3.82 -0.77,2.38 -0.96,4.99 -0.22,7.38 0.74,2.39 2.47,4.52 4.78,5.46 0.26,0.1 0.57,-0.08 0.76,-0.28 0.19,-0.2 0.23,-0.53 0.1,-0.77 -0.42,-0.77 -1.16,-1.43 -1.7,-2.11 -0.17,-0.22 -0.35,-0.46 -0.33,-0.74 0.02,-0.31 0.29,-0.53 0.49,-0.77 0.3,-0.36 0.46,-0.83 0.44,-1.3 -0.01,-0.44 -0.27,-0.87 -0.25,-1.31 0.01,-0.44 0.25,-0.9 0.67,-1.05 0.19,-0.06 0.4,-0.06 0.58,-0.14 0.6,-0.27 0.51,-1.19 0.94,-1.68 0.2,-0.23 0.5,-0.34 0.78,-0.48 1.17,-0.56 2.13,-1.67 2.23,-2.96 0.08,-1.03 -0.29,-2.29 0.49,-2.96 0.72,-0.62 1.83,-0.21 2.77,-0.36 0.38,-0.06 0.64,-0.42 0.82,-0.76 0.18,-0.34 0.2,-0.75 0.14,-1.13 -0.08,-0.47 -0.28,-0.93 -0.24,-1.4 0.06,-0.67 0.58,-1.18 0.99,-1.72 0.48,-0.63 0.82,-1.36 1,-2.14 0.2,-0.88 -0.36,-1.92 -1.15,-2.36 -0.79,-0.44 -1.74,-0.45 -2.64,-0.48 -0.9,-0.03 -1.86,-0.09 -2.6,-0.62 -0.68,-0.48 -1.06,-1.26 -1.59,-1.89 -0.9,-1.07 -2.21,-1.68 -3.48,-2.27 -0.48,-0.22 -1.02,-0.45 -1.52,-0.28 -0.2,0.06 -0.38,0.19 -0.58,0.23 -0.56,0.11 -1.01,-0.42 -1.52,-0.69 -1.04,-0.56 -2.54,0.25 -2.63,1.43 -0.54,0.19 -1.54,0.03 -1.84,-0.46 -0.22,-0.35 -0.31,-0.83 -0.69,-0.99 -0.2,-0.08 -0.46,-0.05 -0.62,-0.2 -0.27,-0.24 -0.06,-0.67 -0.01,-1.04 0.08,-0.57 -0.35,-1.12 -0.87,-1.37 -0.52,-0.25 -1.12,-0.27 -1.7,-0.29 -0.58,-0.02 -1.18,-0.04 -1.7,-0.3 -1.01,-0.51 -1.42,-1.88 -0.98,-2.91 0.44,-1.04 1.6,-1.68 2.73,-1.65 1.11,0.03 2.27,0.84 2.29,1.95 0,0.28 0.45,0.31 0.7,0.17 0.24,-0.14 0.37,-0.42 0.43,-0.69 0.06,-0.27 0.07,-0.56 0.15,-0.83 0.19,-0.62 0.82,-1.08 1.47,-1.07 0.68,0.01 1.15,-0.67 1.63,-1.15 0.48,-0.48 0.77,-1.2 0.58,-1.85 -0.1,-0.35 -0.34,-0.71 -0.22,-1.05 0.09,-0.27 0.37,-0.43 0.63,-0.54 0.73,-0.31 1.53,-0.45 2.32,-0.42 0.69,0.03 1.05,-0.4 1.4,-1 0.25,-0.43 0.37,-0.97 0.77,-1.26 0.61,-0.44 1.45,-0.05 2.19,-0.1 1.09,-0.07 1.94,-1.29 1.63,-2.34 -0.15,-0.5 -0.49,-0.91 -0.78,-1.34 -0.39,-0.6 -0.66,-1.27 -0.81,-1.97 -0.13,-0.64 -0.17,-1.35 -0.59,-1.85 -0.66,0.03 -1.47,0.01 -2.06,0.32 -0.12,-0.68 -0.25,-1.38 -0.66,-1.92 -0.42,-0.54 -1.22,-0.86 -1.81,-0.51 -0.58,0.34 -0.7,1.13 -0.59,1.79 0.11,0.66 0.38,1.3 0.36,1.97 -0.02,0.67 -0.48,1.41 -1.15,1.39 -0.35,-0.01 -0.66,-0.22 -0.91,-0.47 -0.35,-0.35 -0.63,-0.81 -1.08,-1.02 -0.35,-0.16 -0.74,-0.16 -1.12,-0.24 -1.27,-0.29 -2.15,-1.75 -1.79,-3 0.35,-1.26 1.86,-2.05 3.09,-1.64 1.5,-0.55 2.11,-2.44 1.51,-3.92 -0.6,-1.48 -2.2,-2.4 -3.8,-2.47 -0.47,-0.02 -0.94,0.02 -1.39,-0.09 -1.28,-0.32 -1.95,-1.73 -3.06,-2.44 -0.73,-0.47 -2.42,-0.02 -3.24,-0.33z"/>
  <path class="fil1" d="M36.99 12.29c-0.49,0.75 0.06,1.77 0.78,2.32 0.72,0.54 1.61,0.87 2.18,1.56 0.91,1.12 0.65,2.77 0.15,4.13 -0.5,1.35 -1.2,2.72 -1.03,4.16 0.08,0.68 0.36,1.32 0.72,1.89 0.35,0.56 0.82,1.1 1.46,1.25 0.81,0.2 1.64,-0.28 2.26,-0.85 0.62,-0.57 1.15,-1.25 1.91,-1.62 1.08,-0.53 2.48,-0.33 3.42,-1.08 1.17,-0.93 1,-2.71 1.32,-4.16 0.54,-2.45 2.66,-4.26 3.49,-6.62 0.16,-0.46 0.27,-0.95 0.26,-1.44 -0.04,-1.58 -1.37,-2.9 -2.87,-3.43 -1.85,-0.65 -3.71,-0.24 -5.6,-0.33 -1.03,-0.05 -2.17,-0.48 -3.16,-0.06 -1.54,0.64 -1.09,2.16 -2.09,3.06 -0.87,0.78 -2.48,0.17 -3.18,1.24z"/>
  <path class="fil2" d="M78.51 21.89c-0.88,-0.86 -2.32,-0.03 -3.23,0.79 -0.91,0.82 -1.82,1.63 -2.73,2.45 -0.68,0.61 -1.42,1.25 -2.32,1.4 -0.9,0.15 -1.99,-0.42 -2.03,-1.34 0.62,-0.58 1.85,0.28 2.42,-0.35 0.5,-0.56 -0.24,-1.37 -0.89,-1.75 -1.19,-0.69 -2.43,-1.39 -3.79,-1.58 -1.37,-0.19 -2.91,0.27 -3.62,1.45 -0.61,1.01 -0.5,2.33 -1.1,3.35 -0.38,0.64 -1,1.09 -1.42,1.69 -0.43,0.6 -0.61,1.51 -0.09,2.03 0.42,0.42 1.14,0.42 1.56,0.85 0.32,0.33 0.43,0.87 0.85,1.05 0.48,0.21 1.03,-0.26 1.14,-0.77 0.12,-0.51 -0.05,-1.04 -0.13,-1.56 -0.25,-1.55 0.53,-3.45 2.08,-3.67 0.35,0.01 0.47,0.52 0.31,0.83 -0.16,0.32 -0.47,0.54 -0.63,0.85 -0.31,0.59 0.05,1.43 0.7,1.59 0.67,0.18 1.8,0.03 1.71,0.72 -0.09,0.73 -1.45,0.25 -1.89,0.85 -0.26,0.35 -0.03,0.84 -0.04,1.27 -0.01,0.85 -0.95,1.41 -1.8,1.47 -0.85,0.06 -1.7,-0.19 -2.55,-0.11 -0.85,0.08 -1.77,0.68 -1.73,1.53 -1.17,0.55 -2.4,1 -3.65,1.33 0.05,0.92 1.79,1.01 1.79,1.93 -0,0.55 -0.69,0.84 -1.24,0.8 -0.55,-0.04 -1.11,-0.26 -1.65,-0.12 -0.93,0.24 -1.25,1.55 -0.74,2.35 0.51,0.81 1.57,1.13 2.52,1.05 0.38,-0.03 0.79,-0.13 1.03,-0.43 0.23,-0.29 0.25,-0.68 0.34,-1.03 0.22,-0.79 0.89,-1.44 1.69,-1.62 0.45,-0.1 1,-0.11 1.25,-0.5 1.03,0.56 1.76,1.65 1.87,2.81 0.33,0.43 1.07,-0.12 1,-0.66 -0.07,-0.54 -0.55,-0.91 -0.92,-1.3 -0.38,-0.39 -0.69,-0.99 -0.4,-1.45 1.76,0.52 3.19,2.05 3.58,3.85 0.61,-0.12 0.95,-0.95 0.6,-1.47 0.19,-0.43 0.89,-0.18 1.09,0.24 0.2,0.42 0.18,0.95 0.47,1.32 0.83,1.07 3.06,-0.24 3.74,0.94 0.48,0.82 -0.6,1.78 -1.55,1.75 -0.95,-0.03 -1.82,-0.57 -2.77,-0.67 -1.05,-0.1 -2.06,0.35 -3.1,0.47 -1.04,0.12 -2.33,-0.29 -2.55,-1.31 -0.06,-0.28 -0.04,-0.58 -0.18,-0.82 -0.21,-0.34 -0.68,-0.42 -1.08,-0.38 -1.74,0.2 -3.5,1.99 -4.93,0.99 -0.92,1.78 -3.16,2.45 -4.41,4.02 -1.36,1.71 -1.25,4.34 0.07,6.08 1.32,1.74 3.66,2.56 5.82,2.28 0.5,-0.06 1.02,-0.17 1.48,0.02 0.46,0.19 0.75,0.63 1.13,0.95 0.38,0.31 1.01,0.47 1.33,0.09 -0.36,0.9 -0.26,1.97 0.26,2.78 0.56,0.88 1.62,1.57 1.6,2.62 -0.01,0.54 -0.33,1.02 -0.47,1.54 -0.67,2.38 2.14,4.33 2.59,6.77 0.12,0.66 0.12,1.45 0.67,1.82 0.26,0.17 0.57,0.21 0.88,0.23 1.57,0.1 3.55,-0.36 3.88,-1.91 0.09,-0.44 0.03,-0.89 0.04,-1.33 0.04,-1.33 0.85,-2.61 2.04,-3.21 0.32,-0.16 0.68,-0.28 0.93,-0.54 0.57,-0.56 0.44,-1.5 0.15,-2.25 -0.29,-0.74 -0.72,-1.49 -0.61,-2.28 0.16,-1.27 1.52,-1.94 2.56,-2.69 1.55,-1.14 2.62,-2.92 2.89,-4.82 -1.43,0.45 -3.18,0.83 -4.27,-0.2 -0.38,-0.36 -0.61,-0.84 -0.84,-1.31 -0.67,-1.41 -1.35,-2.82 -2.02,-4.22 -0.09,-0.19 -0.18,-0.4 -0.11,-0.59 0.2,-0.52 0.98,-0.09 1.29,0.38 1.08,1.68 2.05,3.42 2.9,5.23 1.74,-0.32 3.41,-1.04 4.82,-2.1 0.45,-0.34 0.9,-0.74 1.06,-1.28 0.15,-0.54 -0.13,-1.24 -0.68,-1.34 -0.22,-0.04 -0.43,0.02 -0.65,0.04 -1.31,0.14 -2.45,-0.86 -3.31,-1.86 0.59,-0.66 1.66,-0.28 2.46,0.09 1.44,0.66 2.96,1.13 4.52,1.4 0.39,0.07 0.79,0.13 1.14,0.31 0.25,0.13 0.46,0.31 0.66,0.5 1.8,1.66 3.13,3.82 3.8,6.17 0.69,0.15 1.17,-0.69 1.22,-1.39 0.05,-0.7 -0.03,-1.51 0.48,-2 0.4,-0.38 1.05,-0.44 1.4,-0.87 0.44,-0.54 0.21,-1.45 0.72,-1.92 0.64,-0.59 1.68,0.13 2.02,0.93 0.34,0.8 0.47,1.79 1.19,2.28 0.39,-0.06 0.78,-0.11 1.17,-0.17 0.01,1.97 0.69,3.93 1.91,5.48 0.67,-0.35 0.36,-1.36 -0.05,-1.99 -0.42,-0.63 -0.82,-1.56 -0.23,-2.03 0.82,0.01 1.2,1.14 2,1.33 0.79,0.19 1.5,-0.75 1.36,-1.55 -0.14,-0.8 -0.83,-1.39 -1.55,-1.79 -0.64,-0.7 0.28,-1.82 1.22,-1.98 0.94,-0.16 1.96,0.11 2.81,-0.32 1.02,-0.51 1.36,-1.85 1.12,-2.96 -0.23,-1.11 -0.89,-2.08 -1.43,-3.08 -0.46,-0.85 -0.69,-2.19 0.21,-2.56 0.24,-0.1 0.51,-0.1 0.77,-0.11 3.39,-0.14 6.19,-3.73 5.51,-7.05 -0.13,-0.63 -0.37,-1.25 -0.82,-1.7 -0.8,-0.82 -2.17,-1.01 -2.77,-2 -0.74,-1.2 0.17,-2.79 1.35,-3.56 1.18,-0.77 2.62,-1.1 3.72,-1.98 0.29,-0.01 0.45,-0.29 0.5,-0.58 0.03,-0.18 -0.01,-0.37 -0.01,-0.55 -0,-0.51 0.36,-0.99 0.84,-1.13 0.48,-0.14 1.05,0.07 1.32,0.5 0.33,0.53 0.2,1.22 -0.04,1.8 -0.24,0.57 -0.58,1.12 -0.65,1.74 -0.06,0.62 0.29,1.35 0.91,1.42 0.76,0.08 1.25,-0.81 1.3,-1.57 0.05,-0.76 -0.1,-1.59 0.31,-2.23 0.62,-0.98 2.34,-1.21 2.38,-2.36 0.04,-0.94 -1.14,-1.49 -1.35,-2.4 -0.09,-0.37 -0,-0.75 0.03,-1.13 0.13,-1.4 -0.49,-2.86 -1.59,-3.74 -1.1,-0.88 -2.66,-1.16 -4,-0.72 -0.44,0.14 -0.85,0.36 -1.29,0.47 -0.66,0.17 -1.35,0.13 -2.02,0.08 -1.21,-0.08 -2.42,-0.17 -3.63,-0.25 -1.08,-0.07 -2.23,-0.14 -3.19,0.37 -1.41,0.74 -2.2,2.58 -3.78,2.77 -1.11,0.13 -2.1,-0.63 -3.14,-1.05 -1.68,-0.67 -3.72,-0.35 -5.12,0.79 -0.53,-0.27 -0.36,-1.06 -0.55,-1.62 -0.19,-0.59 -0.83,-0.94 -1.44,-1 -0.62,-0.05 -1.23,0.13 -1.81,0.33 -1.27,0.41 -2.74,1.12 -2.86,2.45 -0.03,0.37 0.05,0.77 -0.11,1.11 -0.22,0.48 -0.83,0.65 -1.21,1.02 -0.45,0.45 -0.52,1.15 -0.54,1.78 -0.02,0.64 -0.02,1.32 -0.39,1.84 -0.37,0.52 -2.3,0.78 -2.76,0.34z"/>
  <path class="fil1" d="M102.21 58.53c0.29,0.42 0.77,0.67 1.25,0.87 0.57,0.24 1.27,0.43 1.79,0.08 0.35,-0.24 1.53,-1.87 1.61,-2.22 0.16,-0.68 -0.07,-0.64 -0.75,-0.78 -1.1,-0.22 -5.16,0.21 -3.9,2.04z"/>
  <path class="fil1" d="M98.2 58.3c1.58,2.87 4.81,4.75 8.08,4.71 0.23,-0.23 -0.11,-0.59 -0.41,-0.71 -0.83,-0.35 -1.72,-0.52 -2.56,-0.82 -0.85,-0.3 -1.68,-0.75 -2.19,-1.49 -0.21,-0.31 -0.35,-0.66 -0.53,-0.99 -0.5,-0.96 -2.44,-3.37 -3.65,-2.79 0.32,0.67 0.87,1.4 1.25,2.1z"/>
  <path class="fil1" d="M106.76 64.99c-0.42,0.47 -0.81,1.05 -1.43,1.19 -0.36,0.09 -0.75,0 -1.11,0.09 -1.07,0.25 -1.32,1.68 -1.07,2.75 0.24,1.07 0.74,2.19 0.34,3.21 -0.08,0.21 -0.2,0.41 -0.19,0.63 0,0.26 0.19,0.5 0.4,0.66 0.98,0.73 2.36,0.21 3.43,-0.37 1.07,-0.58 2.37,-1.21 3.44,-0.62 1.15,0.63 1.25,2.21 1.96,3.31 0.62,0.97 1.99,1.54 2.96,0.93 0.33,-0.21 0.57,-0.53 0.81,-0.83 0.48,-0.63 0.97,-1.27 1.45,-1.9 0.64,-0.84 1.31,-1.73 1.43,-2.78 0.24,-2.02 -1.56,-3.65 -3.17,-4.89 -0.09,-0.65 -0.18,-1.31 -0.51,-1.87 -0.66,-1.13 -2.01,-1.25 -1.64,0.35 -1.06,0.04 -1.91,-1.53 -3.08,-1.68 -1.43,-0.18 -3.1,0.83 -4.01,1.85z"/>
  <g id="_2085280323472">
   <path class="fil3" d="M115.15 67.01c0,0 0.06,1.07 0.15,1.18 0.08,0.11 0.37,0.09 0.45,-0.06 0.09,-0.14 -0.23,-1.08 -0.23,-1.08l-0.37 -0.05z"/>
   <path class="fil4" d="M113.27 57.49l-0.33 2.11 0.26 4.22 0.23 3.16c0.02,0.14 -0.05,0.22 0.09,0.24l0 0c0.2,0.04 0.39,-0.12 0.38,-0.33l-0.1 -3.34 -0.11 -3.06 0.74 0.06 0.34 3.62 0.43 2.86 0.32 0.07 -0.08 -3.11 -0.33 -4.17 -0.19 -1.37 -0.71 -0.15 -0.93 -0.82z"/>
   <path class="fil3" d="M113.43 66.99l-0.75 0.4 0.05 0.09c0.21,0.04 0.3,0.03 0.49,-0.06l0.66 -0.29 0.01 -0.23 -0.47 0.09z"/>
   <path class="fil3" d="M114.35 57.64l0.98 1.49 0.53 3.88c0,0 -1.68,0.55 -2.42,0.13 -0.74,-0.42 -0.71,-0.61 -0.71,-0.61l0.15 -3.35 0.82 -2.26c0.02,-0.29 0.13,-0.71 0.41,-0.77l0.1 -0.33 0.75 0.21 -0.08 0c0.22,0.15 0.07,0.05 0.13,0.31l-0.67 1.31z"/>
   <polygon class="fil4" points="114.86,55.43 113.63,55.31 113.99,56.55 "/>
   <path class="fil3" d="M115.38 53.7c-0,0.61 -0.49,1.1 -1.1,1.1 -0.61,-0 -1.1,-0.49 -1.09,-1.1 0,-0.61 0.49,-1.1 1.1,-1.1 0.61,0 1.1,0.49 1.1,1.1z"/>
   <path class="fil3" d="M115.58 52.92c-0,0.34 -0.28,0.62 -0.62,0.62 -0.34,-0 -0.62,-0.28 -0.62,-0.62 0,-0.34 0.28,-0.62 0.62,-0.62 0.34,0 0.62,0.28 0.62,0.62z"/>
   <path class="fil5" d="M113.48 55.3c0,0 -1.9,1.78 -1.93,1.71 -0.03,-0.08 -0.9,-1.62 -0.9,-1.62l-0.26 0.15 0.85 2.04c0.07,0.16 0.26,0.24 0.42,0.16l1.87 -0.77 -0.06 -1.67z"/>
   <path class="fil4" d="M114.17 52.8c-0.51,-0 -0.93,0.42 -0.93,0.93l-0 0.59c-0,0.51 0.42,0.93 0.93,0.93 0.51,0 0.93,-0.42 0.93,-0.93l0 -0.59c0,-0.51 -0.42,-0.93 -0.93,-0.93z"/>
   <path class="fil3" d="M114.17 52.8c0.51,0 0.93,0.42 0.93,0.93l-0 0.48c-0.29,-0.13 -0.5,-0.42 -0.5,-0.76 0,-0.08 0.01,-0.15 0.03,-0.22 -0.13,0.09 -0.3,0.15 -0.47,0.15 -0.26,-0 -0.5,-0.13 -0.65,-0.32 0.17,-0.17 0.4,-0.27 0.66,-0.27z"/>
   <path class="fil6" d="M113.09 57.54l-0.28 -0.41c-0.13,-0.19 -0.14,-0.44 -0.04,-0.64l0.16 -0.31c0.24,-0.33 0.25,-0.82 0.54,-0.88l1.87 0.17 0.06 0.04c0.14,0.1 0.24,0.73 0.03,1.36 -0.11,0.32 -0.57,0.87 -0.57,0.87l0.5 1.42c-0.09,0.11 -0.25,0.24 -0.58,0.26 -0.5,0.02 -1.61,-0.03 -1.97,-0.25l0.27 -1.63z"/>
   <polygon class="fil6" points="115.4,55.51 116.82,57.8 116.31,60.22 115.92,60.27 116,57.85 114.82,56.28 "/>
   <polygon class="fil7" points="116.95,60.06 115.05,60.73 115.38,62.56 117.34,61.81 "/>
   <path class="fil4" d="M115.83 60.45c0,0.18 0.15,0.33 0.33,0.33 0.18,0 0.33,-0.15 0.33,-0.33 0,-0.18 -0.15,-0.33 -0.33,-0.33 -0.18,0 -0.33,0.15 -0.33,0.33z"/>
   <polygon class="fil3" points="109.97,55.53 111.16,54.54 111.11,54.48 109.92,55.47 "/>
   <path class="fil4" d="M110.12 55.29c0,0.18 0.15,0.33 0.33,0.33 0.18,0 0.33,-0.15 0.33,-0.33 0,-0.18 -0.15,-0.33 -0.33,-0.33 -0.18,0 -0.33,0.15 -0.33,0.33z"/>
  </g>
  <path class="fil3" d="M106.91 20.32c0,0 0.06,1.04 0.14,1.15 0.08,0.11 0.36,0.08 0.44,-0.06 0.08,-0.14 -0.22,-1.05 -0.22,-1.05l-0.36 -0.05z"/>
  <path class="fil3" d="M105.08 11.04l-0.39 1.66 0.12 4.4 0.42 3.18c0.02,0.13 -0.05,0.21 0.09,0.24l0 0c0.2,0.04 0.38,-0.12 0.37,-0.32l0 -3.01 0.01 -3.21 0.37 0.03 0.29 3.55 0.59 2.78 0.31 0.07 -0.08 -3.03 -0.04 -4.66 -0.47 -0.73 -0.69 -0.15 -0.91 -0.8z"/>
  <path class="fil3" d="M105.23 20.29l-0.74 0.39 0.05 0.09c0.2,0.04 0.29,0.03 0.48,-0.06l0.64 -0.28 0.01 -0.22 -0.45 0.09z"/>
  <polygon class="fil4" points="106.62,9.03 105.42,8.92 105.78,10.13 "/>
  <path class="fil3" d="M107.14 7.35c-0,0.59 -0.48,1.07 -1.07,1.07 -0.59,-0 -1.07,-0.48 -1.07,-1.07 0,-0.59 0.48,-1.07 1.07,-1.07 0.59,0 1.07,0.48 1.07,1.07z"/>
  <path class="fil3" d="M107.32 6.59c0,0.34 -0.27,0.61 -0.61,0.61 -0.34,-0 -0.61,-0.27 -0.61,-0.61 0,-0.34 0.27,-0.61 0.61,-0.61 0.34,0 0.61,0.27 0.61,0.61z"/>
  <path class="fil8" d="M105.28 8.91c0,0 -1.86,1.74 -1.88,1.66 -0.03,-0.07 -0.88,-1.58 -0.88,-1.58l-0.25 0.15 0.83 1.99c0.07,0.16 0.25,0.23 0.41,0.16l1.82 -0.75 -0.05 -1.63z"/>
  <path class="fil4" d="M105.95 6.47c-0.5,-0 -0.91,0.41 -0.91,0.91l-0 0.57c-0,0.5 0.41,0.91 0.91,0.91 0.5,0 0.91,-0.41 0.91,-0.91l0 -0.57c0,-0.5 -0.41,-0.91 -0.91,-0.91z"/>
  <path class="fil3" d="M105.95 6.47c0.5,0 0.91,0.41 0.91,0.91l-0 0.47c-0.28,-0.12 -0.48,-0.41 -0.48,-0.74 0,-0.07 0.01,-0.14 0.03,-0.21 -0.13,0.09 -0.29,0.15 -0.46,0.15 -0.26,-0 -0.48,-0.12 -0.63,-0.31 0.16,-0.16 0.39,-0.26 0.64,-0.26z"/>
  <path class="fil9" d="M104.9 11.09l-0.27 -0.4c-0.13,-0.19 -0.14,-0.43 -0.04,-0.63l0.16 -0.3c0.24,-0.32 0.25,-0.8 0.52,-0.85l1.82 0.17 0.06 0.04c0.14,0.1 0.23,0.71 0.03,1.33 -0.1,0.31 -0.55,0.85 -0.55,0.85l0.49 1.38c-0.09,0.11 -0.25,0.23 -0.56,0.25 -0.49,0.02 -1.57,-0.03 -1.92,-0.24l0.26 -1.58z"/>
  <polygon class="fil9" points="107.15,9.12 108.54,11.34 108.04,13.7 107.66,13.75 107.74,11.39 106.58,9.86 "/>
  <polygon class="fil7" points="108.66,13.55 106.81,14.2 107.13,15.98 109.04,15.25 "/>
  <path class="fil4" d="M107.57 13.92c0,0.17 0.14,0.32 0.32,0.32 0.17,0 0.32,-0.14 0.32,-0.32 0,-0.18 -0.14,-0.32 -0.32,-0.32 -0.18,0 -0.32,0.14 -0.32,0.32z"/>
  <polygon class="fil3" points="101.86,9.14 103.02,8.17 102.97,8.11 101.81,9.08 "/>
  <path class="fil4" d="M102.01 8.9c0,0.17 0.14,0.32 0.32,0.32 0.17,0 0.32,-0.14 0.32,-0.32 0,-0.18 -0.14,-0.32 -0.32,-0.32 -0.18,0 -0.32,0.14 -0.32,0.32z"/>
  <path class="fil3" d="M83.24 22.29l-0.42 3.58 0.95 -0.04c0,0 0.59,-0.75 0.59,-0.87 0,-0.12 0.6,-0.47 0.26,-0.89 -0.34,-0.42 -1.38,-1.79 -1.38,-1.79z"/>
  <path class="fil3" d="M84.15 21.53l-0.83 0.18c-0.17,0.09 -0.29,0.26 -0.31,0.45l-0.67 4.73 0.47 0.04 0.68 -3.81 0.65 -1.6z"/>
  <path class="fil3" d="M83.5 23.13l-0.21 1.89 0.16 3.53 0.36 2.9c0.01,0.12 0.1,0.21 0.22,0.23l0 0c0.17,0.03 0.33,-0.1 0.32,-0.28l-0.08 -2.85 -0.1 -2.61 0.63 0.05 0.29 2.83 0.37 3.89c0.03,0.17 0.17,0.31 0.35,0.32l0 0c0.25,0.02 0.46,-0.19 0.43,-0.44l-0.32 -3.9 -0.2 -3.47 -0.49 -1.02 -0.6 -0.13 -1.12 -0.95z"/>
  <path class="fil10" d="M83.53 22.05c0.06,-0.33 0.39,-0.54 0.71,-0.44 0.14,0.04 1.15,0.08 1.15,0.08l0.32 0.57 -0.14 0.48 0.15 2.58c0,0 -1.2,0.33 -1.58,0.17 -0.38,-0.16 -0.81,-0.61 -0.81,-0.61l0.18 -2.69 0.03 -0.15z"/>
  <path class="fil3" d="M83.96 31.47l-0.82 0.41 0.11 0.02c0.18,0.03 0.36,0.01 0.53,-0.06l0.56 -0.25 0.01 -0.2 -0.4 0.07z"/>
  <path class="fil3" d="M85.62 32.75c0,0 0.07,0.72 0.14,0.82 0.07,0.1 0.31,0.07 0.39,-0.05 0.07,-0.12 -0.19,-0.92 -0.19,-0.92l-0.34 0.14z"/>
  <path class="fil10" d="M83.98 21.45c0,-0.03 0.05,-0.3 0.05,-0.3 0,0 0.74,-0.04 0.76,0.01 0.02,0.05 0.11,0.88 0.11,0.88 0,0 -0.61,-0.02 -0.64,-0.03 -0.03,-0.01 -0.25,-0.13 -0.25,-0.13l-0.02 -0.44z"/>
  <polygon class="fil7" points="84.03,21.46 84.39,21.49 84.2,21.8 "/>
  <polygon class="fil7" points="83.78,24.03 83.94,24.36 84.26,24.07 84.25,21.77 84.15,21.79 "/>
  <path class="fil4" d="M84.49 19.48c-0.42,-0.03 -0.78,0.28 -0.82,0.69l-0.04 0.48c-0.03,0.42 0.28,0.78 0.69,0.82 0.42,0.03 0.78,-0.28 0.82,-0.69l0.04 -0.48c0.03,-0.42 -0.28,-0.78 -0.69,-0.82z"/>
  <path class="fil3" d="M85.18 20.27c0.02,-0.4 -0.29,-0.76 -0.69,-0.79 -0.19,-0.02 -0.37,0.04 -0.51,0.15 0.09,0.12 0.35,0.25 0.42,0.29 0.11,0.07 0.22,0.13 0.34,0.18 0.14,0.07 0.29,0.12 0.44,0.17z"/>
  <path class="fil3" d="M85.18 20.29c0.01,-0.15 -0.02,-0.29 -0.08,-0.41 -0.03,0.05 -0.05,0.11 -0.06,0.16 -0.02,0.1 -0.01,0.2 0.02,0.3 0.01,0.05 0.04,0.11 0.07,0.15 0.01,0.01 0.02,0.01 0.03,0.02l0.02 -0.22z"/>
  <path class="fil3" d="M85.39 21.69c-0.2,0.14 -4.58,3.33 -4.58,3.33l0.12 0.4 4.65 -2.67 0.14 -0.48 -0.32 -0.57z"/>
  <path class="fil3" d="M84.79 21.6l0.2 4.9 1.3 -0.36 -0.58 -3.88 -0.07 -0.35c-0.09,-0.15 -0.24,-0.26 -0.41,-0.28l-0.44 -0.03z"/>
  <path class="fil4" d="M82.86 27.25c0,0.2 -0.16,0.36 -0.36,0.36 -0.2,0 -0.36,-0.16 -0.36,-0.36 0,-0.2 0.16,-0.36 0.36,-0.36 0.2,0 0.36,0.16 0.36,0.36z"/>
  <path class="fil4" d="M81.12 25.23c0,0.21 -0.17,0.37 -0.37,0.37 -0.21,0 -0.37,-0.17 -0.37,-0.37 0,-0.21 0.17,-0.37 0.37,-0.37 0.21,0 0.37,0.17 0.37,0.37z"/>
  <path class="fil10" d="M76.98 23.17l3.77 2.33 0.12 -0.4c0,0 -3.51,-2.85 -3.71,-2.99l-0.3 -0.18 -0.64 0.01 -0.15 0.58c0,0 0.14,0.53 0.19,0.57 0.05,0.04 0.72,0.07 0.72,0.07z"/>
  <path class="fil10" d="M76.18 21.91l-0.82 0.07c-0.17,0.09 -0.35,0.22 -0.51,0.45l-1.54 2.08 1.79 1.9 0.18 -0.83 -1.19 -1.07 1.36 -1.47 0.73 -1.12z"/>
  <path class="fil3" d="M77.14 25.26l0.33 0.29 -0.01 3.4 -0.36 2.9c-0.01,0.12 -0.1,0.21 -0.22,0.23l0 0c-0.17,0.03 -0.33,-0.1 -0.32,-0.28l0.08 -2.85 0.1 -2.61 -0.63 0.05 -0.29 2.83 -0.37 3.89c-0.03,0.17 -0.17,0.31 -0.35,0.32l0 0c-0.25,0.02 -0.46,-0.19 -0.43,-0.44l0.32 -3.9 0.2 -3.47 0.49 -1.02 0.6 -0.13 0.85 0.79z"/>
  <path class="fil10" d="M77.26 22.62c-0.06,-0.33 -0.26,-0.71 -0.58,-0.61 -0.14,0.04 -1.15,0.08 -1.15,0.08l-0.32 0.57 0.14 0.48 -0.15 2.58c0,0 1.2,0.33 1.58,0.17 0.38,-0.16 0.71,-0.37 0.71,-0.37l-0.12 -2.23 -0.11 -0.68z"/>
  <path class="fil3" d="M76.96 31.87l0.82 0.41 -0.11 0.02c-0.18,0.03 -0.36,0.01 -0.53,-0.06l-0.56 -0.25 -0.01 -0.2 0.4 0.07z"/>
  <path class="fil3" d="M75.29 33.15c0,0 -0.07,0.72 -0.14,0.82 -0.07,0.1 -0.31,0.07 -0.39,-0.05 -0.07,-0.12 0.19,-0.92 0.19,-0.92l0.34 0.14z"/>
  <path class="fil10" d="M76.94 21.85c-0,-0.03 -0.05,-0.3 -0.05,-0.3 0,0 -0.74,-0.04 -0.76,0.01 -0.02,0.05 -0.11,0.88 -0.11,0.88 0,0 0.61,-0.02 0.64,-0.03 0.03,-0.01 0.25,-0.13 0.25,-0.13l0.02 -0.44z"/>
  <polygon class="fil7" points="77.06,21.81 76.71,21.84 76.89,22.15 "/>
  <polygon class="fil7" points="77.31,24.37 77.16,24.71 76.84,24.41 76.85,22.12 76.95,22.13 "/>
  <path class="fil4" d="M76.42 19.88c0.42,-0.03 0.78,0.28 0.82,0.69l0.04 0.48c0.03,0.42 -0.28,0.78 -0.69,0.82 -0.42,0.03 -0.78,-0.28 -0.82,-0.69l-0.04 -0.48c-0.03,-0.42 0.28,-0.78 0.69,-0.82z"/>
  <path class="fil3" d="M75.73 20.67c-0.02,-0.4 0.29,-0.76 0.69,-0.79 0.19,-0.02 0.37,0.04 0.51,0.15 -0.09,0.12 -0.35,0.25 -0.42,0.29 -0.11,0.07 -0.23,0.13 -0.34,0.18 -0.14,0.07 -0.29,0.12 -0.44,0.17z"/>
  <path class="fil3" d="M75.73 20.69c-0.01,-0.15 0.02,-0.29 0.08,-0.41 0.03,0.05 0.05,0.11 0.06,0.16 0.02,0.1 0.01,0.2 -0.02,0.3 -0.01,0.05 -0.04,0.11 -0.07,0.15 -0.01,0.01 -0.02,0.01 -0.03,0.02l-0.02 -0.22z"/>
  <path class="fil4" d="M75.59 26.09c0,0.2 -0.16,0.36 -0.36,0.36 -0.2,0 -0.36,-0.16 -0.36,-0.36 0,-0.2 0.16,-0.36 0.36,-0.36 0.2,0 0.36,0.16 0.36,0.36z"/>
  <path class="fil4" d="M80.36 25.12c0,0.21 0.17,0.37 0.37,0.37 0.21,0 0.37,-0.17 0.37,-0.37 0,-0.21 -0.17,-0.37 -0.37,-0.37 -0.21,0 -0.37,0.17 -0.37,0.37z"/>
  <path class="fil3" d="M17.03 9.5l-0.42 3.58 0.95 -0.04c0,0 0.59,-0.75 0.59,-0.87 0,-0.12 0.6,-0.47 0.26,-0.89 -0.34,-0.42 -1.38,-1.79 -1.38,-1.79z"/>
  <path class="fil3" d="M17.94 8.74l-0.83 0.18c-0.17,0.09 -0.29,0.26 -0.31,0.45l-0.67 4.73 0.47 0.04 0.68 -3.81 0.65 -1.6z"/>
  <path class="fil3" d="M17.29 10.34l-0.21 1.89 0.16 3.53 0.36 2.9c0.01,0.12 0.1,0.21 0.22,0.23l0 0c0.17,0.03 0.33,-0.1 0.32,-0.28l-0.08 -2.85 -0.1 -2.61 0.63 0.05 0.29 2.83 0.37 3.89c0.03,0.17 0.17,0.31 0.35,0.32l0 0c0.25,0.02 0.46,-0.19 0.43,-0.44l-0.32 -3.9 -0.2 -3.47 -0.49 -1.02 -0.6 -0.13 -1.12 -0.95z"/>
  <path class="fil10" d="M17.32 9.26c0.06,-0.33 0.39,-0.54 0.71,-0.44 0.14,0.04 1.15,0.08 1.15,0.08l0.32 0.57 -0.14 0.48 0.15 2.58c0,0 -1.2,0.33 -1.58,0.17 -0.38,-0.16 -0.81,-0.61 -0.81,-0.61l0.18 -2.69 0.03 -0.15z"/>
  <path class="fil3" d="M17.75 18.68l-0.82 0.41 0.11 0.02c0.18,0.03 0.36,0.01 0.53,-0.06l0.56 -0.25 0.01 -0.2 -0.4 0.07z"/>
  <path class="fil3" d="M19.42 19.96c0,0 0.07,0.72 0.14,0.82 0.07,0.1 0.31,0.07 0.39,-0.05 0.07,-0.12 -0.19,-0.92 -0.19,-0.92l-0.34 0.14z"/>
  <path class="fil10" d="M17.77 8.67c0,-0.03 0.05,-0.3 0.05,-0.3 0,0 0.74,-0.04 0.76,0.01 0.02,0.05 0.11,0.88 0.11,0.88 0,0 -0.61,-0.02 -0.64,-0.03 -0.03,-0.01 -0.25,-0.13 -0.25,-0.13l-0.02 -0.44z"/>
  <polygon class="fil7" points="17.82,8.68 18.18,8.71 17.99,9.02 "/>
  <polygon class="fil7" points="17.58,11.25 17.73,11.58 18.05,11.29 18.04,8.99 17.94,9 "/>
  <path class="fil4" d="M18.28 6.69c-0.42,-0.03 -0.78,0.28 -0.82,0.69l-0.04 0.48c-0.03,0.42 0.28,0.78 0.69,0.82 0.42,0.03 0.78,-0.28 0.82,-0.69l0.04 -0.48c0.03,-0.42 -0.28,-0.78 -0.69,-0.82z"/>
  <path class="fil3" d="M18.98 7.48c0.02,-0.4 -0.29,-0.76 -0.69,-0.79 -0.19,-0.02 -0.37,0.04 -0.51,0.15 0.09,0.12 0.35,0.25 0.42,0.29 0.11,0.07 0.23,0.13 0.34,0.18 0.14,0.07 0.29,0.12 0.44,0.17z"/>
  <path class="fil3" d="M18.98 7.51c0.01,-0.15 -0.02,-0.29 -0.08,-0.41 -0.03,0.05 -0.05,0.11 -0.06,0.16 -0.02,0.1 -0.01,0.2 0.02,0.3 0.01,0.05 0.04,0.11 0.08,0.15 0.01,0.01 0.02,0.01 0.03,0.02l0.02 -0.22z"/>
  <path class="fil3" d="M19.18 8.91c-0.2,0.14 -4.58,3.33 -4.58,3.33l0.12 0.4 4.65 -2.67 0.14 -0.48 -0.32 -0.57z"/>
  <path class="fil3" d="M18.58 8.81l0.2 4.9 1.3 -0.36 -0.58 -3.88 -0.07 -0.35c-0.09,-0.15 -0.24,-0.26 -0.41,-0.28l-0.44 -0.03z"/>
  <path class="fil4" d="M16.65 14.46c0,0.2 -0.16,0.36 -0.36,0.36 -0.2,0 -0.36,-0.16 -0.36,-0.36 0,-0.2 0.16,-0.36 0.36,-0.36 0.2,0 0.36,0.16 0.36,0.36z"/>
  <path class="fil4" d="M14.91 12.44c0,0.21 -0.17,0.37 -0.37,0.37 -0.21,0 -0.37,-0.17 -0.37,-0.37 0,-0.21 0.17,-0.37 0.37,-0.37 0.21,0 0.37,0.17 0.37,0.37z"/>
  <path class="fil3" d="M10.78 10.38l3.77 2.33 0.12 -0.4c0,0 -3.51,-2.85 -3.71,-2.99l-0.3 -0.18 -0.64 0.01 -0.15 0.58c0,0 0.14,0.53 0.19,0.57 0.05,0.04 0.72,0.07 0.72,0.07z"/>
  <path class="fil3" d="M9.98 9.12l-0.82 0.07c-0.17,0.09 -0.35,0.22 -0.51,0.45l-1.54 2.08 1.79 1.9 0.18 -0.83 -1.19 -1.07 1.36 -1.47 0.73 -1.12z"/>
  <path class="fil3" d="M10.94 12.47l0.33 0.29 -0.01 3.4 -0.36 2.9c-0.01,0.12 -0.1,0.21 -0.22,0.23l0 0c-0.17,0.03 -0.33,-0.1 -0.32,-0.28l0.08 -2.85 0.1 -2.61 -0.63 0.05 -0.29 2.83 -0.37 3.89c-0.03,0.17 -0.17,0.31 -0.35,0.32l0 0c-0.25,0.02 -0.46,-0.19 -0.43,-0.44l0.32 -3.9 0.2 -3.47 0.49 -1.02 0.6 -0.13 0.85 0.79z"/>
  <path class="fil3" d="M11.05 9.83c-0.06,-0.33 -0.26,-0.71 -0.58,-0.61 -0.14,0.04 -1.15,0.08 -1.15,0.08l-0.32 0.57 0.14 0.48 -0.15 2.58c0,0 1.2,0.33 1.58,0.17 0.38,-0.16 0.71,-0.37 0.71,-0.37l-0.12 -2.23 -0.11 -0.68z"/>
  <path class="fil3" d="M10.75 19.08l0.82 0.41 -0.11 0.02c-0.18,0.03 -0.37,0.01 -0.53,-0.06l-0.56 -0.25 -0.01 -0.2 0.4 0.07z"/>
  <path class="fil3" d="M9.08 20.36c0,0 -0.07,0.72 -0.14,0.82 -0.07,0.1 -0.31,0.07 -0.39,-0.05 -0.07,-0.12 0.19,-0.92 0.19,-0.92l0.34 0.14z"/>
  <path class="fil10" d="M10.73 9.07c-0,-0.03 -0.05,-0.3 -0.05,-0.3 0,0 -0.74,-0.04 -0.76,0.01 -0.02,0.05 -0.12,0.6 -0.12,0.6 0,0 0.63,0.26 0.65,0.25 0.03,-0.01 0.25,-0.13 0.25,-0.13l0.02 -0.44z"/>
  <polygon class="fil7" points="10.85,9.02 10.5,9.05 10.69,9.36 "/>
  <path class="fil4" d="M10.22 7.09c0.42,-0.03 0.78,0.28 0.82,0.69l0.04 0.48c0.03,0.42 -0.28,0.78 -0.69,0.82 -0.42,0.03 -0.78,-0.28 -0.82,-0.69l-0.04 -0.48c-0.03,-0.42 0.28,-0.78 0.69,-0.82z"/>
  <path class="fil3" d="M9.52 7.88c-0.02,-0.4 0.29,-0.76 0.69,-0.79 0.19,-0.02 0.37,0.04 0.51,0.15 -0.09,0.12 -0.35,0.25 -0.42,0.29 -0.11,0.07 -0.23,0.13 -0.34,0.18 -0.14,0.07 -0.29,0.12 -0.44,0.17z"/>
  <path class="fil3" d="M9.52 7.91c-0.01,-0.15 0.02,-0.29 0.08,-0.41 0.03,0.05 0.05,0.11 0.06,0.16 0.02,0.1 0.01,0.2 -0.02,0.3 -0.01,0.05 -0.04,0.11 -0.08,0.15 -0.01,0.01 -0.02,0.01 -0.03,0.02l-0.02 -0.22z"/>
  <path class="fil4" d="M9.38 13.3c0,0.2 -0.16,0.36 -0.36,0.36 -0.2,0 -0.36,-0.16 -0.36,-0.36 0,-0.2 0.16,-0.36 0.36,-0.36 0.2,0 0.36,0.16 0.36,0.36z"/>
  <path class="fil4" d="M14.15 12.33c0,0.21 0.17,0.37 0.37,0.37 0.21,0 0.37,-0.17 0.37,-0.37 0,-0.21 -0.17,-0.37 -0.37,-0.37 -0.21,0 -0.37,0.17 -0.37,0.37z"/>
  <polygon class="fil10" points="9.8,9.38 10.7,11.45 10.78,10.38 10.68,9.3 "/>
  <polygon class="fil7" points="11.1,11.59 10.95,11.92 10.63,11.63 10.64,9.33 10.74,9.34 "/>
  <path class="fil3" d="M16.55 39.73c0,0 -0.06,1.07 -0.15,1.18 -0.08,0.11 -0.37,0.08 -0.45,-0.06 -0.08,-0.14 0.23,-1.08 0.23,-1.08l0.37 -0.05z"/>
  <path class="fil11" d="M18.43 30.21l0.33 2.11 -0.26 4.22 -0.23 3.16c-0.02,0.14 0.05,0.22 -0.09,0.24l0 0c-0.2,0.04 -0.39,-0.12 -0.38,-0.33l0.1 -3.34 0.11 -3.06 -0.74 0.06 -0.34 3.62 -0.43 2.86 -0.32 0.07 0.08 -3.11 0.33 -4.17 0.19 -1.37 0.71 -0.15 0.93 -0.82z"/>
  <path class="fil3" d="M18.27 39.7l0.75 0.4 -0.05 0.09c-0.21,0.04 -0.3,0.03 -0.49,-0.06l-0.66 -0.29 -0.01 -0.23 0.47 0.09z"/>
  <path class="fil3" d="M16.13 26.22c0,0.34 0.28,0.62 0.62,0.62 0.34,0 0.62,-0.28 0.62,-0.62 0,-0.34 -0.28,-0.62 -0.62,-0.62 -0.34,0 -0.62,0.28 -0.62,0.62z"/>
  <path class="fil4" d="M17.81 27.94c0,0 0.14,0.98 0.06,1.08 -0.08,0.1 -0.46,-0.17 -0.47,-0.23 -0.04,-0.27 -0.1,-1.14 -0.1,-1.14l0.51 0.29z"/>
  <path class="fil4" d="M16.73 27.27c0.13,0.55 0.62,0.91 1.09,0.8 0.47,-0.11 0.74,-0.65 0.61,-1.2 -0.13,-0.55 -0.62,-0.91 -1.09,-0.8 -0.47,0.11 -0.74,0.65 -0.61,1.2z"/>
  <path class="fil10" d="M17.86 28.23c0,0 -0.02,0.71 -0.1,0.65 -0.08,-0.06 -0.41,-0.57 -0.41,-0.57l-0.71 0.92 0.3 1.64 -0.6 0.99c1.27,1.05 2.55,0.07 2.55,0.07l-0.28 -1.35c-0.03,-0.14 -0.01,-0.28 0.05,-0.4l0.11 -0.24c0.06,-0.12 0.07,-0.25 0.05,-0.38l-0.11 -0.59 0.03 -0.94 -0.88 0.2z"/>
  <path class="fil3" d="M17.13 26.49c0.24,-0.03 0.48,-0.06 0.72,-0.09 0.1,-0.02 0.22,-0.03 0.32,-0.05 -0.16,-0.17 -0.36,-0.33 -0.59,-0.34 -0.24,-0.01 -0.46,0.14 -0.65,0.29 -0.07,0.05 -0.13,0.11 -0.17,0.18 -0.03,0.07 -0.12,0.19 -0.12,0.27 -0.01,0.32 0.03,0.71 0.28,0.95 0.02,-0.09 0.1,-0.26 0.07,-0.35 -0.03,-0.08 -0.18,-0.15 -0.2,-0.24 -0.01,-0.08 0.02,-0.18 0.1,-0.21 0.08,-0.03 0.18,0.17 0.24,0.22 0.03,-0.18 -0,-0.35 -0,-0.63z"/>
  <path class="fil12 str0" d="M18.2 26.84c0.03,0.17 0.15,0.29 0.27,0.27 0.12,-0.02 0.2,-0.17 0.17,-0.34 -0.03,-0.17 -0.15,-0.29 -0.27,-0.27 -0.12,0.02 -0.2,0.17 -0.17,0.34z"/>
  <path class="fil12 str0" d="M17.64 27.04c0.03,0.17 0.15,0.29 0.27,0.27 0.12,-0.02 0.2,-0.17 0.17,-0.34 -0.03,-0.17 -0.15,-0.29 -0.27,-0.27 -0.12,0.02 -0.2,0.17 -0.17,0.34z"/>
  <path class="fil10" d="M20.73 24.38l-0.73 2.14 -1.26 1.52 -0.07 1.01 1.88 -2.12c0,0 0.61,-2.11 0.56,-2.19 -0.06,-0.09 -0.38,-0.35 -0.38,-0.35z"/>
  <path class="fil10" d="M17.13 29.09l-0.15 -0.26 -0.35 0.41 -1.08 1.99 -0.38 1.78c0,0 0.41,0.26 0.44,0.15 0.03,-0.12 0.35,-1.23 0.61,-1.73 0.26,-0.5 0.95,-1.45 0.95,-1.45l-0.04 -0.89z"/>
  <path class="fil4" d="M20.64 24.34c0,0.18 0.14,0.32 0.32,0.32 0.18,0 0.32,-0.14 0.32,-0.32 0,-0.18 -0.14,-0.32 -0.32,-0.32 -0.18,0 -0.32,0.14 -0.32,0.32z"/>
  <path class="fil4" d="M15 33.35c0,0.18 0.14,0.32 0.32,0.32 0.18,0 0.32,-0.14 0.32,-0.32 0,-0.18 -0.14,-0.32 -0.32,-0.32 -0.18,0 -0.32,0.14 -0.32,0.32z"/>
  <path class="fil13" d="M87.73 38.69c0,0.91 -0.74,1.65 -1.65,1.65 -0.91,0 -1.65,-0.74 -1.65,-1.65 0,-0.91 0.74,-1.65 1.65,-1.65 0.91,0 1.65,0.74 1.65,1.65z"/>
  <path class="fil13" d="M112.64 68.33c0,0.91 -0.74,1.65 -1.65,1.65 -0.91,0 -1.65,-0.74 -1.65,-1.65 0,-0.91 0.74,-1.65 1.65,-1.65 0.91,0 1.65,0.74 1.65,1.65z"/>
  <path class="fil13" d="M104 32.31c0,0.91 -0.74,1.65 -1.65,1.65 -0.91,0 -1.65,-0.74 -1.65,-1.65 0,-0.91 0.74,-1.65 1.65,-1.65 0.91,0 1.65,0.74 1.65,1.65z"/>
  <path class="fil13" d="M49.45 16.66c0,0.91 -0.74,1.65 -1.65,1.65 -0.91,0 -1.65,-0.74 -1.65,-1.65 0,-0.91 0.74,-1.65 1.65,-1.65 0.91,0 1.65,0.74 1.65,1.65z"/>
  <path class="fil13" d="M14.25 20.78c0,0.91 -0.74,1.65 -1.65,1.65 -0.91,0 -1.65,-0.74 -1.65,-1.65 0,-0.91 0.74,-1.65 1.65,-1.65 0.91,0 1.65,0.74 1.65,1.65z"/>
  <path class="fil13" d="M24.74 38.07c0,0.91 -0.74,1.65 -1.65,1.65 -0.91,0 -1.65,-0.74 -1.65,-1.65 0,-0.91 0.74,-1.65 1.65,-1.65 0.91,0 1.65,0.74 1.65,1.65z"/>
  <path class="fil13" d="M62.21 50.63c0,0.91 -0.74,1.65 -1.65,1.65 -0.91,0 -1.65,-0.74 -1.65,-1.65 0,-0.91 0.74,-1.65 1.65,-1.65 0.91,0 1.65,0.74 1.65,1.65z"/>
  <path class="fil12 str1" d="M13.17 19.54c8.99,-9.99 24.18,-11.43 34.9,-3.24"/>
  <path class="fil12 str2" d="M60.57 48.55c-0,0.14 -0.01,0.28 -0.01,0.43"/>
  <path class="fil12 str2" d="M60.67 49.55c-0.05,0.13 -0.11,0.26 -0.16,0.4"/>
  <path class="fil12 str2" d="M60.34 49.92c-0.07,-0.13 -0.13,-0.25 -0.2,-0.38"/>
  <path class="fil12 str3" d="M23.22 38.02c-0.13,0.06 -0.25,0.13 -0.38,0.2"/>
  <path class="fil3" d="M54.47 51.12c0,0 0.09,0.85 0.17,0.96 0.08,0.11 0.37,0.08 0.45,-0.06 0.09,-0.14 -0.23,-1.08 -0.23,-1.08l-0.4 0.17z"/>
  <path class="fil3" d="M51.98 41.22l-0.25 2.22 0.19 4.14 0.42 3.4c0.02,0.14 0.12,0.25 0.26,0.27l0 0c0.2,0.04 0.39,-0.12 0.38,-0.33l-0.1 -3.34 -0.11 -3.06 0.74 0.06 0.34 3.31 0.43 3.17c0.04,0.21 0.21,0.36 0.41,0.38l0 0c0.29,0.03 0.53,-0.22 0.5,-0.51l-0.38 -3.18 0.06 -5.23 -0.87 -0.03 -0.71 -0.15 -1.31 -1.11z"/>
  <path class="fil3" d="M52.52 51.01l-0.96 0.48 0.13 0.02c0.21,0.04 0.43,0.01 0.62,-0.07l0.66 -0.29 0.01 -0.23 -0.47 0.09z"/>
  <path class="fil3" d="M52.31 39.32l-0.34 0.19c-0.34,0.19 -0.58,0.51 -0.66,0.89l-0.24 1.16 1.36 0.48 0.44 -1.2 -0.56 -1.52z"/>
  <path class="fil3" d="M56.71 45.28l-1.69 -5.11c-0.14,-0.43 -0.52,-0.75 -0.97,-0.81l-0.58 -0.08 -1.16 0.04 -0.46 0.59 -0.13 3.26c0,0 0.27,0.89 1.38,0.85 1.12,-0.04 1.79,-1.25 1.79,-1.25l-0.01 -0.29c0.57,1.21 1.44,3 1.44,3l0.4 -0.2z"/>
  <polygon class="fil10" points="53.19,39.43 52.74,41.45 52.39,39.37 52.53,39.16 52.91,39.12 "/>
  <path class="fil4" d="M56.99 45.6c0,0.24 -0.19,0.43 -0.44,0.43 -0.24,0 -0.43,-0.19 -0.43,-0.43 0,-0.24 0.19,-0.43 0.43,-0.43 0.24,0 0.44,0.19 0.44,0.43z"/>
  <path class="fil10" d="M52.31 39.32l-0.02 -0.35 0.41 -0.07 0.64 0.02 0.13 0.37 -0.54 0.49c0,0 -0.13,-0.24 -0.15,-0.24 -0.03,0 -0.34,0.23 -0.34,0.23l-0.13 -0.45z"/>
  <polygon class="fil3" points="52.48,39.54 52.72,39.34 52.9,39.51 52.75,39.89 53.14,42.24 52.76,42.55 52.46,42.28 52.64,39.85 "/>
  <polygon class="fil7" points="50.87,40.68 52.87,40.84 53.15,43.32 51.27,43.12 "/>
  <path class="fil4" d="M51.24 42.12c0,0.21 -0.15,0.39 -0.33,0.39 -0.18,0 -0.33,-0.17 -0.33,-0.39 0,-0.21 0.15,-0.39 0.33,-0.39 0.18,0 0.33,0.17 0.33,0.39z"/>
  <path class="fil4" d="M53.67 38.02c0.03,0.64 -0.4,1.18 -0.95,1.21 -0.55,0.03 -1.03,-0.47 -1.06,-1.11 -0.03,-0.64 0.4,-1.18 0.95,-1.21 0.55,-0.03 1.03,0.47 1.06,1.11z"/>
  <path class="fil3" d="M51.83 37.42c0.32,0.25 0.81,0.3 1.25,0.07 0.12,-0.06 0.22,-0.14 0.31,-0.22 -0.2,-0.23 -0.47,-0.38 -0.77,-0.36 -0.33,0.02 -0.62,0.22 -0.79,0.52z"/>
  <path class="fil3" d="M53.26 37.14c-0.16,0.35 -0.11,0.81 0.17,1.18 0.05,0.07 0.11,0.12 0.17,0.18 0.05,-0.15 0.08,-0.31 0.07,-0.49 -0.02,-0.36 -0.18,-0.67 -0.41,-0.88z"/>
  <path class="fil12 str2" d="M59.96 50.12c0.14,0.03 0.27,0.07 0.41,0.11 0,0 0.1,-0.11 0.29,-0.31"/>
  <polygon class="fil12 str4" points="100.99,21.65 98.23,23.25 95.45,21.64 98.21,20.04 "/>
  <polygon class="fil12 str4" points="100.99,21.65 100.98,24.95 98.22,26.55 98.23,23.25 "/>
  <polygon class="fil12 str4" points="98.23,23.25 98.22,26.55 95.45,24.94 95.45,21.64 "/>
  <polygon class="fil12 str4" points="67.03,52.83 64.27,54.43 61.49,52.83 64.25,51.23 "/>
  <polygon class="fil12 str4" points="67.03,52.83 67.02,56.13 64.26,57.74 64.27,54.43 "/>
  <polygon class="fil12 str4" points="64.27,54.43 64.26,57.74 61.48,56.13 61.49,52.83 "/>
  <polygon class="fil12 str4" points="117.51,70.24 114.99,71.7 112.45,70.24 114.97,68.77 "/>
  <polygon class="fil12 str4" points="117.51,70.24 117.5,73.25 114.98,74.71 114.99,71.7 "/>
  <polygon class="fil12 str4" points="114.99,71.7 114.98,74.71 112.44,73.25 112.45,70.24 "/>
  <polygon class="fil1 str4" points="97.29,23.9 94.54,25.51 91.76,23.9 94.52,22.3 "/>
  <polygon class="fil1 str4" points="97.29,23.9 97.29,27.2 94.53,28.81 94.54,25.51 "/>
  <polygon class="fil1 str4" points="94.54,25.51 94.53,28.81 91.75,27.2 91.76,23.9 "/>
  <polygon class="fil12 str4" points="27.81,29.98 25.05,31.59 22.27,29.98 25.03,28.38 "/>
  <polygon class="fil12 str4" points="27.81,29.98 27.8,33.28 25.04,34.89 25.05,31.59 "/>
  <polygon class="fil12 str4" points="25.05,31.59 25.04,34.89 22.27,33.28 22.27,29.98 "/>
  <path class="fil6" d="M53.99 1.22l-8.82 0c-0.37,0 -0.67,0.3 -0.67,0.67 0,0.37 0.3,0.67 0.67,0.67l8.82 0c0.37,0 0.67,-0.3 0.67,-0.67 0,-0.37 -0.3,-0.67 -0.67,-0.67z"/>
  <path class="fil6" d="M57.48 0l-8.82 0c-0.37,0 -0.67,0.3 -0.67,0.67 0,0.37 0.3,0.67 0.67,0.67l8.82 0c0.37,0 0.67,-0.3 0.67,-0.67 0,-0.37 -0.3,-0.67 -0.67,-0.67z"/>
  <path class="fil6" d="M60.11 2.54l-8.82 0c-0.37,0 -0.67,0.3 -0.67,0.67 0,0.37 0.3,0.67 0.67,0.67l8.82 0c0.37,0 0.67,-0.3 0.67,-0.67 0,-0.37 -0.3,-0.67 -0.67,-0.67z"/>
  <path class="fil6" d="M114.57 46.24l7.16 0c0.3,0 0.54,-0.24 0.54,-0.54 0,-0.3 -0.24,-0.54 -0.54,-0.54l-7.16 0c-0.3,0 -0.54,0.24 -0.54,0.54 0,0.3 0.24,0.54 0.54,0.54z"/>
  <path class="fil6" d="M111.74 47.24l7.16 0c0.3,0 0.54,-0.24 0.54,-0.54 0,-0.3 -0.24,-0.54 -0.54,-0.54l-7.16 0c-0.3,0 -0.54,0.24 -0.54,0.54 0,0.3 0.24,0.54 0.54,0.54z"/>
  <path class="fil6" d="M109.6 45.17l7.16 0c0.3,0 0.54,-0.24 0.54,-0.54 0,-0.3 -0.24,-0.54 -0.54,-0.54l-7.16 0c-0.3,0 -0.54,0.24 -0.54,0.54 0,0.3 0.24,0.54 0.54,0.54z"/>
  <path class="fil14" d="M88.03 76.24l-7.16 0c-0.3,0 -0.54,0.24 -0.54,0.54 0,0.3 0.24,0.54 0.54,0.54l7.16 0c0.3,0 0.54,-0.24 0.54,-0.54 0,-0.3 -0.24,-0.54 -0.54,-0.54z"/>
  <path class="fil14" d="M90.85 75.25l-7.16 0c-0.3,0 -0.54,0.24 -0.54,0.54 0,0.3 0.24,0.54 0.54,0.54l7.16 0c0.3,0 0.54,-0.24 0.54,-0.54 0,-0.3 -0.24,-0.54 -0.54,-0.54z"/>
  <path class="fil14" d="M92.99 77.31l-7.16 0c-0.3,0 -0.54,0.24 -0.54,0.54 0,0.3 0.24,0.54 0.54,0.54l7.16 0c0.3,0 0.54,-0.24 0.54,-0.54 0,-0.3 -0.24,-0.54 -0.54,-0.54z"/>
  <path class="fil6" d="M30.84 0.83l-7.16 0c-0.3,0 -0.54,0.24 -0.54,0.54 0,0.3 0.24,0.54 0.54,0.54l7.16 0c0.3,0 0.54,-0.24 0.54,-0.54 0,-0.3 -0.24,-0.54 -0.54,-0.54z"/>
  <path class="fil6" d="M28.7 1.9l-7.16 0c-0.3,0 -0.54,0.24 -0.54,0.54 0,0.3 0.24,0.54 0.54,0.54l7.16 0c0.3,0 0.54,-0.24 0.54,-0.54 0,-0.3 -0.24,-0.54 -0.54,-0.54z"/>
  <path class="fil14" d="M19.81 77.93l-7.16 0c-0.3,0 -0.54,0.24 -0.54,0.54 0,0.3 0.24,0.54 0.54,0.54l7.16 0c0.3,0 0.54,-0.24 0.54,-0.54 0,-0.3 -0.24,-0.54 -0.54,-0.54z"/>
  <path class="fil14" d="M8.39 69.9l-5 0c-0.3,0 -0.54,0.24 -0.54,0.54 0,0.3 0.24,0.54 0.54,0.54l5 0c0.3,0 0.54,-0.24 0.54,-0.54 0,-0.3 -0.24,-0.54 -0.54,-0.54z"/>
  <path class="fil14" d="M10.87 68.81l-5 0c-0.3,0 -0.54,0.24 -0.54,0.54 0,0.3 0.24,0.54 0.54,0.54l5 0c0.3,0 0.54,-0.24 0.54,-0.54 0,-0.3 -0.24,-0.54 -0.54,-0.54z"/>
  <path class="fil14" d="M52.4 70.36l-5 0c-0.3,0 -0.54,0.24 -0.54,0.54 0,0.3 0.24,0.54 0.54,0.54l5 0c0.3,0 0.54,-0.24 0.54,-0.54 0,-0.3 -0.24,-0.54 -0.54,-0.54z"/>
  <path class="fil14" d="M51.34 71.44l-5 0c-0.3,0 -0.54,0.24 -0.54,0.54 0,0.3 0.24,0.54 0.54,0.54l5 0c0.3,0 0.54,-0.24 0.54,-0.54 0,-0.3 -0.24,-0.54 -0.54,-0.54z"/>
  <polygon class="fil15 str4" points="30.46,10.01 28.49,11.16 26.51,10.01 28.48,8.87 "/>
  <polygon class="fil15 str4" points="30.46,10.01 30.45,12.37 28.49,13.51 28.49,11.16 "/>
  <polygon class="fil15 str4" points="28.49,11.16 28.49,13.51 26.51,12.37 26.51,10.01 "/>
  <polygon class="fil1 str4" points="86.72,43.82 84.75,44.97 82.77,43.82 84.74,42.68 "/>
  <polygon class="fil1 str4" points="86.72,43.82 86.71,46.18 84.75,47.32 84.75,44.97 "/>
  <polygon class="fil1 str4" points="84.75,44.97 84.75,47.32 82.77,46.18 82.77,43.82 "/>
  <path class="fil12 str5" d="M34.88 55.46c0,1.31 -1.06,2.37 -2.37,2.37 -1.31,0 -2.37,-1.06 -2.37,-2.37 0,-1.31 1.06,-2.37 2.37,-2.37 1.31,0 2.37,1.06 2.37,2.37z"/>
  <path class="fil12 str6" d="M35.93 55.46c0,1.89 -1.53,3.42 -3.42,3.42 -1.89,0 -3.42,-1.53 -3.42,-3.42 0,-1.89 1.53,-3.42 3.42,-3.42 1.89,0 3.42,1.53 3.42,3.42z"/>
  <path class="fil16 str7" d="M12.6 20.78c17,1.47 23.63,13.04 19.91,34.68 -1.21,-9.19 -4.35,-14.99 -9.42,-17.39"/>
  <path class="fil16 str7" d="M86.09 38.69c-21.69,-5.26 -39.55,0.33 -53.57,16.77 8.69,-5.47 18.04,-7.08 28.05,-4.83"/>
  <path class="fil16 str7" d="M111 68.33c-30.71,4.08 -56.87,-0.21 -78.48,-12.87 9.68,-22.33 32.95,-30.05 69.84,-23.15"/>
  <path class="fil16 str7" d="M32.58 55.46c2.18,7.25 1.97,13.21 -0.64,17.88"/>
  <path class="fil16 str7" d="M32.51 55.46c6.15,-19.9 11.33,-32.96 15.55,-39.16"/>
  <path class="fil17" d="M34.16 55.46c0,0.91 -0.74,1.65 -1.65,1.65 -0.91,0 -1.65,-0.74 -1.65,-1.65 0,-0.91 0.74,-1.65 1.65,-1.65 0.91,0 1.65,0.74 1.65,1.65z"/>
  <g style="clip-path:url(#id0)">
   <g id="_2084298559472">
    <g>
     <rect class="fil18" x="30.56" y="53.81" width="3.9" height="1.06"/>
     <rect class="fil19" x="30.56" y="54.93" width="3.9" height="1.06"/>
     <rect class="fil20" x="30.56" y="56.05" width="3.9" height="1.06"/>
    </g>
   </g>
  </g>
  <path class="fil12 str8" d="M34.16 55.46c0,0.91 -0.74,1.65 -1.65,1.65 -0.91,0 -1.65,-0.74 -1.65,-1.65 0,-0.91 0.74,-1.65 1.65,-1.65 0.91,0 1.65,0.74 1.65,1.65z"/>
  <g id="_2084298559920">
   <circle class="fil21" cx="31.39" cy="55.46" r="0.06"/>
   <circle class="fil21" cx="31.77" cy="55.46" r="0.06"/>
   <circle class="fil21" cx="32.14" cy="55.46" r="0.06"/>
   <circle class="fil21" cx="32.51" cy="55.46" r="0.06"/>
   <circle class="fil21" cx="32.89" cy="55.46" r="0.06"/>
   <circle class="fil21" cx="33.26" cy="55.46" r="0.06"/>
   <circle class="fil21" cx="33.63" cy="55.46" r="0.06"/>
  </g>
  <g id="_2084298569456">
   <path class="fil3" d="M26.37 59.36c0,0 -0.09,0.86 -0.17,0.97 -0.09,0.11 -0.37,0.09 -0.46,-0.06 -0.09,-0.14 0.23,-1.09 0.23,-1.09l0.4 0.17z"/>
   <path class="fil3" d="M28.89 49.35l0.25 2.24 -0.19 4.19 -0.43 3.44c-0.02,0.14 -0.12,0.25 -0.26,0.28l0 0c-0.21,0.04 -0.4,-0.12 -0.38,-0.33l0.1 -3.38 0.11 -3.09 -0.75 0.06 -0.34 3.35 -0.43 3.21c-0.04,0.21 -0.21,0.36 -0.42,0.38l0 0c-0.3,0.03 -0.54,-0.23 -0.51,-0.52l0.38 -3.22 -0.06 -5.29 0.88 -0.03 0.71 -0.15 1.33 -1.12z"/>
   <path class="fil3" d="M28.34 59.24l0.97 0.49 -0.13 0.02c-0.21,0.04 -0.43,0.01 -0.63,-0.07l-0.67 -0.3 -0.01 -0.23 0.47 0.09z"/>
   <path class="fil3" d="M28.55 47.42l0.35 0.19c0.35,0.19 0.59,0.52 0.67,0.9l0.24 1.17 -1.38 0.49 -0.45 -1.22 0.57 -1.54z"/>
   <path class="fil3" d="M24.1 53.45l1.71 -5.17c0.14,-0.44 0.53,-0.76 0.98,-0.82l0.59 -0.08 1.17 0.04 0.47 0.6 0.14 3.3c0,0 -0.27,0.9 -1.4,0.86 -1.13,-0.05 -1.81,-1.27 -1.81,-1.27l0.01 -0.29c-0.58,1.22 -1.45,3.04 -1.45,3.04l-0.41 -0.2z"/>
   <polygon class="fil10" points="27.67,47.53 28.12,49.57 28.47,47.47 28.33,47.26 27.94,47.21 "/>
   <path class="fil4" d="M23.82 53.77c0,0.24 0.2,0.44 0.44,0.44 0.24,0 0.44,-0.2 0.44,-0.44 0,-0.24 -0.2,-0.44 -0.44,-0.44 -0.24,0 -0.44,0.2 -0.44,0.44z"/>
   <path class="fil10" d="M28.55 47.42l0.02 -0.36 -0.41 -0.07 -0.65 0.02 -0.13 0.37 0.54 0.5c0,0 0.13,-0.24 0.16,-0.24 0.03,0 0.35,0.23 0.35,0.23l0.13 -0.45z"/>
   <polygon class="fil3" points="28.38,47.64 28.14,47.44 27.96,47.61 28.1,48 27.71,50.37 28.09,50.69 28.4,50.42 28.22,47.96 "/>
   <polygon class="fil7" points="30.01,48.79 27.99,48.95 27.7,51.47 29.61,51.26 "/>
   <path class="fil4" d="M29.63 50.25c0,0.22 0.15,0.39 0.34,0.39 0.19,0 0.34,-0.18 0.34,-0.39 0,-0.22 -0.15,-0.39 -0.34,-0.39 -0.19,0 -0.34,0.17 -0.34,0.39z"/>
   <path class="fil4" d="M27.18 46.1c-0.03,0.65 0.4,1.19 0.96,1.22 0.56,0.03 1.04,-0.48 1.07,-1.13 0.03,-0.65 -0.4,-1.19 -0.96,-1.22 -0.56,-0.03 -1.04,0.48 -1.07,1.13z"/>
   <path class="fil3" d="M29.04 45.5c-0.33,0.26 -0.82,0.3 -1.26,0.07 -0.12,-0.06 -0.22,-0.14 -0.31,-0.23 0.2,-0.24 0.48,-0.38 0.78,-0.37 0.34,0.02 0.62,0.22 0.8,0.52z"/>
   <path class="fil3" d="M27.59 45.22c0.16,0.36 0.11,0.82 -0.17,1.2 -0.05,0.07 -0.11,0.13 -0.17,0.18 -0.05,-0.15 -0.08,-0.32 -0.07,-0.49 0.02,-0.37 0.18,-0.68 0.42,-0.89z"/>
  </g>
  <path class="fil13" d="M33.58 73.34c0,0.91 -0.74,1.65 -1.65,1.65 -0.91,0 -1.65,-0.74 -1.65,-1.65 0,-0.91 0.74,-1.65 1.65,-1.65 0.91,0 1.65,0.74 1.65,1.65z"/>
 </g>
</svg>
