<?xml version="1.0" encoding="UTF-8"?>
<!DOCTYPE svg PUBLIC "-//W3C//DTD SVG 1.1//EN" "http://www.w3.org/Graphics/SVG/1.1/DTD/svg11.dtd">
<!-- Creator: CorelDRAW 2018 (64-Bit) -->
<svg xmlns="http://www.w3.org/2000/svg" xml:space="preserve" width="0.449071in" height="0.359559in" version="1.1" style="shape-rendering:geometricPrecision; text-rendering:geometricPrecision; image-rendering:optimizeQuality; fill-rule:evenodd; clip-rule:evenodd"
viewBox="0 0 1677 1343"
 xmlns:xlink="http://www.w3.org/1999/xlink">
 <defs>
  <style type="text/css">
   <![CDATA[
    .fil0 {fill:white}
   ]]>
  </style>
 </defs>
 <g id="Layer_x0020_1">
  <metadata id="CorelCorpID_0Corel-Layer"/>
  <g id="_2656675103520">
   <g>
    <path class="fil0" d="M1106 174c6,0 11,-2 16,-6l41 -34c10,-9 12,-24 3,-35 -9,-10 -24,-12 -35,-3l-41 34c-10,9 -12,24 -3,35 5,6 12,9 19,9z"/>
    <path class="fil0" d="M1261 1246c49,0 89,-40 89,-89 0,-49 -40,-89 -89,-89 -49,0 -89,40 -89,89 0,49 40,89 89,89zm0 -129c22,0 40,18 40,40 0,22 -18,40 -40,40 -22,0 -40,-18 -40,-40 0,-22 18,-40 40,-40z"/>
    <path class="fil0" d="M706 134l41 34c5,4 10,6 16,6 7,0 14,-3 19,-9 9,-10 7,-26 -3,-35l-41 -34c-10,-9 -26,-7 -35,3 -9,10 -7,26 3,35z"/>
    <path class="fil0" d="M934 96c14,0 25,-11 25,-25l0 -47c0,-14 -11,-25 -25,-25 -14,0 -25,11 -25,25l0 47c0,14 11,25 25,25z"/>
    <path class="fil0" d="M1015 774c-14,0 -25,11 -25,25 0,14 11,25 25,25l72 0c14,0 25,-11 25,-25 0,-14 -11,-25 -25,-25l-72 0z"/>
    <path class="fil0" d="M467 380l-79 0c-21,0 -38,17 -38,38l0 64 -64 0c-21,0 -38,17 -38,38l0 79c0,21 17,38 38,38l64 0 0 64c0,21 17,38 38,38l79 0c21,0 38,-17 38,-38l0 -64 64 0c21,0 38,-17 38,-38l0 -79c0,-21 -17,-38 -38,-38l-64 0 0 -64c0,-21 -17,-38 -38,-38zm90 151l0 0 0 56 -67 0c-19,0 -35,16 -35,35l0 67 -56 0 0 -67c0,-19 -16,-35 -35,-35l-67 0 0 -56 67 0c19,0 35,-16 35,-35l0 -67 56 0 0 67c0,19 16,35 35,35l67 0z"/>
    <path class="fil0" d="M1604 661l-363 -328c-28,-25 -64,-39 -101,-39l-64 0 0 -66c0,-54 -44,-97 -97,-97l-88 0c-54,0 -97,44 -97,97l0 66 -620 0c-95,0 -173,78 -173,173l0 24c0,14 11,25 25,25 14,0 25,-11 25,-25l0 -24c0,-68 55,-124 124,-124l620 0 0 430 -744 0 0 -169c0,-14 -11,-25 -25,-25 -14,0 -25,11 -25,25l0 465c0,61 50,111 111,111l106 0c12,91 90,162 185,162 95,0 173,-71 185,-162l490 0c12,91 90,162 185,162 95,0 173,-71 185,-162l67 0c14,0 25,-11 25,-25 0,-14 -11,-25 -25,-25l-67 0c-12,-91 -90,-162 -185,-162 -95,0 -173,71 -185,162l-490 0c-12,-91 -90,-162 -185,-162 -95,0 -173,71 -185,162l-106 0c-34,0 -61,-28 -61,-61l0 -18 93 0c28,0 50,-23 50,-50l0 -79c0,0 0,-1 0,-1l566 0c46,0 83,-37 83,-83l0 -494 298 0c25,0 49,9 68,26l363 328c36,32 57,79 57,127l0 47 -93 0c-28,0 -50,23 -50,50l0 79c0,28 23,50 50,50l93 0 0 18c0,20 -10,38 -26,50 -11,8 -14,23 -6,34 5,7 12,10 20,10 5,0 10,-1 14,-5 29,-21 46,-54 46,-90l0 -245c0,-62 -27,-122 -73,-164zm-343 358c76,0 137,62 137,137 0,76 -62,137 -137,137 -76,0 -137,-62 -137,-137 0,-76 62,-137 137,-137zm-860 0c76,0 137,62 137,137 0,76 -62,137 -137,137 -76,0 -137,-62 -137,-137 0,-76 62,-137 137,-137zm-258 -17c0,1 -1,1 -1,1l-93 0 0 -82 93 0c1,0 1,1 1,1l0 79zm649 -164c0,19 -15,34 -34,34l-710 0 0 -49 744 0 0 15zm234 -543l-184 0 0 -66c0,-27 22,-48 48,-48l88 0c27,0 48,22 48,48l0 66zm602 708l-93 0c-1,0 -1,-1 -1,-1l0 -79c0,-1 1,-1 1,-1l93 0 0 82z"/>
    <path class="fil0" d="M402 1246c49,0 89,-40 89,-89 0,-49 -40,-89 -89,-89 -49,0 -89,40 -89,89 0,49 40,89 89,89zm0 -129c22,0 40,18 40,40 0,22 -18,40 -40,40 -22,0 -40,-18 -40,-40 0,-22 18,-40 40,-40z"/>
    <path class="fil0" d="M1383 668c10,-27 3,-56 -18,-75l0 0 -184 -166c-18,-16 -41,-25 -66,-25l-148 0c-38,0 -68,31 -68,68l0 174c0,38 31,68 68,68l352 0c28,0 53,-17 64,-44zm-435 -24l0 -174c0,-10 8,-19 19,-19l148 0c12,0 24,4 33,13l184 166c9,8 6,18 5,21 -1,3 -6,12 -18,12l-352 0c-10,0 -19,-8 -19,-19z"/>
   </g>
  </g>
 </g>
</svg>
