<?xml version="1.0" encoding="UTF-8"?>
<!DOCTYPE svg PUBLIC "-//W3C//DTD SVG 1.1//EN" "http://www.w3.org/Graphics/SVG/1.1/DTD/svg11.dtd">
<!-- Creator: CorelDRAW 2018 (64-Bit) -->
<svg xmlns="http://www.w3.org/2000/svg" xml:space="preserve" width="0.482122in" height="0.48213in" version="1.1" style="shape-rendering:geometricPrecision; text-rendering:geometricPrecision; image-rendering:optimizeQuality; fill-rule:evenodd; clip-rule:evenodd"
viewBox="0 0 1928 1928"
 xmlns:xlink="http://www.w3.org/1999/xlink">
 <defs>
  <style type="text/css">
   <![CDATA[
    .fil0 {fill:white}
   ]]>
  </style>
 </defs>
 <g id="Layer_x0020_1">
  <metadata id="CorelCorpID_0Corel-Layer"/>
  <g id="_2620468766784">
   <path class="fil0" d="M1928 964c0,532 -432,964 -964,964 -531,0 -964,-433 -964,-964 0,-532 433,-964 964,-964 194,0 383,59 543,168l148 -148 119 457 -457 -119 104 -104c-135,-87 -294,-135 -457,-135 -466,0 -845,379 -845,845 0,466 379,845 845,845 466,0 845,-379 845,-845l119 0 0 0zm-1204 9c-81,57 -136,106 -166,148 -29,41 -44,91 -44,150l0 0 434 0 0 -110 -279 0 0 -1c21,-29 60,-62 118,-99 62,-40 104,-75 127,-107 22,-32 34,-72 34,-120 0,-59 -20,-107 -59,-144 -40,-37 -91,-56 -154,-56 -67,0 -120,20 -158,61 -38,41 -56,95 -54,164l123 0c-1,-37 6,-66 22,-88 16,-22 38,-32 67,-32 27,0 48,9 64,26 16,17 24,40 24,68 0,26 -7,49 -22,71 -15,21 -40,44 -77,70zm513 298l0 -140 -252 0 0 -54 0 -54 235 -388 70 0 70 0 0 397 72 0 0 99 -72 0 0 140 -123 0 0 0zm0 -240l0 -265 -154 257 -5 9 160 0 0 0zm-235 -814l-59 0 0 119 59 0 0 -119zm0 1352l-59 0 0 119 59 0 0 -119zm706 -586l0 -59 -119 0 0 59 119 0zm-1352 0l0 -59 -119 0 0 59 119 0z"/>
  </g>
 </g>
</svg>
