<?xml version="1.0" encoding="UTF-8"?>
<!DOCTYPE svg PUBLIC "-//W3C//DTD SVG 1.1//EN" "http://www.w3.org/Graphics/SVG/1.1/DTD/svg11.dtd">
<!-- Creator: CorelDRAW 2018 (64-Bit) -->
<svg xmlns="http://www.w3.org/2000/svg" xml:space="preserve" width="3.87674in" height="4.58001in" version="1.1" style="shape-rendering:geometricPrecision; text-rendering:geometricPrecision; image-rendering:optimizeQuality; fill-rule:evenodd; clip-rule:evenodd"
viewBox="0 0 91.27 107.83"
 xmlns:xlink="http://www.w3.org/1999/xlink">
 <defs>
  <style type="text/css">
   <![CDATA[
    .str0 {stroke:#ED6E00;stroke-width:0.61;stroke-miterlimit:2.61313}
    .fil0 {fill:none;fill-rule:nonzero}
   ]]>
  </style>
 </defs>
 <g id="Layer_x0020_1">
  <metadata id="CorelCorpID_0Corel-Layer"/>
  <path class="fil0 str0" d="M79.97 22.02c4.94,1.03 9.77,-2.15 10.8,-7.08 1.03,-4.94 -2.15,-9.77 -7.08,-10.8 -6.75,-1.42 -13.51,-2.85 -20.31,-3.49l-0.53 -0.04c-7.18,-0.63 -14.5,-0.38 -22.05,1.54 -8.02,2.05 -16.07,6 -22.75,11.33 -6.4,5.12 -11.69,11.6 -14.72,19.06 -3.13,7.71 -3.75,16.22 -2.26,24.43 1.5,8.3 5.16,16.38 10.51,23.08 10.01,12.53 25.13,19.57 40.25,26.61 4.57,2.12 10,0.13 12.13,-4.44 2.12,-4.57 0.13,-10 -4.44,-12.13 -13.12,-6.11 -26.25,-12.22 -33.63,-21.46 -3.5,-4.38 -5.88,-9.62 -6.85,-14.96 -0.9,-4.93 -0.58,-9.91 1.18,-14.25 1.77,-4.34 5.1,-8.33 9.25,-11.64 4.73,-3.78 10.36,-6.56 15.89,-7.98 5.16,-1.32 10.46,-1.46 15.84,-1l0.48 0.06c6.09,0.57 12.19,1.86 18.28,3.14z"/>
 </g>
</svg>
