<?xml version="1.0" encoding="UTF-8"?>
<!DOCTYPE svg PUBLIC "-//W3C//DTD SVG 1.1//EN" "http://www.w3.org/Graphics/SVG/1.1/DTD/svg11.dtd">
<!-- Creator: CorelDRAW 2018 (64-Bit) -->
<svg xmlns="http://www.w3.org/2000/svg" xml:space="preserve" width="3.00165in" height="3.54511in" version="1.1" style="shape-rendering:geometricPrecision; text-rendering:geometricPrecision; image-rendering:optimizeQuality; fill-rule:evenodd; clip-rule:evenodd"
viewBox="0 0 64.04 75.63"
 xmlns:xlink="http://www.w3.org/1999/xlink">
 <defs>
  <style type="text/css">
   <![CDATA[
    .str0 {stroke:#ED6E00;stroke-width:0.55;stroke-miterlimit:2.61313}
    .fil0 {fill:none;fill-rule:nonzero}
   ]]>
  </style>
 </defs>
 <g id="Layer_x0020_1">
  <metadata id="CorelCorpID_0Corel-Layer"/>
  <path class="fil0 str0" d="M7.98 15.48c-3.46,0.72 -6.84,-1.5 -7.56,-4.96 -0.72,-3.46 1.5,-6.84 4.96,-7.56 4.73,-1 9.46,-2 14.22,-2.44l0.37 -0.02c5.03,-0.44 10.16,-0.27 15.44,1.08 5.61,1.44 11.25,4.2 15.93,7.94 4.48,3.58 8.18,8.13 10.31,13.35 2.19,5.4 2.63,11.36 1.58,17.11 -1.05,5.81 -3.61,11.47 -7.36,16.16 -7.01,8.77 -17.6,13.71 -28.18,18.63 -3.2,1.49 -7,0.09 -8.49,-3.11 -1.49,-3.2 -0.09,-7 3.11,-8.49 9.19,-4.28 18.38,-8.56 23.55,-15.03 2.45,-3.07 4.12,-6.74 4.8,-10.48 0.63,-3.45 0.41,-6.94 -0.83,-9.98 -1.24,-3.04 -3.57,-5.83 -6.47,-8.15 -3.31,-2.64 -7.25,-4.59 -11.13,-5.59 -3.61,-0.92 -7.33,-1.02 -11.09,-0.7l-0.34 0.04c-4.27,0.4 -8.54,1.3 -12.8,2.2z"/>
 </g>
</svg>
