<?xml version="1.0" encoding="UTF-8"?>
<!DOCTYPE svg PUBLIC "-//W3C//DTD SVG 1.1//EN" "http://www.w3.org/Graphics/SVG/1.1/DTD/svg11.dtd">
<!-- Creator: CorelDRAW 2018 (64-Bit) -->
<svg xmlns="http://www.w3.org/2000/svg" xml:space="preserve" width="3.79438in" height="4.12159in" version="1.1" style="shape-rendering:geometricPrecision; text-rendering:geometricPrecision; image-rendering:optimizeQuality; fill-rule:evenodd; clip-rule:evenodd"
viewBox="0 0 102.69 111.54"
 xmlns:xlink="http://www.w3.org/1999/xlink">
 <defs>
  <style type="text/css">
   <![CDATA[
    .str0 {stroke:#CCCCCC;stroke-width:0.19;stroke-miterlimit:2.61313}
    .fil0 {fill:none;fill-rule:nonzero}
   ]]>
  </style>
 </defs>
 <g id="Layer_x0020_1">
  <metadata id="CorelCorpID_0Corel-Layer"/>
  <path class="fil0 str0" d="M78.26 81.56c1.3,0.11 2.26,1.26 2.15,2.56 -0.11,1.3 -1.26,2.26 -2.56,2.15 -5.54,-0.48 -11.08,-0.97 -15.89,-1.78 -5.07,-0.85 -9.43,-2.08 -12.38,-4.06l-0.36 -0.26c-3.03,-2.18 -4.44,-5.11 -4.71,-8.06 -0.26,-2.88 0.59,-5.78 2.09,-8.01l0.23 -0.32c1.51,-2.1 3.58,-3.54 5.84,-4.43l0.01 -0 -0 -0c1.27,-0.5 2.61,-0.83 3.94,-1l0.03 -0.24c0.32,-2.7 1.14,-5.37 2.59,-7.45 1.69,-2.43 4.18,-4 7.06,-4.47 2.64,-0.43 5.58,0.1 8.48,1.78 2.75,1.6 5.46,4.25 7.84,7.53 2.35,3.24 4.42,7.12 5.92,11.22 1.55,4.25 2.5,8.76 2.66,13 0.15,4.06 -0.43,7.91 -1.92,11.12 -1.61,3.48 -4.23,6.14 -7.47,7.73 -3.18,1.56 -6.93,2.09 -10.86,1.35 -4.41,-0.83 -8.85,-3.22 -13.41,-5.67 -3.03,-1.63 -6.11,-3.29 -9.08,-4.43 -6.58,-2.53 -13.39,-2.88 -19.27,-3.19l-1.84 -0.1c-3.28,-0.18 -6.25,-0.42 -8.82,-0.8 -2.7,-0.39 -4.99,-0.94 -6.8,-1.73 -1.97,-0.85 -3.42,-2 -4.34,-3.29 -1.14,-1.59 -1.5,-3.37 -1.09,-5.1 0.41,-1.74 1.58,-3.37 3.69,-4.48 1.53,-0.81 3.6,-1.34 6.28,-1.4 2.41,-0.06 5.26,0.26 8.09,0.58 3.22,0.36 6.43,0.72 8.46,0.47 0.6,-0.07 1.09,-0.2 1.47,-0.36 0.43,-0.19 0.7,-0.41 0.84,-0.64l0.05 -0.08c0.06,-0.15 0.08,-0.31 0.06,-0.47 -0.01,-0.11 -0.05,-0.23 -0.11,-0.36l-0.05 -0.12c-0.23,-0.43 -0.73,-0.84 -1.61,-1.3 -1.31,-0.68 -3.27,-1.34 -6.07,-2.09 -1.49,-0.4 -3.35,-0.85 -5.31,-1.33 -5.35,-1.31 -11.44,-2.8 -15.35,-4.56l-0.46 -0.21c-2.79,-1.33 -4.47,-2.85 -5.34,-4.4 -1.07,-1.9 -1,-3.78 -0.25,-5.47l0.05 -0.11 0.06 -0.12c0.84,-1.7 2.41,-3.16 4.98,-3.83 1.86,-0.49 4.28,-0.55 7.36,0.07 3.53,0.71 7.88,2.26 11.98,3.73 3.19,1.14 6.23,2.23 8.39,2.75 2.07,0.5 3.23,0.51 3.86,0.26 0.25,-0.1 0.39,-0.36 0.5,-0.65 0.1,-0.27 0.15,-0.56 -0.02,-0.89 -0.42,-0.81 -1.49,-1.91 -3.7,-3.53 -1.82,-1.33 -4.26,-2.89 -6.86,-4.54 -4.73,-3.02 -9.94,-6.34 -12.94,-9.22l-0.03 -0.03c-0.32,-0.31 -0.64,-0.64 -0.95,-0.98 -2.05,-2.27 -2.84,-4.34 -2.88,-6.16 -0.04,-2.02 0.82,-3.63 1.98,-4.84 0.12,-0.12 0.27,-0.26 0.44,-0.42 1.39,-1.26 3.07,-2.04 5.45,-1.88 1.97,0.14 4.42,0.99 7.63,2.91 3.11,1.87 7.01,4.76 10.83,7.6 3.36,2.5 6.65,4.95 9.14,6.49 2.39,1.48 3.95,2.11 5,2.21 0.51,0.05 0.81,-0.1 1.04,-0.33l0.02 -0.02c0.24,-0.26 0.41,-0.61 0.37,-1.16 -0.08,-1.02 -0.67,-2.51 -2.11,-4.72 -1.35,-2.07 -3.44,-4.72 -5.6,-7.45 -3.03,-3.84 -6.2,-7.85 -7.96,-11.12 -1.52,-2.81 -1.99,-5.09 -1.8,-6.93 0.27,-2.69 1.79,-4.37 3.63,-5.41 1.65,-0.93 3.55,-1.36 6.01,-0.51 2.01,0.7 4.4,2.34 7.34,5.51 3.23,3.47 7.2,8.81 11.18,14.15 2.76,3.7 5.52,7.41 8,10.45 2.93,3.6 5.46,6.25 7.68,8.11 2.06,1.73 3.79,2.73 5.3,3.15 0.1,0.03 0.19,0.05 0.29,0.07l-0.35 -0.88c-1.63,-4.18 -3.04,-8.14 -3.91,-11.88 -0.9,-3.9 -1.22,-7.58 -0.59,-11.07 0.63,-3.5 2.21,-6.72 4.22,-9.15 2.2,-2.66 4.99,-4.42 7.74,-4.69 0.22,-0.02 0.41,-0.03 0.58,-0.04 2.62,-0.05 5.05,1.19 6.88,3.41 1.66,2.01 2.83,4.86 3.16,8.24 0.05,0.51 0.08,1.01 0.09,1.5 0.07,3.34 -0.68,7.15 -1.83,10.83 -1.35,4.3 -3.28,8.47 -5.12,11.47 -1.49,2.44 -2.97,4.19 -4.53,5.35 0.67,1.64 1.36,3.3 2.05,4.97 2.05,4.93 4.1,9.87 5.78,14.46 1.48,4.03 2.66,7.77 3.38,11.38 0.73,3.7 0.95,7.22 0.46,10.68 -0.48,3.36 -1.62,6.63 -3.19,9.59 -1.67,3.16 -3.85,5.98 -6.23,8.2 -2.2,2.04 -4.57,3.56 -7,4.66 -2.73,1.23 -5.53,1.92 -8.28,2.23 -2.49,0.28 -4.95,0.23 -7.32,-0.08 -2.52,-0.33 -4.92,-0.96 -7.15,-1.81 -4.22,-1.62 -7.69,-4.01 -11.15,-6.39l-0 0 -0 -0c-1.1,-0.72 -1.41,-2.18 -0.69,-3.28 0.72,-1.1 2.18,-1.41 3.28,-0.69l0 0 -0 0 0.05 0.04c3.25,2.24 6.5,4.48 10.22,5.91 1.89,0.72 3.92,1.26 6.06,1.53 1.99,0.26 4.07,0.3 6.19,0.06 2.29,-0.25 4.61,-0.83 6.85,-1.84 2,-0.9 3.94,-2.14 5.74,-3.82 2,-1.86 3.84,-4.25 5.27,-6.95 1.33,-2.5 2.29,-5.24 2.68,-8.03 0.41,-2.91 0.22,-5.91 -0.41,-9.1 -0.65,-3.29 -1.77,-6.81 -3.18,-10.65 -1.64,-4.46 -3.68,-9.37 -5.71,-14.27 -0.7,-1.68 -1.4,-3.36 -2.08,-5.03 -1.14,0.11 -2.31,-0.03 -3.53,-0.37 -2.16,-0.61 -4.48,-1.91 -7.07,-4.09 -2.43,-2.04 -5.15,-4.89 -8.29,-8.74 -2.53,-3.1 -5.33,-6.86 -8.13,-10.62 -3.93,-5.27 -7.85,-10.53 -10.86,-13.77 -2.36,-2.54 -4.09,-3.8 -5.42,-4.26 -0.88,-0.3 -1.55,-0.15 -2.13,0.17 -0.64,0.36 -1.18,0.92 -1.26,1.75 -0.1,0.97 0.23,2.33 1.25,4.21 1.53,2.83 4.6,6.72 7.53,10.43 2.22,2.81 4.36,5.53 5.84,7.8 1.91,2.93 2.72,5.17 2.86,6.94 0.17,2.19 -0.58,3.68 -1.66,4.81l-0.04 0.04c-1.14,1.17 -2.59,1.95 -4.87,1.74 -1.74,-0.16 -3.99,-0.99 -7.06,-2.9 -2.69,-1.67 -6.04,-4.17 -9.47,-6.71 -3.72,-2.77 -7.53,-5.6 -10.43,-7.34 -2.5,-1.5 -4.25,-2.15 -5.52,-2.24 -0.86,-0.06 -1.46,0.22 -1.95,0.66 -0.04,0.04 -0.11,0.1 -0.2,0.2 -0.38,0.4 -0.67,0.9 -0.66,1.47 0.02,0.77 0.47,1.78 1.65,3.09 0.2,0.22 0.44,0.47 0.73,0.74l0.03 0.02c2.69,2.58 7.68,5.76 12.21,8.65 2.7,1.72 5.25,3.35 7.11,4.71 2.85,2.08 4.36,3.74 5.09,5.17 0.98,1.9 0.77,3.35 0.26,4.72 -0.5,1.36 -1.32,2.66 -3.18,3.39 -1.48,0.58 -3.58,0.7 -6.72,-0.06 -2.47,-0.6 -5.59,-1.72 -8.87,-2.89 -3.99,-1.43 -8.22,-2.94 -11.32,-3.56 -2.32,-0.46 -4.02,-0.45 -5.22,-0.13 -1.05,0.27 -1.65,0.78 -1.94,1.34l-0.05 0.11c-0.16,0.36 -0.17,0.77 0.06,1.17 0.43,0.76 1.44,1.59 3.26,2.46l0.37 0.17c3.47,1.56 9.35,3 14.53,4.26 1.91,0.47 3.72,0.91 5.42,1.36 3.12,0.84 5.38,1.61 7.03,2.47 1.9,0.98 3.06,2.11 3.72,3.51 0.04,0.07 0.08,0.15 0.11,0.23 0.22,0.51 0.37,1.06 0.44,1.65 0.13,1.1 -0.03,2.24 -0.58,3.29 -0.04,0.08 -0.08,0.16 -0.12,0.24 -0.61,1.05 -1.61,1.97 -3.08,2.59 -0.78,0.33 -1.69,0.58 -2.74,0.71 -2.6,0.32 -6.07,-0.07 -9.56,-0.46 -2.69,-0.3 -5.4,-0.6 -7.46,-0.55 -1.88,0.04 -3.24,0.37 -4.18,0.87 -0.78,0.41 -1.19,0.91 -1.3,1.39 -0.09,0.39 0.02,0.82 0.33,1.26 0.44,0.61 1.22,1.2 2.38,1.7 1.42,0.61 3.32,1.06 5.61,1.39 2.42,0.35 5.25,0.58 8.4,0.76l1.81 0.1c6.22,0.32 13.43,0.7 20.73,3.5 3.33,1.28 6.51,2.99 9.64,4.67 4.24,2.28 8.36,4.5 12.03,5.19 2.89,0.55 5.61,0.17 7.89,-0.95 2.28,-1.12 4.14,-3.01 5.28,-5.47 1.14,-2.48 1.59,-5.59 1.47,-8.96 -0.14,-3.74 -0.99,-7.75 -2.37,-11.54 -1.35,-3.7 -3.2,-7.17 -5.29,-10.05 -2.02,-2.79 -4.24,-4.99 -6.4,-6.24 -1.89,-1.1 -3.73,-1.45 -5.33,-1.19 -1.6,0.26 -2.98,1.14 -3.94,2.51 -0.93,1.33 -1.49,3.13 -1.74,5.01 1.91,0.3 3.64,0.92 5.07,1.74 1.91,1.1 3.3,2.6 3.94,4.24 0.09,0.24 0.17,0.48 0.23,0.71 0.4,1.57 0.14,3.15 -0.56,4.47 -0.7,1.31 -1.85,2.38 -3.24,2.91 -0.22,0.09 -0.45,0.16 -0.67,0.21 -1.79,0.45 -3.82,0.06 -5.58,-1.3 -1.35,-1.05 -2.53,-2.67 -3.26,-4.92 -0.32,-0.99 -0.55,-2.12 -0.69,-3.33 -0.75,0.13 -1.5,0.34 -2.21,0.62l-0 -0c-1.48,0.58 -2.81,1.5 -3.75,2.8 -0.03,0.04 -0.01,0.02 -0.14,0.21 -0.93,1.39 -1.46,3.17 -1.3,4.93 0.15,1.68 0.98,3.37 2.77,4.65l0.24 0.16c2.31,1.55 6.05,2.57 10.5,3.32 4.71,0.79 10.12,1.26 15.53,1.74zm-14.19 -17.32c-0.75,-0.43 -1.65,-0.78 -2.66,-1.01 0.1,0.64 0.24,1.24 0.41,1.78 0.41,1.28 1.01,2.14 1.65,2.64 0.54,0.42 1.08,0.56 1.51,0.45 0.05,-0.01 0.09,-0.02 0.12,-0.04 0.32,-0.12 0.59,-0.39 0.77,-0.72 0.18,-0.33 0.25,-0.72 0.15,-1.09 -0.02,-0.06 -0.03,-0.12 -0.05,-0.16 -0.24,-0.63 -0.92,-1.29 -1.9,-1.86zm24.71 -23.78c0.76,-0.77 1.53,-1.82 2.36,-3.17 1.66,-2.71 3.41,-6.5 4.65,-10.42 1.01,-3.22 1.66,-6.5 1.61,-9.31 -0.01,-0.41 -0.03,-0.8 -0.06,-1.14 -0.23,-2.4 -1,-4.35 -2.08,-5.67 -0.91,-1.1 -2.02,-1.72 -3.14,-1.7 -0.1,0 -0.18,0.01 -0.23,0.01 -1.48,0.14 -3.13,1.27 -4.56,3 -1.53,1.84 -2.73,4.3 -3.21,6.97 -0.5,2.76 -0.21,5.83 0.56,9.16 0.81,3.49 2.14,7.24 3.69,11.21l0.42 1.06z"/>
 </g>
</svg>
