<?xml version="1.0" encoding="UTF-8"?>
<!DOCTYPE svg PUBLIC "-//W3C//DTD SVG 1.1//EN" "http://www.w3.org/Graphics/SVG/1.1/DTD/svg11.dtd">
<!-- Creator: CorelDRAW 2018 (64-Bit) -->
<svg xmlns="http://www.w3.org/2000/svg" xml:space="preserve" width="3.00645in" height="2.64239in" version="1.1" style="shape-rendering:geometricPrecision; text-rendering:geometricPrecision; image-rendering:optimizeQuality; fill-rule:evenodd; clip-rule:evenodd"
viewBox="0 0 63.49 55.8"
 xmlns:xlink="http://www.w3.org/1999/xlink">
 <defs>
  <style type="text/css">
   <![CDATA[
    .fil2 {fill:white}
    .fil0 {fill:#ED6E00}
    .fil1 {fill:#ED2E38}
   ]]>
  </style>
 </defs>
 <g id="Layer_x0020_1">
  <metadata id="CorelCorpID_0Corel-Layer"/>
  <path class="fil0" d="M31.75 55.8c-0.44,0 -0.87,-0.15 -1.22,-0.46 -2.71,-2.37 -5.28,-4.56 -7.7,-6.62 -13.67,-11.65 -22.82,-19.34 -22.82,-30.55 0,-10.36 7.32,-18.17 16.86,-18.17 7.52,0 12.35,5.26 14.88,9.99 2.53,-4.73 7.36,-9.99 14.88,-9.99 9.54,0 16.86,7.81 16.86,18.17 0,11.21 -9.15,18.9 -22.82,30.55 -2.42,2.06 -5,4.26 -7.7,6.62 -0.35,0.31 -0.79,0.46 -1.22,0.46z"/>
  <path class="fil1" d="M32.97 55.34c2.71,-2.37 5.28,-4.56 7.7,-6.62 13.67,-11.65 22.82,-19.34 22.82,-30.55 0,-10.36 -7.32,-18.17 -16.86,-18.17 -7.52,0 -12.35,5.26 -14.88,9.99l0 45.82c0.44,0 0.87,-0.15 1.22,-0.46z"/>
  <rect class="fil2" x="29.38" y="17.86" width="4.74" height="23.59" rx="2.37" ry="2.37"/>
  <rect class="fil2" transform="matrix(1.4269E-13 5.38767 -5.38767 1.4269E-13 43.5385 27.2781)" width="0.88" height="4.38" rx="0.44" ry="0.44"/>
 </g>
</svg>
