<?xml version="1.0" encoding="UTF-8"?>
<!DOCTYPE svg PUBLIC "-//W3C//DTD SVG 1.1//EN" "http://www.w3.org/Graphics/SVG/1.1/DTD/svg11.dtd">
<!-- Creator: CorelDRAW 2018 (64-Bit) -->
<svg xmlns="http://www.w3.org/2000/svg" xml:space="preserve" width="16.9777in" height="13.8124in" version="1.1" style="shape-rendering:geometricPrecision; text-rendering:geometricPrecision; image-rendering:optimizeQuality; fill-rule:evenodd; clip-rule:evenodd"
viewBox="0 0 1408.66 1146.04"
 xmlns:xlink="http://www.w3.org/1999/xlink">
 <defs>
  <style type="text/css">
   <![CDATA[
    .fil0 {fill:white;fill-rule:nonzero}
    .fil1 {fill:#ED6E00;fill-rule:nonzero}
   ]]>
  </style>
 </defs>
 <g id="Layer_x0020_1">
  <metadata id="CorelCorpID_0Corel-Layer"/>
  <path class="fil0" d="M1377.29 1065.36c-2.54,-3.9 -1.43,-9.12 2.47,-11.65 3.86,-2.51 9.02,-1.44 11.57,2.38 7.34,10.86 14.67,21.75 16.59,35.95 1.02,7.5 0.41,15.76 -1.87,23.4 -2.17,7.28 -5.88,14.06 -11.19,19.22 -5.51,5.35 -12.56,8.82 -20.08,10.39 -7.59,1.58 -15.77,1.25 -23.39,-1.02 -14.24,-4.23 -25.48,-14.7 -36.71,-25.16l-0.25 -0.25c-3.29,-3.33 -3.25,-8.68 0.08,-11.94 3.32,-3.27 8.67,-3.22 11.94,0.1 9.71,9.06 19.44,18.06 29.72,21.11 4.93,1.46 10.23,1.68 15.17,0.65 4.55,-0.95 8.71,-2.94 11.82,-5.96 3.12,-3.03 5.38,-7.26 6.76,-11.92 1.57,-5.27 1.98,-11.04 1.26,-16.34 -1.41,-10.41 -7.62,-19.63 -13.83,-28.84l-0.07 -0.13z"/>
  <path class="fil1" d="M969.66 778.73c-2.98,3.59 -8.3,4.09 -11.89,1.11 -3.59,-2.98 -4.09,-8.3 -1.11,-11.89 3.95,-4.77 7.91,-9.55 12.73,-14.15 4.96,-4.75 10.5,-8.91 17.17,-11.89 6.94,-3.1 15.03,-4.85 22.93,-4.83 7.6,0.03 15.17,1.68 21.61,5.32 6.7,3.78 12.02,9.57 15.65,16.36 3.65,6.83 5.63,14.77 5.6,22.71 -0.04,14.87 -6.91,28.59 -13.78,42.31 -0.85,1.7 -2.2,2.99 -3.78,3.77 -2.22,1.12 -4.92,1.24 -7.35,0.11 -2.45,-1.15 -4.1,-3.33 -4.65,-5.78l-0.04 -0.16c-0.38,-1.8 -0.17,-3.74 0.72,-5.51 5.99,-11.97 11.98,-23.94 12.02,-34.75 0.02,-5.14 -1.27,-10.3 -3.65,-14.75 -2.19,-4.09 -5.27,-7.51 -9.03,-9.63 -3.79,-2.14 -8.47,-3.12 -13.32,-3.13 -5.57,-0.02 -11.24,1.21 -16.08,3.37 -4.67,2.09 -8.69,5.14 -12.36,8.65 -3.82,3.66 -7.61,8.22 -11.38,12.77z"/>
  <path class="fil0" d="M838.27 1066.48c-4.46,1.08 -8.99,-1.61 -10.16,-6.07 -1.19,-4.51 1.51,-9.14 6.03,-10.32l1.08 -0.21c12.71,-2.35 25.43,-4.61 39.13,-0.74l0.03 0.01c7.32,2.06 14.67,5.91 20.74,11.02 5.79,4.88 10.52,10.99 13.14,17.93 2.71,7.19 3.08,15.04 1.52,22.56l-0.13 0.54c-1.64,7.43 -5.16,14.6 -10.14,20.52 -9.43,11.22 -23.39,17.35 -37.38,23.44 -4.2,2.07 -9.26,0.33 -11.3,-3.87 -2.04,-4.19 -0.3,-9.25 3.89,-11.3l0.03 0.02 0.33 -0.15c12.25,-5.33 24.5,-10.67 31.53,-19.03 3.22,-3.83 5.5,-8.43 6.55,-13.18l0.08 -0.44c0.94,-4.54 0.77,-9.15 -0.76,-13.2 -1.53,-4.06 -4.51,-7.81 -8.24,-10.95 -4.24,-3.57 -9.36,-6.25 -14.46,-7.7 -9.91,-2.81 -20.71,-0.87 -31.51,1.12z"/>
  <path class="fil0" d="M500.65 778.26c1.69,4.34 -0.47,9.24 -4.81,10.92 -4.34,1.69 -9.24,-0.47 -10.92,-4.81 -2.26,-5.77 -4.53,-11.55 -6.23,-17.98 -1.76,-6.64 -2.73,-13.5 -2.12,-20.72 0.64,-7.58 3.03,-15.53 6.9,-22.47 3.69,-6.62 8.79,-12.42 15.1,-16.31 6.53,-4.02 14.16,-5.87 21.86,-5.77 7.78,0.11 15.71,2.21 22.63,6.07 6.61,3.68 12.18,8.85 17.22,14.77 4.66,5.47 8.9,11.63 13.13,17.8 2.63,3.83 1.65,9.08 -2.18,11.7 -3.83,2.63 -9.08,1.65 -11.7,-2.18 -3.9,-5.69 -7.81,-11.38 -12.07,-16.37 -3.86,-4.54 -7.99,-8.42 -12.61,-11 -4.5,-2.51 -9.62,-3.88 -14.63,-3.95 -4.63,-0.06 -9.13,0.98 -12.82,3.26 -3.7,2.28 -6.83,5.92 -9.2,10.18 -2.69,4.83 -4.36,10.36 -4.8,15.64 -0.44,5.16 0.28,10.16 1.58,15.06 1.35,5.12 3.51,10.64 5.68,16.14z"/>
  <path class="fil1" d="M1377.3 13c-2.54,-3.9 -1.43,-9.12 2.47,-11.65 3.86,-2.51 9.02,-1.44 11.57,2.38 7.34,10.87 14.67,21.74 16.59,35.95 1.02,7.5 0.41,15.76 -1.87,23.4l0.01 0.03c-2.16,7.25 -5.88,14.01 -11.2,19.19 -5.51,5.35 -12.55,8.82 -20.08,10.39 -7.59,1.59 -15.77,1.24 -23.39,-1.02 -14.18,-4.21 -25.37,-14.59 -36.54,-25l-0.05 -0.01c-3.49,-3.1 -3.81,-8.44 -0.71,-11.93 3.1,-3.49 8.44,-3.81 11.93,-0.71l0.18 0.19c9.79,9.12 19.59,18.24 29.96,21.32 4.92,1.47 10.23,1.68 15.16,0.65 4.55,-0.95 8.71,-2.94 11.82,-5.97 3.1,-3.02 5.36,-7.25 6.76,-11.95 1.58,-5.26 1.99,-11.03 1.27,-16.32 -1.41,-10.41 -7.62,-19.63 -13.83,-28.84l-0.07 -0.13z"/>
  <path class="fil0" d="M724.34 495.52c-4.59,-0.77 -7.7,-5.13 -6.92,-9.72 0.77,-4.59 5.13,-7.7 9.72,-6.92 6.16,1.03 12.32,2.07 18.65,3.9 6.57,1.9 12.94,4.6 18.88,8.88 6.2,4.47 11.79,10.59 15.73,17.43 3.78,6.57 6.14,13.93 6.23,21.34 0.09,7.66 -2.26,15.16 -6.31,21.72 -4.1,6.63 -9.98,12.36 -16.84,16.3 -12.82,7.38 -28.12,8.33 -43.42,9.28l-1.1 -0c-4.17,-0.22 -7.63,-3.53 -7.94,-7.81 -0.31,-4.24 2.58,-7.97 6.62,-8.84 0.43,-0.1 0.88,-0.16 1.33,-0.19 13.33,-0.83 26.66,-1.66 36.08,-7.08 4.48,-2.58 8.29,-6.27 10.92,-10.51 2.43,-3.92 3.83,-8.31 3.78,-12.66 -0.05,-4.35 -1.56,-8.89 -4,-13.12 -2.78,-4.84 -6.67,-9.12 -10.94,-12.2 -4.14,-2.99 -8.8,-4.93 -13.71,-6.35 -5.16,-1.49 -10.96,-2.47 -16.75,-3.44z"/>
  <path class="fil0" d="M379.95 1096.29c-2.98,3.59 -8.3,4.09 -11.89,1.11 -3.59,-2.98 -4.09,-8.3 -1.11,-11.89 3.95,-4.77 7.91,-9.54 12.72,-14.15 4.96,-4.75 10.5,-8.91 17.17,-11.89 6.94,-3.1 15.03,-4.85 22.93,-4.83l0.03 0c7.57,0.02 15.12,1.68 21.58,5.33 6.69,3.78 12.02,9.57 15.65,16.36 3.65,6.83 5.63,14.77 5.6,22.71 -0.02,7.57 -1.86,14.97 -4.6,22.26 -2.62,6.96 -5.91,13.53 -9.2,20.08 -2.09,4.17 -7.17,5.85 -11.33,3.76 -4.17,-2.09 -5.85,-7.17 -3.76,-11.33 3.15,-6.29 6.31,-12.59 8.53,-18.48 2.09,-5.56 3.49,-11.03 3.51,-16.31 0.02,-5.14 -1.27,-10.3 -3.65,-14.76 -2.19,-4.08 -5.26,-7.5 -9.03,-9.63 -3.78,-2.14 -8.47,-3.11 -13.36,-3.13 -5.55,-0.02 -11.21,1.2 -16.05,3.36 -4.68,2.09 -8.69,5.13 -12.36,8.64 -3.82,3.66 -7.6,8.22 -11.38,12.78z"/>
  <path class="fil0" d="M1394.16 581.51c3.17,-3.32 8.43,-3.49 11.81,-0.36 3.41,3.16 3.62,8.48 0.46,11.89l-0.14 0.15c-9.02,9.44 -18.05,18.89 -31.61,23.82 -7.18,2.62 -15.38,3.8 -23.23,3.22 -7.54,-0.56 -14.95,-2.75 -21.15,-6.85 -6.41,-4.24 -11.31,-10.4 -14.45,-17.43 -3.17,-7.11 -4.6,-15.17 -4.01,-23.06 0.56,-7.5 2.92,-14.74 6.19,-21.85 3.07,-6.69 6.85,-13.04 10.61,-19.39 2.38,-4 7.55,-5.31 11.55,-2.93 4,2.38 5.31,7.55 2.93,11.55 -3.57,6.01 -7.13,12.03 -9.79,17.81 -2.47,5.37 -4.25,10.73 -4.64,16.05 -0.38,5.16 0.53,10.39 2.57,14.97 1.89,4.23 4.72,7.85 8.32,10.24 3.61,2.39 8.23,3.69 13.11,4.05 5.57,0.41 11.31,-0.4 16.26,-2.2 9.78,-3.56 17.49,-11.62 25.2,-19.66z"/>
  <path class="fil0" d="M999.25 283.15c-4.58,0.86 -8.99,-2.15 -9.86,-6.73 -0.86,-4.58 2.15,-8.99 6.73,-9.86 12.87,-2.38 25.76,-4.76 39.63,-0.83l0.03 0.01c7.33,2.06 14.67,5.91 20.74,11.02 5.8,4.88 10.53,10.99 13.15,17.93 2.71,7.18 3.08,15.03 1.52,22.56 -1.58,7.6 -5.16,14.98 -10.28,21.07 -9.5,11.3 -23.61,17.45 -37.71,23.59l-0.09 0.04c-4.31,1.83 -9.25,-0.19 -11.06,-4.48 -1.81,-4.29 0.21,-9.24 4.51,-11.05 12.24,-5.31 24.45,-10.64 31.46,-18.98 3.3,-3.93 5.61,-8.7 6.64,-13.62 0.94,-4.54 0.77,-9.15 -0.76,-13.2 -1.53,-4.06 -4.51,-7.82 -8.25,-10.96 -4.23,-3.56 -9.36,-6.25 -14.46,-7.7 -10.03,-2.84 -20.99,-0.82 -31.93,1.2z"/>
  <path class="fil1" d="M82.46 1066.66c3.23,-3.35 8.57,-3.46 11.92,-0.23 3.35,3.23 3.46,8.57 0.23,11.92 -4.4,4.6 -8.81,9.21 -13.65,13.23l-0.38 0.3c-5.15,4.22 -10.85,7.85 -17.6,10.31 -7.18,2.61 -15.37,3.8 -23.23,3.21 -7.54,-0.56 -14.95,-2.75 -21.15,-6.85 -6.41,-4.24 -11.31,-10.4 -14.45,-17.44 -3.18,-7.11 -4.6,-15.17 -4.02,-23.06 1.1,-14.76 8.95,-28 16.8,-41.24 2.38,-4 7.55,-5.31 11.55,-2.93 4,2.38 5.31,7.55 2.93,11.55 -6.82,11.49 -13.63,22.99 -14.44,33.87 -0.38,5.16 0.53,10.39 2.58,14.97 1.89,4.23 4.72,7.85 8.32,10.24 3.61,2.39 8.23,3.69 13.11,4.05 5.57,0.41 11.31,-0.4 16.26,-2.2 4.61,-1.68 8.73,-4.34 12.59,-7.49l0.34 -0.29c4.35,-3.6 8.32,-7.77 12.29,-11.92z"/>
 </g>
</svg>
