<?xml version="1.0" encoding="UTF-8"?>
<!DOCTYPE svg PUBLIC "-//W3C//DTD SVG 1.1//EN" "http://www.w3.org/Graphics/SVG/1.1/DTD/svg11.dtd">
<!-- Creator: CorelDRAW 2018 (64-Bit) -->
<svg xmlns="http://www.w3.org/2000/svg" xml:space="preserve" width="0.674138in" height="0.670878in" version="1.1" style="shape-rendering:geometricPrecision; text-rendering:geometricPrecision; image-rendering:optimizeQuality; fill-rule:evenodd; clip-rule:evenodd"
viewBox="0 0 3.48 3.46"
 xmlns:xlink="http://www.w3.org/1999/xlink">
 <defs>
  <style type="text/css">
   <![CDATA[
    .fil0 {fill:#ED6E00;fill-rule:nonzero}
   ]]>
  </style>
 </defs>
 <g id="Layer_x0020_1">
  <metadata id="CorelCorpID_0Corel-Layer"/>
  <path class="fil0" d="M0.5 1.26c-0.13,0.11 -0.33,0.09 -0.43,-0.04 -0.11,-0.13 -0.09,-0.33 0.04,-0.43 0.18,-0.15 0.36,-0.3 0.55,-0.42l0.02 -0.01c0.2,-0.13 0.43,-0.24 0.68,-0.3 0.27,-0.06 0.57,-0.07 0.86,-0.02 0.27,0.05 0.53,0.16 0.74,0.34 0.21,0.18 0.37,0.43 0.45,0.69 0.08,0.27 0.1,0.57 0.05,0.85 -0.1,0.53 -0.44,0.98 -0.78,1.42 -0.1,0.13 -0.3,0.16 -0.43,0.06 -0.13,-0.1 -0.16,-0.3 -0.06,-0.43 0.3,-0.39 0.59,-0.77 0.67,-1.17 0.04,-0.19 0.03,-0.38 -0.03,-0.55 -0.05,-0.16 -0.14,-0.3 -0.26,-0.41 -0.12,-0.1 -0.28,-0.17 -0.46,-0.2 -0.2,-0.04 -0.41,-0.03 -0.6,0.01 -0.17,0.04 -0.33,0.12 -0.49,0.22l-0.01 0.01c-0.17,0.11 -0.33,0.25 -0.5,0.38z"/>
 </g>
</svg>
