<?xml version="1.0" encoding="UTF-8"?>
<!DOCTYPE svg PUBLIC "-//W3C//DTD SVG 1.1//EN" "http://www.w3.org/Graphics/SVG/1.1/DTD/svg11.dtd">
<!-- Creator: CorelDRAW 2018 (64-Bit) -->
<svg xmlns="http://www.w3.org/2000/svg" xml:space="preserve" width="5.59588in" height="5.26175in" version="1.1" style="shape-rendering:geometricPrecision; text-rendering:geometricPrecision; image-rendering:optimizeQuality; fill-rule:evenodd; clip-rule:evenodd"
viewBox="0 0 223.04 209.73"
 xmlns:xlink="http://www.w3.org/1999/xlink">
 <defs>
  <style type="text/css">
   <![CDATA[
    .str0 {stroke:#F2F4F6;stroke-width:0.55;stroke-miterlimit:2.61313}
    .fil0 {fill:none;fill-rule:nonzero}
   ]]>
  </style>
 </defs>
 <g id="Layer_x0020_1">
  <metadata id="CorelCorpID_0Corel-Layer"/>
  <path class="fil0 str0" d="M98.31 161.19c1.67,1.75 1.53,4.45 -0.32,6.04 -1.84,1.58 -4.69,1.45 -6.36,-0.3 -7.11,-7.46 -14.22,-14.92 -19.89,-21.9 -5.98,-7.37 -10.48,-14.36 -12.03,-20.6l-0.17 -0.78c-1.4,-6.62 0.41,-12.23 3.86,-16.48 3.36,-4.15 8.3,-6.94 13.28,-8.05l0.74 -0.14c4.83,-0.92 9.59,-0.29 13.89,1.3l0.02 0.01 0 -0.01c2.43,0.9 4.72,2.11 6.8,3.52l0.34 -0.28c3.93,-3.19 8.56,-5.72 13.26,-6.69 5.51,-1.14 11.02,-0.17 15.64,2.75 4.24,2.68 7.66,6.99 9.53,12.8 1.77,5.5 2.13,12.35 1.2,19.63 -0.91,7.18 -3.05,14.87 -6.27,22.16 -3.34,7.54 -7.85,14.7 -13.12,20.51 -5.05,5.57 -10.85,9.96 -17.08,12.4 -6.74,2.64 -13.86,2.93 -20.45,1.06 -6.46,-1.83 -12.38,-5.74 -16.91,-11.56 -5.08,-6.53 -8.19,-15.16 -11.38,-24.02 -2.12,-5.88 -4.28,-11.88 -6.95,-17.05 -5.91,-11.45 -14.97,-20.29 -22.79,-27.93l-2.44 -2.39c-4.35,-4.28 -8.17,-8.25 -11.28,-11.91 -3.26,-3.84 -5.75,-7.38 -7.27,-10.66 -1.65,-3.55 -2.18,-6.86 -1.8,-9.71 0.47,-3.52 2.27,-6.3 5.09,-8.11 2.82,-1.8 6.57,-2.53 10.95,-1.41 3.18,0.81 6.76,2.65 10.59,5.86 3.43,2.89 7,6.81 10.55,10.71 4.04,4.44 8.05,8.86 11.2,11.02 0.94,0.64 1.77,1.07 2.51,1.32 0.85,0.29 1.51,0.32 2.01,0.18l0.18 -0.05c0.27,-0.12 0.51,-0.31 0.69,-0.55 0.12,-0.16 0.23,-0.37 0.32,-0.61l0.09 -0.21c0.23,-0.85 0.07,-2.01 -0.57,-3.69 -0.95,-2.5 -2.83,-5.79 -5.77,-10.24 -1.56,-2.36 -3.58,-5.26 -5.69,-8.31 -5.78,-8.32 -12.35,-17.77 -15.54,-24.93l-0.37 -0.85c-2.18,-5.19 -2.55,-9.27 -1.76,-12.41 0.97,-3.84 3.49,-6.25 6.73,-7.55l0.21 -0.08 0.24 -0.09c3.38,-1.22 7.46,-1.23 11.92,1.04 3.23,1.64 6.68,4.54 10.19,9.15 4.01,5.28 8.07,12.69 11.91,19.68 2.98,5.44 5.82,10.62 8.15,13.97 2.24,3.21 3.84,4.65 5.04,5.09 0.47,0.17 1.01,0 1.53,-0.25 0.5,-0.24 0.93,-0.56 1.12,-1.22 0.47,-1.6 0.4,-4.37 -0.6,-9.23 -0.82,-4 -2.21,-9.07 -3.69,-14.46 -2.7,-9.82 -5.67,-20.63 -6.13,-28.14l-0 -0.08c-0.05,-0.8 -0.06,-1.63 -0.05,-2.46 0.08,-5.53 1.65,-9.26 3.96,-11.72 2.56,-2.73 5.84,-3.81 9.03,-3.99 0.32,-0.02 0.72,-0.02 1.17,-0.02 3.58,0.04 6.94,1.07 10.04,4.21 2.58,2.61 4.89,6.75 6.89,13.25 1.93,6.3 3.62,14.94 5.27,23.4 1.45,7.44 2.88,14.74 4.35,19.85 1.41,4.9 2.78,7.65 4.12,9.07 0.65,0.69 1.27,0.86 1.88,0.83l0.05 -0c0.67,-0.04 1.36,-0.3 2.02,-1.09 1.21,-1.45 2.31,-4.16 3.16,-8.86 0.8,-4.41 1.31,-10.49 1.83,-16.76 0.74,-8.82 1.51,-18.04 3.28,-24.54 1.52,-5.59 3.81,-9.2 6.45,-11.41 3.87,-3.24 8.17,-3.59 12.07,-2.71 3.51,0.79 6.72,2.56 9.06,6.71 1.91,3.4 3.11,8.51 3.12,16.34 0.01,8.58 -1.34,20.54 -2.7,32.52 -0.94,8.3 -1.88,16.62 -2.36,23.7 -0.56,8.38 -0.47,15 0.22,20.21 0.64,4.82 1.76,8.28 3.31,10.7 0.1,0.16 0.2,0.31 0.31,0.46l0.66 -1.59c3.14,-7.55 6.29,-14.53 9.92,-20.55 3.79,-6.28 8.12,-11.56 13.52,-15.41 5.41,-3.87 11.79,-6.2 17.75,-6.95 6.52,-0.82 12.7,0.27 16.88,3.31 0.33,0.24 0.62,0.47 0.86,0.67 3.72,3.15 5.51,7.79 5.19,12.99 -0.29,4.71 -2.33,9.93 -6.26,14.81 -0.6,0.74 -1.2,1.44 -1.82,2.09 -4.23,4.51 -10.21,8.65 -16.59,12.11 -7.46,4.05 -15.55,7.19 -22,8.91 -5.24,1.4 -9.57,1.9 -13.24,1.52 -1.19,3 -2.37,6.06 -3.56,9.12 -3.53,9.06 -7.06,18.13 -10.65,26.29 -3.15,7.16 -6.34,13.58 -10.02,19.24 -3.77,5.8 -8.02,10.74 -13.19,14.73 -5.01,3.87 -10.84,6.8 -16.86,8.79 -6.42,2.13 -13.12,3.2 -19.32,3.21 -5.72,0.01 -10.99,-0.89 -15.81,-2.43 -5.39,-1.72 -10.22,-4.25 -14.45,-7.23 -3.84,-2.7 -7.21,-5.78 -10.12,-9.1 -3.09,-3.53 -5.64,-7.32 -7.64,-11.2 -3.8,-7.35 -5.55,-14.77 -7.3,-22.2l-0.01 0 -0 -0c-0.6,-2.3 0.87,-4.62 3.28,-5.2 2.42,-0.57 4.87,0.82 5.47,3.12l0 0 -0.01 0 0.03 0.11c1.64,6.96 3.27,13.93 6.62,20.4 1.7,3.28 3.85,6.49 6.47,9.48 2.44,2.79 5.3,5.39 8.57,7.69 3.52,2.47 7.51,4.57 11.94,5.99 3.96,1.26 8.28,2 12.95,1.99 5.2,-0.01 10.87,-0.92 16.35,-2.74 5.09,-1.68 9.98,-4.14 14.14,-7.35 4.34,-3.35 7.96,-7.57 11.22,-12.58 3.35,-5.15 6.34,-11.21 9.35,-18.04 3.49,-7.93 7,-16.95 10.5,-25.95 1.2,-3.09 2.4,-6.18 3.61,-9.23 -1.72,-1.26 -3.18,-2.87 -4.45,-4.84 -2.22,-3.47 -3.78,-8.05 -4.59,-14.12 -0.75,-5.68 -0.86,-12.82 -0.26,-21.79 0.49,-7.22 1.44,-15.65 2.4,-24.07 1.34,-11.83 2.68,-23.62 2.67,-31.62 -0.01,-6.28 -0.8,-10.07 -2.06,-12.31 -0.83,-1.48 -1.97,-2.11 -3.2,-2.39 -1.37,-0.31 -2.83,-0.23 -4.02,0.76 -1.39,1.17 -2.68,3.37 -3.7,7.12 -1.53,5.64 -2.28,14.56 -2.99,23.1 -0.54,6.45 -1.06,12.69 -1.94,17.53 -1.13,6.24 -2.9,10.2 -5,12.72 -2.6,3.12 -5.58,4.17 -8.56,4.34l-0.12 0.01c-3.1,0.15 -6.15,-0.6 -9.05,-3.68 -2.21,-2.35 -4.28,-6.22 -6.1,-12.53 -1.59,-5.52 -3.05,-12.96 -4.53,-20.55 -1.61,-8.25 -3.26,-16.68 -5.06,-22.56 -1.55,-5.07 -3.15,-8.09 -4.8,-9.76 -1.13,-1.14 -2.32,-1.51 -3.58,-1.53 -0.11,-0 -0.29,0 -0.53,0.02 -1.06,0.06 -2.1,0.37 -2.82,1.14 -0.98,1.04 -1.65,2.94 -1.7,6.12 -0.01,0.53 0.01,1.16 0.05,1.88l0.01 0.07c0.42,6.72 3.26,17.08 5.85,26.5 1.54,5.61 3,10.9 3.83,14.99 1.28,6.27 1.24,10.32 0.42,13.12 -1.09,3.73 -3.27,5.39 -5.75,6.58 -2.46,1.18 -5.29,1.9 -8.84,0.59 -2.82,-1.04 -5.91,-3.47 -9.31,-8.35 -2.67,-3.83 -5.59,-9.15 -8.65,-14.74 -3.73,-6.8 -7.67,-14.01 -11.2,-18.64 -2.64,-3.47 -5.02,-5.53 -7.12,-6.6 -1.82,-0.93 -3.31,-1 -4.45,-0.61l-0.22 0.09c-0.69,0.29 -1.23,0.81 -1.44,1.63 -0.39,1.53 -0.06,3.88 1.37,7.28l0.3 0.69c2.83,6.34 9.18,15.48 14.76,23.52 2.06,2.97 4.02,5.79 5.8,8.47 3.27,4.95 5.43,8.75 6.62,11.91 1.38,3.64 1.54,6.55 0.65,9.24 -0.04,0.15 -0.08,0.29 -0.14,0.44 -0.35,0.94 -0.87,1.86 -1.52,2.73 -1.23,1.62 -2.95,2.93 -5.08,3.65 -0.16,0.06 -0.32,0.12 -0.49,0.17 -2.22,0.64 -4.8,0.63 -7.66,-0.34 -1.52,-0.52 -3.1,-1.31 -4.74,-2.43 -4.04,-2.78 -8.39,-7.55 -12.75,-12.36 -3.37,-3.71 -6.76,-7.44 -9.7,-9.91 -2.68,-2.25 -5.01,-3.49 -6.95,-3.99 -1.62,-0.41 -2.83,-0.26 -3.61,0.24 -0.63,0.4 -1.04,1.11 -1.17,2.07 -0.18,1.34 0.16,3.09 1.13,5.18 1.19,2.56 3.26,5.48 6.03,8.74 2.92,3.44 6.57,7.22 10.75,11.34l2.4 2.35c8.27,8.08 17.85,17.43 24.41,30.14 2.99,5.79 5.22,11.98 7.41,18.05 2.97,8.23 5.85,16.25 10.08,21.67 3.33,4.28 7.61,7.13 12.25,8.44 4.65,1.32 9.67,1.1 14.45,-0.76 4.81,-1.88 9.46,-5.46 13.65,-10.08 4.65,-5.13 8.66,-11.49 11.64,-18.23 2.9,-6.56 4.82,-13.45 5.63,-19.84 0.78,-6.19 0.54,-11.83 -0.85,-16.14 -1.22,-3.78 -3.33,-6.51 -5.9,-8.13 -2.56,-1.62 -5.65,-2.15 -8.75,-1.51 -3.03,0.62 -6.14,2.32 -8.93,4.51 2.29,2.74 3.9,5.7 4.82,8.54 1.24,3.8 1.24,7.52 0.01,10.47 -0.18,0.43 -0.38,0.84 -0.6,1.22 -1.48,2.58 -3.89,4.36 -6.56,5.24 -2.67,0.88 -5.66,0.88 -8.3,-0.12 -0.42,-0.16 -0.83,-0.34 -1.21,-0.54 -3.08,-1.6 -5.42,-4.62 -6.11,-8.59 -0.53,-3.04 -0.08,-6.65 1.82,-10.53 0.84,-1.71 1.98,-3.5 3.35,-5.26 -1.22,-0.75 -2.53,-1.4 -3.89,-1.9l0 -0.01c-2.82,-1.04 -5.86,-1.46 -8.86,-0.89 -0.1,0.02 -0.04,0.01 -0.46,0.11 -3.1,0.69 -6.15,2.4 -8.2,4.93 -1.97,2.42 -2.99,5.67 -2.16,9.57l0.13 0.52c1.22,4.9 5.12,10.84 10.37,17.31 5.56,6.85 12.49,14.12 19.43,21.4zm2.62 -40.43c-0.49,-1.49 -1.29,-3.07 -2.41,-4.61 -0.69,0.97 -1.27,1.94 -1.73,2.87 -1.08,2.2 -1.37,4.07 -1.11,5.53 0.21,1.22 0.79,2.08 1.51,2.45 0.08,0.04 0.15,0.08 0.22,0.1 0.6,0.23 1.33,0.22 2.01,-0.01 0.68,-0.22 1.28,-0.65 1.62,-1.25 0.06,-0.1 0.1,-0.19 0.14,-0.28 0.48,-1.14 0.39,-2.84 -0.25,-4.8zm65.3 -1.16c2.06,-0.1 4.5,-0.53 7.4,-1.3 5.84,-1.56 13.18,-4.42 19.99,-8.11 5.58,-3.02 10.74,-6.58 14.29,-10.37 0.53,-0.56 0.99,-1.09 1.39,-1.59 2.79,-3.47 4.24,-7.01 4.43,-10.08 0.16,-2.58 -0.59,-4.77 -2.19,-6.11 -0.14,-0.12 -0.25,-0.21 -0.33,-0.27 -2.25,-1.63 -6.01,-2.16 -10.24,-1.63 -4.52,0.57 -9.38,2.35 -13.51,5.3 -4.27,3.05 -7.85,7.47 -11.08,12.83 -3.39,5.62 -6.37,12.24 -9.36,19.41l-0.79 1.92z"/>
 </g>
</svg>
