<?xml version="1.0" encoding="UTF-8"?>
<!DOCTYPE svg PUBLIC "-//W3C//DTD SVG 1.1//EN" "http://www.w3.org/Graphics/SVG/1.1/DTD/svg11.dtd">
<!-- Creator: CorelDRAW 2018 (64-Bit) -->
<svg xmlns="http://www.w3.org/2000/svg" xml:space="preserve" width="3.2948in" height="3.05891in" version="1.1" style="shape-rendering:geometricPrecision; text-rendering:geometricPrecision; image-rendering:optimizeQuality; fill-rule:evenodd; clip-rule:evenodd"
viewBox="0 0 79.1 73.44"
 xmlns:xlink="http://www.w3.org/1999/xlink">
 <defs>
  <style type="text/css">
   <![CDATA[
    .fil0 {fill:white}
   ]]>
  </style>
 </defs>
 <g id="Layer_x0020_1">
  <metadata id="CorelCorpID_0Corel-Layer"/>
  <g id="_1971033711888">
   <path class="fil0" d="M37.94 18.22c-0.47,0 -0.65,-0.1 -1.9,-0.88 -0.6,-0.37 -1.53,-0.97 -2.53,-1.68 -2.68,-1.91 -4.32,-3.51 -5.01,-4.91 -0.85,-1.7 -1.1,-3.64 -0.71,-5.45 0.39,-1.82 1.38,-3.34 2.78,-4.3 1.39,-0.94 3.01,-1.23 4.7,-0.84 1.19,0.28 1.95,0.88 2.68,1.61 0.73,-0.73 1.48,-1.33 2.67,-1.61 1.69,-0.4 3.32,-0.11 4.7,0.84 1.4,0.95 2.39,2.48 2.78,4.3 0.39,1.81 0.14,3.75 -0.71,5.45 -0.7,1.39 -2.34,3 -5.01,4.91 -1,0.71 -1.93,1.31 -2.53,1.68 -1.25,0.78 -1.43,0.88 -1.91,0.88l0 0zm-4.12 -15.13c-0.55,0 -1.05,0.16 -1.51,0.47 -0.74,0.51 -1.27,1.36 -1.5,2.4 -0.24,1.13 -0.08,2.34 0.46,3.41 0.86,1.71 4.88,4.42 6.68,5.52 1.81,-1.1 5.82,-3.81 6.68,-5.52 0.54,-1.07 0.7,-2.29 0.46,-3.41 -0.23,-1.04 -0.76,-1.89 -1.5,-2.4 -0.66,-0.45 -1.42,-0.58 -2.25,-0.38 -0.58,0.14 -0.87,0.42 -1.71,1.32 -0.17,0.19 -0.36,0.38 -0.57,0.6 -0.29,0.3 -0.69,0.47 -1.11,0.47 -0.42,0 -0.82,-0.17 -1.11,-0.47 -0.21,-0.21 -0.39,-0.41 -0.57,-0.6 -0.84,-0.89 -1.13,-1.18 -1.71,-1.32 -0.25,-0.06 -0.5,-0.09 -0.74,-0.09l0 0zm0 0z"/>
   <path class="fil0" d="M25.6 49.58c-0.1,0 -0.2,-0.01 -0.3,-0.03 -0.1,-0.02 -0.2,-0.05 -0.29,-0.09 -0.09,-0.04 -0.18,-0.09 -0.27,-0.14 -0.08,-0.06 -0.16,-0.12 -0.23,-0.19 -0.07,-0.07 -0.14,-0.15 -0.19,-0.23 -0.06,-0.09 -0.1,-0.18 -0.14,-0.27 -0.04,-0.09 -0.07,-0.19 -0.09,-0.29 -0.02,-0.1 -0.03,-0.2 -0.03,-0.3 0,-0.41 0.16,-0.81 0.45,-1.09 0.07,-0.07 0.15,-0.13 0.23,-0.19 0.09,-0.06 0.18,-0.1 0.27,-0.14 0.09,-0.04 0.19,-0.07 0.29,-0.09 0.2,-0.04 0.4,-0.04 0.6,0 0.1,0.02 0.2,0.05 0.29,0.09 0.09,0.04 0.18,0.09 0.27,0.14 0.08,0.06 0.16,0.12 0.23,0.19 0.29,0.29 0.45,0.69 0.45,1.09 0,0.1 -0.01,0.2 -0.03,0.3 -0.02,0.1 -0.05,0.2 -0.09,0.29 -0.04,0.09 -0.09,0.18 -0.14,0.27 -0.06,0.08 -0.12,0.16 -0.19,0.23 -0.07,0.07 -0.15,0.14 -0.23,0.19 -0.09,0.06 -0.17,0.1 -0.27,0.14 -0.09,0.04 -0.19,0.07 -0.29,0.09 -0.1,0.02 -0.2,0.03 -0.3,0.03l0 0zm0 0z"/>
   <path class="fil0" d="M79.1 66.71c-0.1,-3.51 -3.08,-6.37 -6.65,-6.37l-0.45 0 0 -18.2 0.4 0.3c0.27,0.2 0.59,0.3 0.91,0.3 0.24,0 0.48,-0.05 0.7,-0.17 0.52,-0.26 0.85,-0.8 0.85,-1.38l0 -7.71c0,-0.49 -0.23,-0.95 -0.63,-1.25l-20.7 -15.21c-0.54,-0.4 -1.29,-0.4 -1.83,0l-9.29 6.82 0 -2.4c0,-0.85 -0.69,-1.54 -1.54,-1.54l-5.85 -0c-0.85,0 -1.54,0.69 -1.54,1.54l0 8.96 -2.47 1.82c-0.4,0.29 -0.63,0.75 -0.63,1.25l0 2.96c-5.06,-2.2 -12.46,-2.04 -16.93,-1.68l0 -1.46c0,-0.85 -0.69,-1.54 -1.54,-1.54l-10.35 0c-0.85,0 -1.54,0.69 -1.54,1.54l0 24.64c0,0.85 0.69,1.54 1.54,1.54l10.35 0c0.85,0 1.54,-0.69 1.54,-1.54l0 -3.73 2.25 -0c0.23,0.6 0.67,2.03 1.22,5.21 1.55,9.03 7.04,14 15.46,14l40.19 0.01c1.78,0 3.45,-0.7 4.69,-1.98 1.24,-1.28 1.9,-2.96 1.85,-4.75zm-10.19 -6.37l-8.91 0 0 -15.51c0,-0.85 -0.69,-1.54 -1.54,-1.54l-11.67 -0c-0.85,0 -1.54,0.69 -1.54,1.54l0 3.83 -9.57 -8.34 16.95 -12.41 16.29 11.97 0 20.47zm-12.19 0c-0.31,-1.39 -1.08,-2.68 -2.26,-3.64l-6.13 -5.35 0 -4.97 8.58 0 0 13.96 -0.18 0zm-20.16 -37.34l2.76 0 0 3.12 -2.76 2.03 0 -5.15zm-3.1 11.26l19.16 -14.07 19.16 14.07 0 3.88 -18.24 -13.4c-0.27,-0.2 -0.59,-0.3 -0.91,-0.3 -0.32,0 -0.64,0.1 -0.91,0.3l-18.24 13.36 0 -3.84zm-23.11 22.14l-7.26 0 0 -21.55 7.26 0 0 21.55zm64.68 12.9c-0.66,0.67 -1.54,1.05 -2.48,1.05l-40.19 -0.01c-8.63,0 -11.52,-6.22 -12.41,-11.44 -0.36,-2.12 -0.73,-3.79 -1.1,-4.98 -0.3,-0.98 -0.86,-2.8 -2.43,-2.8l-2.98 0 0 -13.26c4.47,-0.38 14.07,-0.72 17.88,2.76 0.01,0.01 0.02,0.02 0.03,0.02l21.1 18.39c0.02,0.01 0.03,0.03 0.05,0.04 1.49,1.19 1.73,3.37 0.54,4.86 -0.58,0.72 -1.4,1.18 -2.32,1.28 -0.92,0.1 -1.82,-0.16 -2.53,-0.73l-17.65 -14.32c-0.66,-0.54 -1.64,-0.44 -2.17,0.23 -0.54,0.66 -0.44,1.64 0.23,2.17l17.66 14.32c1.17,0.94 2.6,1.44 4.08,1.44 0.24,0 0.49,-0.01 0.73,-0.04 1.74,-0.19 3.3,-1.05 4.39,-2.42 0.6,-0.74 1,-1.58 1.23,-2.45l15.77 -0c1.91,0 3.51,1.51 3.56,3.36 0.03,0.94 -0.32,1.83 -0.98,2.51zm0 0z"/>
  </g>
 </g>
</svg>
