<?xml version="1.0" encoding="UTF-8"?>
<!DOCTYPE svg PUBLIC "-//W3C//DTD SVG 1.1//EN" "http://www.w3.org/Graphics/SVG/1.1/DTD/svg11.dtd">
<!-- Creator: CorelDRAW 2018 (64-Bit) -->
<svg xmlns="http://www.w3.org/2000/svg" xml:space="preserve" width="2.89632in" height="2.65319in" version="1.1" style="shape-rendering:geometricPrecision; text-rendering:geometricPrecision; image-rendering:optimizeQuality; fill-rule:evenodd; clip-rule:evenodd"
viewBox="0 0 53.41 48.93"
 xmlns:xlink="http://www.w3.org/1999/xlink">
 <defs>
  <style type="text/css">
   <![CDATA[
    .fil0 {fill:white}
   ]]>
  </style>
 </defs>
 <g id="Layer_x0020_1">
  <metadata id="CorelCorpID_0Corel-Layer"/>
  <g id="_1970771499328">
   <g>
    <g>
     <path class="fil0" d="M44.25 20.97c-0.4,-0.16 -0.86,0.03 -1.02,0.43 -0.44,1.08 -1.48,1.78 -2.65,1.78 -0.76,0 -1.48,-0.3 -2.02,-0.84 -0.27,-0.27 -0.48,-0.59 -0.63,-0.94 -0.16,-0.4 -0.62,-0.59 -1.02,-0.43 -0.4,0.16 -0.59,0.62 -0.43,1.02 0.22,0.55 0.55,1.04 0.97,1.46 0.84,0.83 1.95,1.29 3.13,1.29 1.81,0 3.42,-1.08 4.1,-2.76 0.16,-0.4 -0.03,-0.86 -0.43,-1.02z"/>
    </g>
   </g>
   <g>
    <g>
     <path class="fil0" d="M36.09 15.61c-0.43,0 -0.78,0.35 -0.78,0.78l0 0.43c0,0.43 0.35,0.78 0.78,0.78 0.43,0 0.78,-0.35 0.78,-0.78l0 -0.43c0,-0.43 -0.35,-0.78 -0.78,-0.78z"/>
    </g>
   </g>
   <g>
    <g>
     <path class="fil0" d="M45.08 15.61c-0.43,0 -0.78,0.35 -0.78,0.78l0 0.43c0,0.43 0.35,0.78 0.78,0.78 0.43,0 0.78,-0.35 0.78,-0.78l0 -0.43c0,-0.43 -0.35,-0.78 -0.78,-0.78z"/>
    </g>
   </g>
   <g>
    <g>
     <path class="fil0" d="M17.42 20.97c-0.4,-0.16 -0.86,0.03 -1.02,0.43 -0.44,1.08 -1.48,1.78 -2.65,1.78 -0.76,0 -1.48,-0.3 -2.02,-0.84 -0.27,-0.27 -0.48,-0.59 -0.63,-0.94 -0.16,-0.4 -0.62,-0.59 -1.02,-0.43 -0.4,0.16 -0.59,0.62 -0.43,1.02 0.22,0.55 0.55,1.04 0.97,1.46 0.84,0.83 1.95,1.29 3.13,1.29 1.81,0 3.42,-1.08 4.1,-2.76 0.16,-0.4 -0.03,-0.86 -0.43,-1.02z"/>
    </g>
   </g>
   <g>
    <g>
     <path class="fil0" d="M9.25 15.61c-0.43,0 -0.78,0.35 -0.78,0.78l0 0.43c0,0.43 0.35,0.78 0.78,0.78 0.43,0 0.78,-0.35 0.78,-0.78l0 -0.43c0,-0.43 -0.35,-0.78 -0.78,-0.78z"/>
    </g>
   </g>
   <g>
    <g>
     <path class="fil0" d="M18.25 15.61c-0.43,0 -0.78,0.35 -0.78,0.78l0 0.43c0,0.43 0.35,0.78 0.78,0.78 0.43,0 0.78,-0.35 0.78,-0.78l0 -0.43c0,-0.43 -0.35,-0.78 -0.78,-0.78z"/>
    </g>
   </g>
   <g>
    <g>
     <path class="fil0" d="M52.63 11.26c0.43,0 0.78,-0.35 0.78,-0.78l0 -2.17c0,-3.08 -2.51,-5.59 -5.59,-5.59l-1.05 0 -0.13 -0.3c-0.64,-1.47 -2.08,-2.42 -3.68,-2.42l-5.19 0c-5.52,0 -10.02,4.49 -10.02,10.02l0 15.98c0,2.32 1.88,4.2 4.2,4.2l4.48 0 0 1.1 -16.89 0 -1.63 0 0 -1.49c0.94,-0.44 1.81,-1.03 2.58,-1.77 1.63,-1.56 2.67,-3.6 2.95,-5.82 1.59,-0 2.88,-1.29 2.88,-2.88l0 -0.99c0,-0.7 -0.25,-1.35 -0.67,-1.85l1.8 -7.13c0.11,-0.42 -0.15,-0.84 -0.57,-0.95 -0.42,-0.11 -0.84,0.15 -0.95,0.57l-1.67 6.6c-0.24,-0.07 -0.48,-0.11 -0.74,-0.12l0 -2.64c0,-0.25 -0.12,-0.48 -0.32,-0.63 -0.2,-0.15 -0.46,-0.19 -0.69,-0.12 -4.29,1.32 -8.05,1.25 -10.87,-0.2 -2.11,-1.08 -2.99,-2.58 -3,-2.59 -0.17,-0.31 -0.54,-0.46 -0.88,-0.37 -0.34,0.09 -0.58,0.4 -0.58,0.76 0,1.94 -0.41,2.36 -2.46,2.5 -0.41,0.03 -0.73,0.37 -0.73,0.78l0 2.52c-0.29,0.01 -0.56,0.06 -0.82,0.14 -0.34,-1.28 -0.55,-2.23 -0.61,-2.72 -0.12,-0.98 -0.04,-3.9 0.01,-4.94 0,-0.01 0,-0.02 0,-0.03 0,-1.28 1.04,-2.32 2.32,-2.32l1.19 0c0.21,0 0.41,-0.08 0.55,-0.23l2.8 -2.8c0.57,-0.57 1.4,-0.8 2.18,-0.62l9.84 2.34c0.52,0.12 1.05,0.19 1.59,0.19 1.54,0 3.06,-0.53 4.27,-1.49 0.02,-0.02 0.04,-0.04 0.09,-0 0.05,0.03 0.04,0.06 0.03,0.08l-0.59 2.35c-0.11,0.42 0.15,0.84 0.57,0.95 0.42,0.11 0.84,-0.15 0.95,-0.57l0.59 -2.35c0.18,-0.69 -0.1,-1.39 -0.7,-1.78 -0.6,-0.39 -1.35,-0.35 -1.91,0.1 -0.93,0.74 -2.1,1.15 -3.29,1.15 -0.41,0 -0.82,-0.05 -1.22,-0.14l-9.84 -2.34c-1.3,-0.31 -2.7,0.08 -3.65,1.03l-2.57 2.57 -0.86 0c-2.14,0 -3.88,1.73 -3.89,3.87 -0.01,0.3 -0.15,3.9 0.01,5.18 0.08,0.65 0.35,1.82 0.8,3.49 -0.38,0.49 -0.61,1.11 -0.61,1.78l0 0.99c0,1.59 1.29,2.88 2.88,2.88 0.43,3.38 2.58,6.2 5.53,7.59l0 1.49 -1.63 0c-0.48,0 -0.95,0.05 -1.41,0.16 -0.38,-0.67 -1.1,-1.12 -1.92,-1.12l-1.91 0c-1.51,0 -2.73,1.23 -2.73,2.73l0 4.26c0,1.1 0.65,2.05 1.59,2.48l0 8.34c0,0.43 0.35,0.78 0.78,0.78l22.75 0c0.43,0 0.78,-0.35 0.78,-0.78l0 -10.47c0,-1.92 -0.85,-3.64 -2.2,-4.81l12.72 0 0 0.39c0,2.26 3.39,4.21 3.77,4.42 0.12,0.07 0.25,0.1 0.38,0.1 0.13,0 0.26,-0.03 0.38,-0.1 0.39,-0.22 3.77,-2.17 3.77,-4.42l0 -0.39 1.63 0c2.65,0 4.81,2.16 4.81,4.81l0 9.69 -2.19 0 0 -5.24c0,-0.43 -0.35,-0.78 -0.78,-0.78 -0.43,0 -0.78,0.35 -0.78,0.78l0 5.24 -13.67 0 0 -9c0,-0.43 -0.35,-0.78 -0.78,-0.78l-4.69 0c-0.43,0 -0.78,0.35 -0.78,0.78 0,0.43 0.35,0.78 0.78,0.78l3.91 0 0 9c0,0.43 0.35,0.78 0.78,0.78l19 0c0.43,0 0.78,-0.35 0.78,-0.78l0 -10.47c0,-3.52 -2.86,-6.38 -6.38,-6.38l-1.63 0 0 -1.1 4.48 0c2.32,0 4.2,-1.88 4.2,-4.2l0 -11.82c0,-0.43 -0.35,-0.78 -0.78,-0.78 -0.43,0 -0.78,0.35 -0.78,0.78l0 1.77c-0.43,-0.29 -0.95,-0.46 -1.5,-0.47l0 -3.77c0,-1.8 -0.54,-3.53 -1.56,-5 -0.12,-0.18 -0.32,-0.3 -0.53,-0.33 -0.22,-0.03 -0.44,0.03 -0.6,0.17 -3.44,2.82 -7.78,4.37 -12.23,4.37 -1.23,0 -2.46,-0.12 -3.66,-0.35 -0.22,-0.04 -0.45,0.01 -0.63,0.15 -0.18,0.14 -0.29,0.35 -0.3,0.58 -0.01,0.13 -0.01,0.26 -0.01,0.4l0 3.77c-0.55,0.02 -1.07,0.19 -1.5,0.47l0 -5.92c0,-4.66 3.79,-8.45 8.45,-8.45l5.19 0c0.97,0 1.86,0.58 2.24,1.47l0.33 0.77c0.12,0.29 0.41,0.47 0.72,0.47l1.57 0c2.22,0 4.03,1.81 4.03,4.03l0 2.17c-0,0.43 0.35,0.78 0.78,0.78zm-47.06 10.14c-0.02,-0.42 -0.36,-0.74 -0.78,-0.74l-0.71 0c-0.72,0 -1.31,-0.59 -1.31,-1.32l0 -0.99c0,-0.73 0.59,-1.32 1.31,-1.32l0.7 0c0.43,0 0.78,-0.35 0.78,-0.78l0 -2.6c1.63,-0.23 2.55,-0.87 2.95,-2.11 0.56,0.54 1.32,1.14 2.32,1.67 3.65,1.92 7.91,1.49 11.13,0.65l0 2.39c0,0.43 0.35,0.78 0.78,0.78l0.7 0c0.73,0 1.32,0.59 1.32,1.32l0 0.99c0,0.73 -0.59,1.32 -1.32,1.32l-0.71 0c-0.42,0 -0.76,0.33 -0.78,0.74 -0.11,2.1 -1.01,4.06 -2.53,5.51 -0.76,0.72 -1.63,1.28 -2.58,1.67 -0,0 -0.01,0 -0.01,0.01 -0.96,0.39 -2,0.59 -3.06,0.59 -1.08,0 -2.11,-0.21 -3.06,-0.59 -0.01,-0.01 -0.03,-0.01 -0.05,-0.02 -2.86,-1.17 -4.92,-3.9 -5.09,-7.16zm10.78 8.99l0 1.7 0 1.17c0,0.69 -0.27,1.34 -0.76,1.83 -0.49,0.49 -1.14,0.76 -1.83,0.76 -1.43,0 -2.59,-1.16 -2.59,-2.59l0 -1.17 0 -1.7c0.83,0.23 1.69,0.35 2.59,0.35 0.88,0 1.75,-0.12 2.59,-0.35zm-14.77 6.94l0 -4.26c0,-0.64 0.52,-1.17 1.17,-1.17l1.91 0c0.36,0 0.65,0.29 0.65,0.65l0 5.29c0,0.36 -0.29,0.65 -0.65,0.65l-1.91 0c-0.64,0 -1.17,-0.52 -1.17,-1.17zm22.78 0.35l0 9.69 -2.19 0 0 -5.24c0,-0.43 -0.35,-0.78 -0.78,-0.78 -0.43,0 -0.78,0.35 -0.78,0.78l0 5.24 -13.67 0 0 -5.24c0,-0.43 -0.35,-0.78 -0.78,-0.78 -0.43,0 -0.78,0.35 -0.78,0.78l0 5.24 -2.19 0 0 -7.31 1.48 0c1.22,0 2.22,-0.99 2.22,-2.22l0 -4.85c0.36,-0.09 0.74,-0.13 1.12,-0.13l1.63 0 0 0.39c0,2.29 1.86,4.15 4.15,4.15 1.11,0 2.15,-0.43 2.94,-1.22 0.78,-0.78 1.22,-1.83 1.22,-2.94l0 -0.39 1.63 -0c2.65,0 4.81,2.16 4.81,4.81zm18.82 -4.42c0,0.87 -1.41,2.09 -2.59,2.83 -1.18,-0.74 -2.59,-1.96 -2.59,-2.83l0 -2.87c0.83,0.23 1.69,0.35 2.59,0.35 0.89,0 1.75,-0.12 2.59,-0.35l0 2.87zm8.67 -11.51l0 4.25 0 0c0,1.45 -1.18,2.64 -2.63,2.64l-2.58 0c0.23,-0.19 0.46,-0.38 0.68,-0.59 1.63,-1.56 2.67,-3.6 2.95,-5.82 0.58,-0 1.13,-0.18 1.58,-0.48zm-20.94 -4.71l0.7 0c0.43,0 0.78,-0.35 0.78,-0.78l0 -3.99c1,0.15 2.01,0.22 3.03,0.22 4.51,0 8.93,-1.48 12.52,-4.18 0.56,1.04 0.85,2.2 0.85,3.39l0 4.55c0,0.43 0.35,0.78 0.78,0.78l0.7 0c0.72,0 1.31,0.59 1.31,1.32l0 0.99c0,0.73 -0.59,1.32 -1.31,1.32l-0.71 0c-0.42,0 -0.76,0.33 -0.78,0.74 -0.11,2.1 -1.01,4.06 -2.53,5.51 -0.75,0.72 -1.63,1.28 -2.57,1.66 -0.01,0.01 -0.03,0.01 -0.04,0.02 -0.96,0.38 -1.99,0.58 -3.05,0.58 -1.08,0 -2.11,-0.21 -3.06,-0.59 -0.02,-0.01 -0.03,-0.01 -0.05,-0.02 -2.86,-1.17 -4.92,-3.9 -5.09,-7.16 -0.02,-0.42 -0.36,-0.74 -0.78,-0.74l-0.71 0c-0.73,0 -1.32,-0.59 -1.32,-1.32l0 -0.99 -0 0c0,-0.73 0.59,-1.32 1.32,-1.32zm-0 5.19c0.33,2.6 1.68,4.87 3.63,6.41l-2.58 0c-1.45,0 -2.64,-1.18 -2.64,-2.64l0 -4.25c0.45,0.3 1,0.47 1.58,0.48z"/>
    </g>
   </g>
  </g>
 </g>
</svg>
