<?xml version="1.0" encoding="UTF-8"?>
<!DOCTYPE svg PUBLIC "-//W3C//DTD SVG 1.1//EN" "http://www.w3.org/Graphics/SVG/1.1/DTD/svg11.dtd">
<!-- Creator: CorelDRAW 2018 (64-Bit) -->
<svg xmlns="http://www.w3.org/2000/svg" xml:space="preserve" width="3.04143in" height="2.47002in" version="1.1" style="shape-rendering:geometricPrecision; text-rendering:geometricPrecision; image-rendering:optimizeQuality; fill-rule:evenodd; clip-rule:evenodd"
viewBox="0 0 56.23 45.67"
 xmlns:xlink="http://www.w3.org/1999/xlink">
 <defs>
  <style type="text/css">
   <![CDATA[
    .fil0 {fill:white}
   ]]>
  </style>
 </defs>
 <g id="Layer_x0020_1">
  <metadata id="CorelCorpID_0Corel-Layer"/>
  <g id="_1970774983360">
   <g>
    <g>
     <path class="fil0" d="M53.65 44.02l-0.94 0 0 -24.44c2.12,-1.36 3.52,-3.74 3.52,-6.43 0,-0.14 -0.04,-0.28 -0.11,-0.41l-6.54 -11.44c-0.46,-0.8 -1.32,-1.3 -2.24,-1.3l-38.45 0c-0.93,0 -1.78,0.5 -2.24,1.3l-6.54 11.44c-0.07,0.12 -0.11,0.27 -0.11,0.41 0,2.7 1.41,5.07 3.52,6.43l0 24.44 -0.94 0c-0.45,0 -0.82,0.37 -0.82,0.82 0,0.45 0.37,0.82 0.82,0.82l51.06 0c0.45,0 0.82,-0.37 0.82,-0.82 0,-0.45 -0.37,-0.82 -0.82,-0.82zm-51.94 -30.05l2.64 0c0.45,0 0.82,-0.37 0.82,-0.82 0,-0.45 -0.37,-0.82 -0.82,-0.82l-2.1 0 5.83 -10.21c0.17,-0.29 0.48,-0.47 0.81,-0.47l38.45 0c0.34,0 0.65,0.18 0.81,0.47l5.83 10.21 -2.1 0c-0.45,0 -0.82,0.37 -0.82,0.82 0,0.45 0.37,0.82 0.82,0.82l2.64 0c-0.4,2.92 -2.91,5.18 -5.94,5.18 -3.03,0 -5.54,-2.26 -5.94,-5.18l5.72 0c0.45,0 0.82,-0.37 0.82,-0.82 0,-0.45 -0.37,-0.82 -0.82,-0.82l-40.5 0c-0.45,0 -0.82,0.37 -0.82,0.82 0,0.45 0.37,0.82 0.82,0.82l5.72 0c-0.4,2.92 -2.91,5.18 -5.94,5.18 -3.03,0 -5.54,-2.26 -5.94,-5.18zm39.18 0c-0.4,2.92 -2.91,5.18 -5.94,5.18 -3.03,0 -5.54,-2.26 -5.94,-5.18l11.88 0zm-13.65 0c-0.4,2.92 -2.91,5.18 -5.94,5.18 -3.03,0 -5.54,-2.26 -5.94,-5.18l11.88 0zm19.43 30.05l-8.92 0 0 -2.75 8.92 0 0 2.75zm0 -4.4l-8.92 0 0 -15.08 8.92 0 0 15.08zm4.4 4.4l-2.75 0 0 -20.31c0,-0.45 -0.37,-0.82 -0.82,-0.82l-10.56 0c-0.45,0 -0.82,0.37 -0.82,0.82l0 20.31 -30.93 0 0 -23.64c0.78,0.27 1.61,0.41 2.48,0.41 2.98,0 5.56,-1.71 6.82,-4.2 1.26,2.49 3.85,4.2 6.82,4.2 2.98,0 5.56,-1.71 6.82,-4.2 1.26,2.49 3.85,4.2 6.82,4.2 2.98,0 5.56,-1.71 6.82,-4.2 1.26,2.49 3.85,4.2 6.82,4.2 0.87,0 1.7,-0.15 2.48,-0.41l0 23.64z"/>
    </g>
   </g>
   <g>
    <g>
     <path class="fil0" d="M32.52 22.89l-23.77 0c-0.45,0 -0.82,0.37 -0.82,0.82l0 16.73c0,0.45 0.37,0.82 0.82,0.82l23.77 0c0.45,0 0.82,-0.37 0.82,-0.82l0 -16.73c0,-0.45 -0.37,-0.82 -0.82,-0.82zm-0.82 16.73l-22.12 0 0 -15.08 22.12 0 0 15.08z"/>
    </g>
   </g>
   <path class="fil0" d="M20.63 36.85c-0.25,0 -0.34,-0.05 -1,-0.46 -0.32,-0.2 -0.8,-0.51 -1.32,-0.88 -1.4,-1 -2.26,-1.84 -2.63,-2.57 -0.45,-0.89 -0.58,-1.91 -0.37,-2.86 0.21,-0.95 0.72,-1.75 1.46,-2.25 0.73,-0.49 1.58,-0.65 2.46,-0.44 0.63,0.15 1.02,0.46 1.4,0.84 0.38,-0.38 0.78,-0.7 1.4,-0.84 0.89,-0.21 1.74,-0.06 2.46,0.44 0.73,0.5 1.25,1.3 1.46,2.25 0.2,0.95 0.07,1.96 -0.37,2.86 -0.37,0.73 -1.22,1.57 -2.63,2.57 -0.52,0.37 -1.01,0.69 -1.32,0.88 -0.66,0.41 -0.75,0.46 -1,0.46l0 0zm-2.16 -7.93c-0.29,0 -0.55,0.08 -0.79,0.25 -0.39,0.27 -0.67,0.71 -0.79,1.26 -0.13,0.59 -0.04,1.23 0.24,1.79 0.45,0.9 2.55,2.32 3.5,2.89 0.95,-0.58 3.05,-2 3.5,-2.89 0.28,-0.56 0.37,-1.2 0.24,-1.79 -0.12,-0.55 -0.4,-0.99 -0.79,-1.26 -0.35,-0.24 -0.74,-0.3 -1.18,-0.2 -0.3,0.07 -0.45,0.22 -0.89,0.69 -0.09,0.1 -0.19,0.2 -0.3,0.31 -0.15,0.16 -0.36,0.25 -0.58,0.25 -0.22,0 -0.43,-0.09 -0.58,-0.25 -0.11,-0.11 -0.21,-0.22 -0.3,-0.31 -0.44,-0.47 -0.59,-0.62 -0.89,-0.69 -0.13,-0.03 -0.26,-0.05 -0.39,-0.05l-0 0zm0 0z"/>
  </g>
 </g>
</svg>
