<?xml version="1.0" encoding="UTF-8"?>
<!DOCTYPE svg PUBLIC "-//W3C//DTD SVG 1.1//EN" "http://www.w3.org/Graphics/SVG/1.1/DTD/svg11.dtd">
<!-- Creator: CorelDRAW 2018 (64-Bit) -->
<svg xmlns="http://www.w3.org/2000/svg" xml:space="preserve" width="4.12241in" height="4.08021in" version="1.1" style="shape-rendering:geometricPrecision; text-rendering:geometricPrecision; image-rendering:optimizeQuality; fill-rule:evenodd; clip-rule:evenodd"
viewBox="0 0 431.66 427.24"
 xmlns:xlink="http://www.w3.org/1999/xlink">
 <defs>
  <style type="text/css">
   <![CDATA[
    .fil0 {fill:#ED6E00;fill-rule:nonzero}
   ]]>
  </style>
 </defs>
 <g id="Layer_x0020_1">
  <metadata id="CorelCorpID_0Corel-Layer"/>
  <path class="fil0" d="M190.2 328.66c3.24,3.58 2.96,9.1 -0.62,12.33 -3.58,3.23 -9.1,2.96 -12.33,-0.62 -13.79,-15.23 -27.59,-30.46 -38.59,-44.74 -11.6,-15.05 -20.33,-29.33 -23.34,-42.07l-0.32 -1.6c-2.72,-13.53 0.8,-24.98 7.49,-33.67 6.52,-8.47 16.11,-14.17 25.77,-16.45l1.43 -0.29c9.37,-1.88 18.6,-0.6 26.95,2.66l0.03 0.01 0 -0.01c4.71,1.84 9.16,4.31 13.19,7.2l0.67 -0.58c7.63,-6.51 16.6,-11.68 25.73,-13.66 10.68,-2.32 21.37,-0.35 30.33,5.62 8.22,5.48 14.86,14.28 18.49,26.14 3.44,11.23 4.12,25.22 2.34,40.09 -1.76,14.67 -5.91,30.38 -12.16,45.25 -6.47,15.41 -15.23,30.02 -25.45,41.89 -9.8,11.38 -21.06,20.35 -33.13,25.32 -13.08,5.38 -26.89,5.99 -39.67,2.17 -12.53,-3.74 -24.02,-11.72 -32.81,-23.61 -9.86,-13.34 -15.89,-30.96 -22.08,-49.06 -4.11,-12.02 -8.3,-24.26 -13.48,-34.82 -11.47,-23.38 -29.04,-41.45 -44.21,-57.05l-4.73 -4.87c-8.43,-8.74 -15.86,-16.84 -21.89,-24.33 -6.32,-7.84 -11.16,-15.08 -14.1,-21.76 -3.2,-7.26 -4.22,-14.01 -3.49,-19.83 0.91,-7.18 4.4,-12.88 9.87,-16.56 5.48,-3.68 12.74,-5.18 21.25,-2.89 6.18,1.66 13.12,5.41 20.55,11.98 6.66,5.89 13.58,13.91 20.46,21.88 7.83,9.08 15.61,18.09 21.73,22.52 1.81,1.31 3.44,2.19 4.88,2.7 1.64,0.59 2.93,0.65 3.89,0.36l0.35 -0.1c0.53,-0.24 0.98,-0.64 1.34,-1.13 0.23,-0.32 0.44,-0.75 0.63,-1.26l0.17 -0.43c0.46,-1.74 0.14,-4.11 -1.1,-7.55 -1.84,-5.12 -5.5,-11.83 -11.2,-20.91 -3.03,-4.82 -6.94,-10.74 -11.05,-16.97 -11.22,-16.99 -23.96,-36.3 -30.15,-50.91l-0.72 -1.75c-4.22,-10.59 -4.95,-18.93 -3.41,-25.35 1.88,-7.85 6.77,-12.76 13.06,-15.42l0.4 -0.17 0.46 -0.17c6.56,-2.5 14.47,-2.52 23.13,2.13 6.26,3.36 12.96,9.26 19.77,18.69 7.79,10.78 15.66,25.91 23.1,40.2 5.78,11.1 11.29,21.69 15.82,28.53 4.34,6.56 7.45,9.49 9.78,10.4 0.92,0.36 1.96,0 2.97,-0.51 0.97,-0.49 1.8,-1.13 2.18,-2.49 0.91,-3.26 0.77,-8.93 -1.16,-18.84 -1.59,-8.17 -4.3,-18.53 -7.16,-29.53 -5.24,-20.07 -10.99,-42.13 -11.9,-57.48l-0.01 -0.17c-0.09,-1.64 -0.13,-3.32 -0.1,-5.03 0.15,-11.3 3.21,-18.92 7.68,-23.94 4.97,-5.59 11.33,-7.78 17.52,-8.15 0.63,-0.04 1.39,-0.05 2.26,-0.04 6.94,0.09 13.46,2.19 19.48,8.6 5,5.33 9.49,13.78 13.36,27.05 3.75,12.88 7.03,30.52 10.23,47.79 2.82,15.2 5.59,30.11 8.44,40.53 2.74,10 5.4,15.63 8,18.53 1.26,1.41 2.47,1.76 3.65,1.7l0.1 -0c1.3,-0.08 2.64,-0.62 3.91,-2.22 2.34,-2.97 4.48,-8.49 6.13,-18.1 1.55,-9.02 2.54,-21.42 3.56,-34.24 1.43,-18.02 2.93,-36.84 6.36,-50.13 2.95,-11.43 7.4,-18.78 12.52,-23.31 7.5,-6.62 15.85,-7.34 23.42,-5.54 6.81,1.62 13.05,5.22 17.57,13.71 3.7,6.95 6.03,17.38 6.05,33.37 0.02,17.52 -2.61,41.95 -5.25,66.43 -1.83,16.95 -3.66,33.94 -4.58,48.42 -1.1,17.11 -0.91,30.63 0.43,41.28 1.24,9.85 3.42,16.91 6.43,21.86 0.19,0.32 0.39,0.63 0.6,0.93l1.28 -3.25c6.09,-15.42 12.21,-29.68 19.25,-41.98 7.35,-12.83 15.76,-23.6 26.22,-31.48 10.49,-7.9 22.88,-12.66 34.43,-14.19 12.65,-1.67 24.63,0.54 32.75,6.75 0.65,0.5 1.21,0.95 1.67,1.37 7.22,6.43 10.69,15.9 10.07,26.53 -0.56,9.63 -4.53,20.28 -12.15,30.25 -1.15,1.51 -2.33,2.94 -3.52,4.28 -8.21,9.22 -19.8,17.67 -32.18,24.74 -14.48,8.26 -30.17,14.7 -42.68,18.21 -10.17,2.86 -18.58,3.88 -25.69,3.11 -2.3,6.14 -4.61,12.38 -6.91,18.62 -6.84,18.51 -13.69,37.03 -20.66,53.69 -6.11,14.62 -12.3,27.74 -19.44,39.31 -7.32,11.86 -15.56,21.93 -25.59,30.08 -9.73,7.9 -21.03,13.89 -32.72,17.96 -12.46,4.35 -25.45,6.54 -37.47,6.55 -11.09,0.01 -21.32,-1.81 -30.67,-4.96 -10.47,-3.52 -19.82,-8.68 -28.04,-14.76 -7.45,-5.51 -13.99,-11.8 -19.63,-18.58 -5.99,-7.21 -10.93,-14.95 -14.82,-22.87 -7.37,-15 -10.77,-30.17 -14.16,-45.34l-0.02 0 -0 -0.01c-1.17,-4.69 1.68,-9.45 6.37,-10.62 4.69,-1.17 9.45,1.68 10.62,6.37l0 0.01 -0.02 0 0.06 0.23c3.17,14.22 6.35,28.45 12.84,41.67 3.29,6.7 7.48,13.26 12.56,19.37 4.74,5.7 10.28,11.02 16.62,15.71 6.83,5.05 14.57,9.33 23.17,12.23 7.67,2.58 16.06,4.08 25.12,4.07 10.09,-0.01 21.08,-1.88 31.72,-5.59 9.87,-3.44 19.36,-8.45 27.44,-15.02 8.42,-6.84 15.44,-15.46 21.76,-25.7 6.5,-10.53 12.31,-22.89 18.14,-36.84 6.77,-16.2 13.58,-34.61 20.38,-53.01 2.33,-6.31 4.66,-12.61 7,-18.86 -3.35,-2.56 -6.18,-5.87 -8.63,-9.89 -4.32,-7.08 -7.34,-16.43 -8.9,-28.84 -1.46,-11.61 -1.67,-26.19 -0.5,-44.5 0.94,-14.75 2.8,-31.97 4.65,-49.17 2.6,-24.15 5.2,-48.25 5.18,-64.58 -0.02,-12.82 -1.55,-20.57 -3.99,-25.15 -1.62,-3.03 -3.81,-4.31 -6.2,-4.88 -2.66,-0.63 -5.49,-0.47 -7.8,1.56 -2.7,2.38 -5.21,6.89 -7.18,14.54 -2.97,11.52 -4.42,29.74 -5.81,47.18 -1.05,13.17 -2.06,25.93 -3.76,35.81 -2.19,12.74 -5.63,20.83 -9.69,25.98 -5.04,6.38 -10.83,8.51 -16.6,8.86l-0.23 0.01c-6.01,0.31 -11.92,-1.23 -17.56,-7.53 -4.29,-4.8 -8.3,-12.7 -11.84,-25.59 -3.09,-11.27 -5.91,-26.47 -8.79,-41.97 -3.13,-16.86 -6.33,-34.08 -9.82,-46.07 -3.02,-10.35 -6.11,-16.52 -9.32,-19.93 -2.19,-2.33 -4.5,-3.09 -6.94,-3.12 -0.22,-0 -0.56,0.01 -1.03,0.04 -2.05,0.12 -4.07,0.75 -5.47,2.32 -1.9,2.13 -3.21,6 -3.29,12.5 -0.01,1.09 0.02,2.37 0.1,3.84l0.01 0.13c0.81,13.72 6.33,34.88 11.35,54.12 2.99,11.46 5.81,22.27 7.44,30.63 2.49,12.81 2.41,21.07 0.82,26.79 -2.12,7.63 -6.34,11.01 -11.16,13.45 -4.78,2.41 -10.26,3.88 -17.15,1.2 -5.48,-2.13 -11.47,-7.09 -18.07,-17.05 -5.18,-7.82 -10.84,-18.7 -16.78,-30.11 -7.23,-13.9 -14.89,-28.61 -21.73,-38.08 -5.12,-7.08 -9.75,-11.31 -13.81,-13.48 -3.53,-1.89 -6.42,-2.04 -8.63,-1.24l-0.43 0.18c-1.34,0.58 -2.38,1.65 -2.78,3.33 -0.75,3.13 -0.11,7.93 2.65,14.87l0.58 1.4c5.49,12.96 17.81,31.61 28.64,48.03 4,6.06 7.8,11.82 11.25,17.31 6.35,10.1 10.53,17.88 12.85,24.33 2.67,7.44 2.99,13.38 1.26,18.87 -0.07,0.3 -0.16,0.6 -0.27,0.9 -0.69,1.92 -1.68,3.81 -2.96,5.57 -2.39,3.31 -5.71,5.98 -9.85,7.45 -0.3,0.13 -0.62,0.25 -0.94,0.34 -4.3,1.3 -9.32,1.28 -14.85,-0.7 -2.94,-1.05 -6.02,-2.67 -9.19,-4.97 -7.85,-5.67 -16.27,-15.43 -24.74,-25.25 -6.54,-7.58 -13.11,-15.19 -18.81,-20.24 -5.19,-4.59 -9.71,-7.13 -13.49,-8.14 -3.15,-0.85 -5.49,-0.53 -7,0.49 -1.22,0.82 -2.02,2.27 -2.27,4.22 -0.35,2.74 0.31,6.31 2.19,10.58 2.3,5.23 6.33,11.19 11.7,17.86 5.66,7.03 12.75,14.76 20.86,23.16l4.66 4.81c16.04,16.49 34.63,35.61 47.36,61.57 5.8,11.82 10.12,24.46 14.37,36.87 5.75,16.81 11.35,33.18 19.55,44.27 6.45,8.73 14.77,14.56 23.77,17.24 9.01,2.69 18.77,2.25 28.03,-1.56 9.33,-3.84 18.36,-11.15 26.48,-20.59 9.03,-10.48 16.79,-23.47 22.58,-37.23 5.63,-13.4 9.36,-27.47 10.92,-40.52 1.52,-12.64 1.05,-24.16 -1.65,-32.97 -2.36,-7.72 -6.46,-13.3 -11.44,-16.62 -4.97,-3.31 -10.95,-4.39 -16.97,-3.09 -5.87,1.28 -11.92,4.74 -17.32,9.21 4.44,5.6 7.57,11.64 9.36,17.44 2.4,7.77 2.41,15.35 0.01,21.39 -0.35,0.88 -0.74,1.71 -1.16,2.49 -2.87,5.26 -7.54,8.9 -12.73,10.71 -5.18,1.8 -10.98,1.79 -16.1,-0.25 -0.82,-0.33 -1.6,-0.69 -2.34,-1.09 -5.98,-3.26 -10.51,-9.44 -11.85,-17.55 -1.02,-6.21 -0.15,-13.59 3.53,-21.5 1.63,-3.49 3.84,-7.14 6.5,-10.74 -2.37,-1.53 -4.91,-2.85 -7.55,-3.88l0 -0.01c-5.47,-2.13 -11.38,-2.99 -17.19,-1.82 -0.19,0.04 -0.07,0.03 -0.88,0.22 -6.01,1.42 -11.93,4.91 -15.9,10.07 -3.81,4.95 -5.8,11.59 -4.2,19.55l0.26 1.05c2.36,10 9.94,22.15 20.12,35.36 10.78,13.98 24.24,28.85 37.7,43.71zm5.08 -82.57c-0.94,-3.05 -2.5,-6.26 -4.68,-9.41 -1.34,1.99 -2.47,3.96 -3.36,5.87 -2.09,4.5 -2.65,8.32 -2.16,11.29 0.41,2.49 1.53,4.24 2.94,5.01 0.16,0.09 0.3,0.15 0.42,0.2 1.17,0.47 2.58,0.44 3.91,-0.02 1.32,-0.46 2.47,-1.33 3.14,-2.56 0.11,-0.2 0.2,-0.39 0.27,-0.57 0.93,-2.32 0.75,-5.81 -0.49,-9.81zm126.68 -2.37c3.99,-0.2 8.74,-1.08 14.37,-2.66 11.32,-3.18 25.57,-9.03 38.78,-16.56 10.82,-6.17 20.84,-13.43 27.73,-21.18 1.02,-1.15 1.92,-2.23 2.7,-3.25 5.42,-7.09 8.22,-14.31 8.59,-20.59 0.31,-5.27 -1.15,-9.74 -4.25,-12.49 -0.27,-0.24 -0.49,-0.43 -0.65,-0.55 -4.36,-3.34 -11.66,-4.41 -19.87,-3.33 -8.76,1.16 -18.2,4.8 -26.21,10.83 -8.28,6.24 -15.22,15.25 -21.49,26.2 -6.58,11.48 -12.37,24.99 -18.15,39.65l-1.53 3.92z"/>
 </g>
</svg>
