<?xml version="1.0" encoding="UTF-8"?>
<!DOCTYPE svg PUBLIC "-//W3C//DTD SVG 1.1//EN" "http://www.w3.org/Graphics/SVG/1.1/DTD/svg11.dtd">
<!-- Creator: CorelDRAW 2018 (64-Bit) -->
<svg xmlns="http://www.w3.org/2000/svg" xml:space="preserve" width="1.91226in" height="0.563028in" version="1.1" style="shape-rendering:geometricPrecision; text-rendering:geometricPrecision; image-rendering:optimizeQuality; fill-rule:evenodd; clip-rule:evenodd"
viewBox="0 0 255 75"
 xmlns:xlink="http://www.w3.org/1999/xlink">
 <defs>
  <style type="text/css">
   <![CDATA[
    .fil0 {fill:#FFC352;fill-rule:nonzero}
   ]]>
  </style>
 </defs>
 <g id="Layer_x0020_1">
  <metadata id="CorelCorpID_0Corel-Layer"/>
  <path class="fil0" d="M239 35l-17 22c-3,3 -2,8 1,11 2,2 5,2 5,2l26 -35 -26 -35c0,0 -3,0 -5,2 -3,3 -4,8 -1,11l17 22z"/>
  <path class="fil0" d="M16 40l17 22c3,3 2,8 -1,11 -2,2 -5,2 -5,2l-26 -35 26 -35c0,0 3,0 5,2 3,3 4,8 1,11l-17 22z"/>
 </g>
</svg>
